<ttFont>
    <TTGlyph name=".notdef" xMin="50" yMin="0" xMax="450" yMax="750">
      <contour>
        <pt x="50" y="0" on="1"/>
        <pt x="50" y="750" on="1"/>
        <pt x="450" y="750" on="1"/>
        <pt x="450" y="0" on="1"/>
      </contour>
      <contour>
        <pt x="400" y="50" on="1"/>
        <pt x="400" y="700" on="1"/>
        <pt x="100" y="700" on="1"/>
        <pt x="100" y="50" on="1"/>
      </contour>
    </TTGlyph>
    <TTGlyph name="A" xMin="15" yMin="0" xMax="689" yMax="693">
      <contour>
        <pt x="532" y="0" on="1"/>
        <pt x="530" y="39" on="0"/>
        <pt x="525" y="114" on="0"/>
        <pt x="522" y="151" on="1"/>
        <pt x="262" y="151" on="1"/>
        <pt x="242" y="114" on="0"/>
        <pt x="198" y="39" on="0"/>
        <pt x="178" y="0" on="1"/>
        <pt x="15" y="0" on="1"/>
        <pt x="80" y="112" on="0"/>
        <pt x="193" y="302" on="0"/>
        <pt x="298" y="470" on="0"/>
        <pt x="398" y="621" on="0"/>
        <pt x="450" y="693" on="1"/>
        <pt x="589" y="693" on="1"/>
        <pt x="605" y="621" on="0"/>
        <pt x="634" y="446" on="0"/>
        <pt x="659" y="263" on="0"/>
        <pt x="680" y="80" on="0"/>
        <pt x="689" y="0" on="1"/>
      </contour>
      <contour>
        <pt x="486" y="541" on="1"/>
        <pt x="444" y="474" on="0"/>
        <pt x="363" y="342" on="0"/>
        <pt x="325" y="273" on="1"/>
        <pt x="512" y="273" on="1"/>
        <pt x="507" y="334" on="0"/>
        <pt x="496" y="472" on="0"/>
      </contour>
    </TTGlyph>
    <TTGlyph name="AE" xMin="0" yMin="0" xMax="1077" yMax="693">
      <contour>
        <pt x="508" y="164" on="1"/>
        <pt x="284" y="164" on="1"/>
        <pt x="253" y="126" on="0"/>
        <pt x="187" y="38" on="0"/>
        <pt x="160" y="0" on="1"/>
        <pt x="0" y="0" on="1"/>
        <pt x="84" y="108" on="0"/>
        <pt x="228" y="292" on="0"/>
        <pt x="366" y="457" on="0"/>
        <pt x="505" y="613" on="0"/>
        <pt x="582" y="693" on="1"/>
        <pt x="1077" y="693" on="1"/>
        <pt x="1045" y="562" on="1"/>
        <pt x="749" y="562" on="1"/>
        <pt x="717" y="426" on="1"/>
        <pt x="978" y="426" on="1"/>
        <pt x="947" y="298" on="1"/>
        <pt x="686" y="298" on="1"/>
        <pt x="646" y="131" on="1"/>
        <pt x="965" y="131" on="1"/>
        <pt x="933" y="0" on="1"/>
        <pt x="468" y="0" on="1"/>
      </contour>
      <contour>
        <pt x="599" y="546" on="1"/>
        <pt x="578" y="523" on="0"/>
        <pt x="521" y="458" on="0"/>
        <pt x="460" y="387" on="0"/>
        <pt x="400" y="316" on="0"/>
        <pt x="376" y="288" on="1"/>
        <pt x="537" y="288" on="1"/>
      </contour>
    </TTGlyph>
    <TTGlyph name="AEacute" xMin="0" yMin="0" xMax="1077" yMax="959">
      <contour>
        <pt x="944" y="872" on="1"/>
        <pt x="767" y="736" on="1"/>
        <pt x="707" y="798" on="1"/>
        <pt x="867" y="959" on="1"/>
      </contour>
      <contour>
        <pt x="508" y="164" on="1"/>
        <pt x="284" y="164" on="1"/>
        <pt x="253" y="126" on="0"/>
        <pt x="187" y="38" on="0"/>
        <pt x="160" y="0" on="1"/>
        <pt x="0" y="0" on="1"/>
        <pt x="84" y="108" on="0"/>
        <pt x="228" y="292" on="0"/>
        <pt x="366" y="457" on="0"/>
        <pt x="505" y="613" on="0"/>
        <pt x="582" y="693" on="1"/>
        <pt x="1077" y="693" on="1"/>
        <pt x="1045" y="562" on="1"/>
        <pt x="749" y="562" on="1"/>
        <pt x="717" y="426" on="1"/>
        <pt x="978" y="426" on="1"/>
        <pt x="947" y="298" on="1"/>
        <pt x="686" y="298" on="1"/>
        <pt x="646" y="131" on="1"/>
        <pt x="965" y="131" on="1"/>
        <pt x="933" y="0" on="1"/>
        <pt x="468" y="0" on="1"/>
      </contour>
      <contour>
        <pt x="599" y="546" on="1"/>
        <pt x="578" y="523" on="0"/>
        <pt x="521" y="458" on="0"/>
        <pt x="460" y="387" on="0"/>
        <pt x="400" y="316" on="0"/>
        <pt x="376" y="288" on="1"/>
        <pt x="537" y="288" on="1"/>
      </contour>
    </TTGlyph>
    <TTGlyph name="Aacute" xMin="15" yMin="0" xMax="689" yMax="959">
      <component glyphName="A" x="0" y="0" flags="0x204"/>
      <component glyphName="acute" x="239" y="160" flags="0x4"/>
    </TTGlyph>
    <TTGlyph name="Abreve" xMin="15" yMin="0" xMax="710" yMax="917">
      <component glyphName="A" x="0" y="0" flags="0x204"/>
      <component glyphName="breve" x="186" y="153" flags="0x4"/>
    </TTGlyph>
    <TTGlyph name="Acircumflex" xMin="15" yMin="0" xMax="689" yMax="950">
      <component glyphName="A" x="0" y="0" flags="0x204"/>
      <component glyphName="circumflex" x="190" y="166" flags="0x4"/>
    </TTGlyph>
    <TTGlyph name="Adieresis" xMin="15" yMin="0" xMax="736" yMax="914">
      <component glyphName="A" x="0" y="0" flags="0x204"/>
      <component glyphName="dieresis" x="134" y="160" flags="0x4"/>
    </TTGlyph>
    <TTGlyph name="Agrave" xMin="15" yMin="0" xMax="689" yMax="959">
      <component glyphName="A" x="0" y="0" flags="0x204"/>
      <component glyphName="grave" x="218" y="160" flags="0x4"/>
    </TTGlyph>
    <TTGlyph name="Alpha" xMin="15" yMin="0" xMax="689" yMax="693">
      <component glyphName="A" x="0" y="0" flags="0x204"/>
    </TTGlyph>
    <TTGlyph name="Alphatonos" xMin="40" yMin="0" xMax="714" yMax="737">
      <component glyphName="A" x="25" y="0" flags="0x4"/>
      <component glyphName="tonos.cap" x="-93" y="0" flags="0x4"/>
    </TTGlyph>
    <TTGlyph name="Amacron" xMin="15" yMin="0" xMax="726" yMax="878">
      <component glyphName="A" x="0" y="0" flags="0x204"/>
      <component glyphName="macron" x="208" y="153" flags="0x4"/>
    </TTGlyph>
    <TTGlyph name="Aogonek" xMin="15" yMin="-221" xMax="689" yMax="693">
      <contour>
        <pt x="532" y="0" on="1"/>
        <pt x="530" y="39" on="0"/>
        <pt x="525" y="114" on="0"/>
        <pt x="522" y="151" on="1"/>
        <pt x="262" y="151" on="1"/>
        <pt x="242" y="114" on="0"/>
        <pt x="198" y="39" on="0"/>
        <pt x="178" y="0" on="1"/>
        <pt x="15" y="0" on="1"/>
        <pt x="80" y="112" on="0"/>
        <pt x="193" y="302" on="0"/>
        <pt x="298" y="470" on="0"/>
        <pt x="398" y="621" on="0"/>
        <pt x="450" y="693" on="1"/>
        <pt x="589" y="693" on="1"/>
        <pt x="605" y="621" on="0"/>
        <pt x="634" y="446" on="0"/>
        <pt x="659" y="263" on="0"/>
        <pt x="680" y="80" on="0"/>
        <pt x="689" y="0" on="1"/>
        <pt x="685" y="-3" on="1"/>
        <pt x="634" y="-38" on="0"/>
        <pt x="594" y="-84" on="0"/>
        <pt x="594" y="-97" on="1"/>
        <pt x="594" y="-113" on="0"/>
        <pt x="619" y="-113" on="1"/>
        <pt x="633" y="-113" on="0"/>
        <pt x="665" y="-104" on="0"/>
        <pt x="672" y="-102" on="1"/>
        <pt x="662" y="-201" on="1"/>
        <pt x="642" y="-210" on="0"/>
        <pt x="593" y="-221" on="0"/>
        <pt x="567" y="-221" on="1"/>
        <pt x="546" y="-221" on="0"/>
        <pt x="506" y="-212" on="0"/>
        <pt x="475" y="-192" on="0"/>
        <pt x="457" y="-160" on="0"/>
        <pt x="457" y="-136" on="1"/>
        <pt x="457" y="-106" on="0"/>
        <pt x="499" y="-42" on="0"/>
        <pt x="547" y="-13" on="1"/>
        <pt x="569" y="0" on="1"/>
      </contour>
      <contour>
        <pt x="486" y="541" on="1"/>
        <pt x="444" y="474" on="0"/>
        <pt x="363" y="342" on="0"/>
        <pt x="325" y="273" on="1"/>
        <pt x="512" y="273" on="1"/>
        <pt x="507" y="334" on="0"/>
        <pt x="496" y="472" on="0"/>
      </contour>
    </TTGlyph>
    <TTGlyph name="Aring" xMin="15" yMin="0" xMax="689" yMax="882">
      <contour>
        <pt x="532" y="0" on="1"/>
        <pt x="530" y="39" on="0"/>
        <pt x="525" y="114" on="0"/>
        <pt x="522" y="151" on="1"/>
        <pt x="262" y="151" on="1"/>
        <pt x="242" y="114" on="0"/>
        <pt x="198" y="39" on="0"/>
        <pt x="178" y="0" on="1"/>
        <pt x="15" y="0" on="1"/>
        <pt x="79" y="110" on="0"/>
        <pt x="191" y="298" on="0"/>
        <pt x="294" y="465" on="0"/>
        <pt x="393" y="614" on="0"/>
        <pt x="444" y="685" on="1"/>
        <pt x="430" y="700" on="0"/>
        <pt x="413" y="741" on="0"/>
        <pt x="413" y="767" on="1"/>
        <pt x="413" y="795" on="0"/>
        <pt x="432" y="838" on="0"/>
        <pt x="465" y="867" on="0"/>
        <pt x="507" y="882" on="0"/>
        <pt x="530" y="882" on="1"/>
        <pt x="554" y="882" on="0"/>
        <pt x="597" y="867" on="0"/>
        <pt x="630" y="838" on="0"/>
        <pt x="649" y="795" on="0"/>
        <pt x="649" y="767" on="1"/>
        <pt x="649" y="732" on="0"/>
        <pt x="618" y="682" on="0"/>
        <pt x="594" y="668" on="1"/>
        <pt x="609" y="596" on="0"/>
        <pt x="637" y="427" on="0"/>
        <pt x="661" y="251" on="0"/>
        <pt x="681" y="77" on="0"/>
        <pt x="689" y="0" on="1"/>
      </contour>
      <contour>
        <pt x="486" y="541" on="1"/>
        <pt x="444" y="474" on="0"/>
        <pt x="363" y="342" on="0"/>
        <pt x="325" y="273" on="1"/>
        <pt x="512" y="273" on="1"/>
        <pt x="507" y="334" on="0"/>
        <pt x="496" y="472" on="0"/>
      </contour>
      <contour>
        <pt x="576" y="767" on="1"/>
        <pt x="576" y="790" on="0"/>
        <pt x="548" y="814" on="0"/>
        <pt x="530" y="814" on="1"/>
        <pt x="513" y="814" on="0"/>
        <pt x="485" y="790" on="0"/>
        <pt x="485" y="767" on="1"/>
        <pt x="485" y="744" on="0"/>
        <pt x="513" y="720" on="0"/>
        <pt x="530" y="720" on="1"/>
        <pt x="548" y="720" on="0"/>
        <pt x="576" y="744" on="0"/>
      </contour>
    </TTGlyph>
    <TTGlyph name="Aringacute" xMin="14" yMin="0" xMax="694" yMax="962">
      <contour>
        <pt x="534" y="0" on="1"/>
        <pt x="532" y="39" on="0"/>
        <pt x="527" y="113" on="0"/>
        <pt x="524" y="150" on="1"/>
        <pt x="255" y="150" on="1"/>
        <pt x="235" y="113" on="0"/>
        <pt x="195" y="39" on="0"/>
        <pt x="175" y="0" on="1"/>
        <pt x="14" y="0" on="1"/>
        <pt x="76" y="107" on="0"/>
        <pt x="185" y="290" on="0"/>
        <pt x="287" y="452" on="0"/>
        <pt x="384" y="598" on="0"/>
        <pt x="434" y="668" on="1"/>
        <pt x="424" y="687" on="0"/>
        <pt x="424" y="714" on="1"/>
        <pt x="424" y="738" on="0"/>
        <pt x="441" y="775" on="0"/>
        <pt x="469" y="800" on="0"/>
        <pt x="505" y="813" on="0"/>
        <pt x="525" y="813" on="1"/>
        <pt x="545" y="813" on="0"/>
        <pt x="582" y="800" on="0"/>
        <pt x="610" y="775" on="0"/>
        <pt x="627" y="738" on="0"/>
        <pt x="627" y="714" on="1"/>
        <pt x="627" y="672" on="0"/>
        <pt x="601" y="646" on="1"/>
        <pt x="616" y="578" on="0"/>
        <pt x="641" y="437" on="0"/>
        <pt x="663" y="280" on="0"/>
        <pt x="683" y="103" on="0"/>
        <pt x="694" y="0" on="1"/>
      </contour>
      <contour>
        <pt x="486" y="541" on="1"/>
        <pt x="444" y="472" on="0"/>
        <pt x="364" y="340" on="0"/>
        <pt x="326" y="274" on="1"/>
        <pt x="514" y="274" on="1"/>
        <pt x="509" y="335" on="0"/>
        <pt x="496" y="466" on="0"/>
      </contour>
      <contour>
        <pt x="564" y="714" on="1"/>
        <pt x="564" y="734" on="0"/>
        <pt x="540" y="755" on="0"/>
        <pt x="525" y="755" on="1"/>
        <pt x="511" y="755" on="0"/>
        <pt x="486" y="734" on="0"/>
        <pt x="486" y="714" on="1"/>
        <pt x="486" y="694" on="0"/>
        <pt x="511" y="673" on="0"/>
        <pt x="525" y="673" on="1"/>
        <pt x="540" y="673" on="0"/>
        <pt x="564" y="694" on="0"/>
      </contour>
      <contour>
        <pt x="634" y="884" on="1"/>
        <pt x="460" y="819" on="1"/>
        <pt x="437" y="880" on="1"/>
        <pt x="600" y="962" on="1"/>
      </contour>
    </TTGlyph>
    <TTGlyph name="At" xMin="113" yMin="-95" xMax="992" yMax="787">
      <component glyphName="at" x="13" y="69" flags="0x214"/>
    </TTGlyph>
    <TTGlyph name="Atilde" xMin="15" yMin="0" xMax="729" yMax="918">
      <component glyphName="A" x="0" y="0" flags="0x204"/>
      <component glyphName="tilde" x="200" y="163" flags="0x4"/>
    </TTGlyph>
    <TTGlyph name="B" xMin="75" yMin="-9" xMax="698" yMax="701">
      <contour>
        <pt x="312" y="-9" on="1"/>
        <pt x="252" y="-9" on="0"/>
        <pt x="126" y="1" on="0"/>
        <pt x="75" y="12" on="1"/>
        <pt x="235" y="682" on="1"/>
        <pt x="292" y="693" on="0"/>
        <pt x="417" y="701" on="0"/>
        <pt x="469" y="701" on="1"/>
        <pt x="529" y="701" on="0"/>
        <pt x="616" y="676" on="0"/>
        <pt x="671" y="634" on="0"/>
        <pt x="698" y="577" on="0"/>
        <pt x="698" y="545" on="1"/>
        <pt x="698" y="523" on="0"/>
        <pt x="689" y="475" on="0"/>
        <pt x="662" y="428" on="0"/>
        <pt x="615" y="386" on="0"/>
        <pt x="577" y="369" on="1"/>
        <pt x="622" y="349" on="0"/>
        <pt x="664" y="280" on="0"/>
        <pt x="664" y="238" on="1"/>
        <pt x="664" y="190" on="0"/>
        <pt x="626" y="101" on="0"/>
        <pt x="542" y="32" on="0"/>
        <pt x="408" y="-9" on="0"/>
      </contour>
      <contour>
        <pt x="298" y="303" on="1"/>
        <pt x="255" y="123" on="1"/>
        <pt x="271" y="120" on="0"/>
        <pt x="320" y="117" on="0"/>
        <pt x="341" y="117" on="1"/>
        <pt x="371" y="117" on="0"/>
        <pt x="430" y="126" on="0"/>
        <pt x="477" y="150" on="0"/>
        <pt x="507" y="192" on="0"/>
        <pt x="507" y="225" on="1"/>
        <pt x="507" y="239" on="0"/>
        <pt x="496" y="267" on="0"/>
        <pt x="472" y="289" on="0"/>
        <pt x="433" y="303" on="0"/>
        <pt x="406" y="303" on="1"/>
      </contour>
      <contour>
        <pt x="327" y="420" on="1"/>
        <pt x="425" y="420" on="1"/>
        <pt x="485" y="420" on="0"/>
        <pt x="544" y="472" on="0"/>
        <pt x="544" y="508" on="1"/>
        <pt x="544" y="527" on="0"/>
        <pt x="527" y="554" on="0"/>
        <pt x="499" y="570" on="0"/>
        <pt x="463" y="577" on="0"/>
        <pt x="444" y="577" on="1"/>
        <pt x="423" y="577" on="0"/>
        <pt x="375" y="574" on="0"/>
        <pt x="363" y="572" on="1"/>
      </contour>
    </TTGlyph>
    <TTGlyph name="Backslash" xMin="161" yMin="-138" xMax="407" yMax="830">
      <component glyphName="backslash" x="11" y="47" flags="0x214"/>
    </TTGlyph>
    <TTGlyph name="Beta" xMin="75" yMin="-9" xMax="698" yMax="701">
      <component glyphName="B" x="0" y="0" flags="0x204"/>
    </TTGlyph>
    <TTGlyph name="Braceleft" xMin="91" yMin="-138" xMax="568" yMax="830">
      <component glyphName="braceleft" x="11" y="47" flags="0x214"/>
    </TTGlyph>
    <TTGlyph name="Braceright" xMin="-40" yMin="-138" xMax="437" yMax="830">
      <component glyphName="braceright" x="11" y="47" flags="0x214"/>
    </TTGlyph>
    <TTGlyph name="Bracketleft" xMin="41" yMin="-138" xMax="544" yMax="830">
      <component glyphName="bracketleft" x="11" y="47" flags="0x214"/>
    </TTGlyph>
    <TTGlyph name="Bracketright" xMin="-27" yMin="-138" xMax="476" yMax="830">
      <component glyphName="bracketright" x="11" y="47" flags="0x214"/>
    </TTGlyph>
    <TTGlyph name="Bullet" xMin="120" yMin="211" xMax="408" yMax="495">
      <component glyphName="bullet" x="0" y="0" flags="0x204"/>
    </TTGlyph>
    <TTGlyph name="C" xMin="123" yMin="-14" xMax="733" yMax="709">
      <contour>
        <pt x="614" y="30" on="1"/>
        <pt x="573" y="10" on="0"/>
        <pt x="473" y="-14" on="0"/>
        <pt x="401" y="-14" on="1"/>
        <pt x="339" y="-14" on="0"/>
        <pt x="236" y="27" on="0"/>
        <pt x="163" y="103" on="0"/>
        <pt x="123" y="212" on="0"/>
        <pt x="123" y="280" on="1"/>
        <pt x="123" y="358" on="0"/>
        <pt x="178" y="512" on="0"/>
        <pt x="285" y="633" on="0"/>
        <pt x="440" y="709" on="0"/>
        <pt x="541" y="709" on="1"/>
        <pt x="589" y="709" on="0"/>
        <pt x="682" y="687" on="0"/>
        <pt x="733" y="659" on="1"/>
        <pt x="677" y="538" on="1"/>
        <pt x="635" y="560" on="0"/>
        <pt x="569" y="576" on="0"/>
        <pt x="531" y="576" on="1"/>
        <pt x="474" y="576" on="0"/>
        <pt x="383" y="530" on="0"/>
        <pt x="318" y="451" on="0"/>
        <pt x="284" y="347" on="0"/>
        <pt x="284" y="289" on="1"/>
        <pt x="284" y="201" on="0"/>
        <pt x="361" y="121" on="0"/>
        <pt x="433" y="121" on="1"/>
        <pt x="481" y="121" on="0"/>
        <pt x="562" y="141" on="0"/>
        <pt x="597" y="157" on="1"/>
      </contour>
    </TTGlyph>
    <TTGlyph name="Cacute" xMin="123" yMin="-14" xMax="733" yMax="959">
      <component glyphName="C" x="0" y="0" flags="0x204"/>
      <component glyphName="acute" x="228" y="160" flags="0x4"/>
    </TTGlyph>
    <TTGlyph name="Ccaron" xMin="123" yMin="-14" xMax="733" yMax="954">
      <component glyphName="C" x="0" y="0" flags="0x204"/>
      <component glyphName="caron" x="206" y="161" flags="0x4"/>
    </TTGlyph>
    <TTGlyph name="Ccedilla" xMin="123" yMin="-221" xMax="733" yMax="709">
      <contour>
        <pt x="614" y="30" on="1"/>
        <pt x="573" y="10" on="0"/>
        <pt x="476" y="-13" on="0"/>
        <pt x="405" y="-14" on="1"/>
        <pt x="399" y="-22" on="0"/>
        <pt x="389" y="-38" on="0"/>
        <pt x="385" y="-44" on="1"/>
        <pt x="407" y="-55" on="0"/>
        <pt x="429" y="-91" on="0"/>
        <pt x="429" y="-111" on="1"/>
        <pt x="429" y="-140" on="0"/>
        <pt x="406" y="-182" on="0"/>
        <pt x="367" y="-209" on="0"/>
        <pt x="317" y="-221" on="0"/>
        <pt x="291" y="-221" on="1"/>
        <pt x="264" y="-221" on="0"/>
        <pt x="211" y="-209" on="0"/>
        <pt x="190" y="-198" on="1"/>
        <pt x="226" y="-116" on="1"/>
        <pt x="239" y="-122" on="0"/>
        <pt x="272" y="-130" on="0"/>
        <pt x="287" y="-130" on="1"/>
        <pt x="327" y="-130" on="0"/>
        <pt x="327" y="-106" on="1"/>
        <pt x="327" y="-95" on="0"/>
        <pt x="313" y="-81" on="0"/>
        <pt x="297" y="-74" on="1"/>
        <pt x="277" y="-65" on="1"/>
        <pt x="318" y="-4" on="1"/>
        <pt x="227" y="19" on="0"/>
        <pt x="123" y="168" on="0"/>
        <pt x="123" y="280" on="1"/>
        <pt x="123" y="358" on="0"/>
        <pt x="178" y="512" on="0"/>
        <pt x="285" y="633" on="0"/>
        <pt x="440" y="709" on="0"/>
        <pt x="541" y="709" on="1"/>
        <pt x="589" y="709" on="0"/>
        <pt x="682" y="687" on="0"/>
        <pt x="733" y="659" on="1"/>
        <pt x="677" y="538" on="1"/>
        <pt x="635" y="560" on="0"/>
        <pt x="569" y="576" on="0"/>
        <pt x="531" y="576" on="1"/>
        <pt x="474" y="576" on="0"/>
        <pt x="383" y="530" on="0"/>
        <pt x="318" y="451" on="0"/>
        <pt x="284" y="347" on="0"/>
        <pt x="284" y="289" on="1"/>
        <pt x="284" y="201" on="0"/>
        <pt x="361" y="121" on="0"/>
        <pt x="433" y="121" on="1"/>
        <pt x="481" y="121" on="0"/>
        <pt x="562" y="141" on="0"/>
        <pt x="597" y="157" on="1"/>
      </contour>
    </TTGlyph>
    <TTGlyph name="Ccircumflex" xMin="123" yMin="-14" xMax="733" yMax="950">
      <component glyphName="C" x="0" y="0" flags="0x204"/>
      <component glyphName="circumflex" x="212" y="166" flags="0x4"/>
    </TTGlyph>
    <TTGlyph name="Cdotaccent" xMin="123" yMin="-14" xMax="733" yMax="916">
      <component glyphName="C" x="0" y="0" flags="0x204"/>
      <component glyphName="dotaccent" x="156" y="160" flags="0x4"/>
    </TTGlyph>
    <TTGlyph name="Chi" xMin="15" yMin="0" xMax="779" yMax="693">
      <component glyphName="X" x="0" y="0" flags="0x204"/>
    </TTGlyph>
    <TTGlyph name="D" xMin="75" yMin="-9" xMax="754" yMax="701">
      <contour>
        <pt x="257" y="125" on="1"/>
        <pt x="268" y="124" on="0"/>
        <pt x="291" y="123" on="0"/>
        <pt x="311" y="123" on="1"/>
        <pt x="376" y="123" on="0"/>
        <pt x="481" y="163" on="0"/>
        <pt x="554" y="238" on="0"/>
        <pt x="594" y="347" on="0"/>
        <pt x="594" y="415" on="1"/>
        <pt x="594" y="450" on="0"/>
        <pt x="576" y="507" on="0"/>
        <pt x="535" y="548" on="0"/>
        <pt x="470" y="570" on="0"/>
        <pt x="424" y="570" on="1"/>
        <pt x="394" y="570" on="0"/>
        <pt x="363" y="567" on="1"/>
      </contour>
      <contour>
        <pt x="754" y="423" on="1"/>
        <pt x="754" y="322" on="0"/>
        <pt x="688" y="162" on="0"/>
        <pt x="565" y="51" on="0"/>
        <pt x="389" y="-9" on="0"/>
        <pt x="278" y="-9" on="1"/>
        <pt x="236" y="-9" on="0"/>
        <pt x="126" y="1" on="0"/>
        <pt x="75" y="12" on="1"/>
        <pt x="236" y="681" on="1"/>
        <pt x="293" y="692" on="0"/>
        <pt x="398" y="701" on="0"/>
        <pt x="440" y="701" on="1"/>
        <pt x="514" y="701" on="0"/>
        <pt x="631" y="661" on="0"/>
        <pt x="712" y="587" on="0"/>
        <pt x="754" y="485" on="0"/>
      </contour>
    </TTGlyph>
    <TTGlyph name="Dcaron" xMin="75" yMin="-9" xMax="754" yMax="954">
      <component glyphName="D" x="0" y="0" flags="0x204"/>
      <component glyphName="caron" x="150" y="161" flags="0x4"/>
    </TTGlyph>
    <TTGlyph name="Dcroat" xMin="65" yMin="-9" xMax="754" yMax="701">
      <component glyphName="Eth" x="0" y="0" flags="0x204"/>
    </TTGlyph>
    <TTGlyph name="Delta" xMin="10" yMin="0" xMax="685" yMax="693">
      <component glyphName="uni0394" x="0" y="0" flags="0x204"/>
    </TTGlyph>
    <TTGlyph name="E" xMin="75" yMin="0" xMax="694" yMax="693">
      <contour>
        <pt x="75" y="0" on="1"/>
        <pt x="241" y="693" on="1"/>
        <pt x="694" y="693" on="1"/>
        <pt x="662" y="565" on="1"/>
        <pt x="365" y="565" on="1"/>
        <pt x="333" y="425" on="1"/>
        <pt x="595" y="425" on="1"/>
        <pt x="564" y="299" on="1"/>
        <pt x="302" y="299" on="1"/>
        <pt x="262" y="129" on="1"/>
        <pt x="582" y="129" on="1"/>
        <pt x="550" y="0" on="1"/>
      </contour>
    </TTGlyph>
    <TTGlyph name="Eacute" xMin="75" yMin="0" xMax="694" yMax="959">
      <component glyphName="E" x="0" y="0" flags="0x204"/>
      <component glyphName="acute" x="231" y="160" flags="0x4"/>
    </TTGlyph>
    <TTGlyph name="Ebreve" xMin="75" yMin="0" xMax="694" yMax="917">
      <component glyphName="E" x="0" y="0" flags="0x204"/>
      <component glyphName="breve" x="143" y="153" flags="0x4"/>
    </TTGlyph>
    <TTGlyph name="Ecaron" xMin="75" yMin="0" xMax="694" yMax="954">
      <component glyphName="E" x="0" y="0" flags="0x204"/>
      <component glyphName="caron" x="139" y="161" flags="0x4"/>
    </TTGlyph>
    <TTGlyph name="Ecircumflex" xMin="75" yMin="0" xMax="694" yMax="950">
      <component glyphName="E" x="0" y="0" flags="0x204"/>
      <component glyphName="circumflex" x="155" y="166" flags="0x4"/>
    </TTGlyph>
    <TTGlyph name="Edieresis" xMin="75" yMin="0" xMax="694" yMax="914">
      <component glyphName="E" x="0" y="0" flags="0x204"/>
      <component glyphName="dieresis" x="74" y="160" flags="0x4"/>
    </TTGlyph>
    <TTGlyph name="Edotaccent" xMin="75" yMin="0" xMax="694" yMax="916">
      <component glyphName="E" x="0" y="0" flags="0x204"/>
      <component glyphName="dotaccent" x="79" y="160" flags="0x4"/>
    </TTGlyph>
    <TTGlyph name="Egrave" xMin="75" yMin="0" xMax="694" yMax="959">
      <component glyphName="E" x="0" y="0" flags="0x204"/>
      <component glyphName="grave" x="188" y="160" flags="0x4"/>
    </TTGlyph>
    <TTGlyph name="Emacron" xMin="75" yMin="0" xMax="694" yMax="878">
      <component glyphName="E" x="0" y="0" flags="0x204"/>
      <component glyphName="macron" x="157" y="153" flags="0x4"/>
    </TTGlyph>
    <TTGlyph name="Emdash" xMin="68" yMin="284" xMax="1096" yMax="408">
      <component glyphName="emdash" x="8" y="47" flags="0x214"/>
    </TTGlyph>
    <TTGlyph name="Endash" xMin="68" yMin="284" xMax="596" yMax="408">
      <component glyphName="endash" x="8" y="47" flags="0x214"/>
    </TTGlyph>
    <TTGlyph name="Eng" xMin="75" yMin="-187" xMax="827" yMax="693">
      <contour>
        <pt x="522" y="57" on="1"/>
        <pt x="483" y="162" on="0"/>
        <pt x="390" y="368" on="0"/>
        <pt x="338" y="459" on="1"/>
        <pt x="228" y="0" on="1"/>
        <pt x="75" y="0" on="1"/>
        <pt x="241" y="693" on="1"/>
        <pt x="360" y="693" on="1"/>
        <pt x="388" y="646" on="0"/>
        <pt x="446" y="541" on="0"/>
        <pt x="501" y="433" on="0"/>
        <pt x="552" y="325" on="0"/>
        <pt x="573" y="276" on="1"/>
        <pt x="672" y="693" on="1"/>
        <pt x="827" y="693" on="1"/>
        <pt x="665" y="17" on="1"/>
        <pt x="642" y="-78" on="0"/>
        <pt x="540" y="-187" on="0"/>
        <pt x="453" y="-187" on="1"/>
        <pt x="430" y="-187" on="0"/>
        <pt x="379" y="-179" on="0"/>
        <pt x="350" y="-170" on="1"/>
        <pt x="397" y="-52" on="1"/>
        <pt x="421" y="-61" on="0"/>
        <pt x="439" y="-61" on="1"/>
        <pt x="475" y="-61" on="0"/>
        <pt x="509" y="2" on="0"/>
      </contour>
    </TTGlyph>
    <TTGlyph name="Eogonek" xMin="75" yMin="-221" xMax="694" yMax="693">
      <contour>
        <pt x="75" y="0" on="1"/>
        <pt x="241" y="693" on="1"/>
        <pt x="694" y="693" on="1"/>
        <pt x="662" y="565" on="1"/>
        <pt x="365" y="565" on="1"/>
        <pt x="333" y="425" on="1"/>
        <pt x="595" y="425" on="1"/>
        <pt x="564" y="299" on="1"/>
        <pt x="302" y="299" on="1"/>
        <pt x="262" y="129" on="1"/>
        <pt x="582" y="129" on="1"/>
        <pt x="550" y="0" on="1"/>
        <pt x="546" y="-3" on="1"/>
        <pt x="495" y="-38" on="0"/>
        <pt x="455" y="-84" on="0"/>
        <pt x="455" y="-97" on="1"/>
        <pt x="455" y="-113" on="0"/>
        <pt x="480" y="-113" on="1"/>
        <pt x="494" y="-113" on="0"/>
        <pt x="526" y="-104" on="0"/>
        <pt x="533" y="-102" on="1"/>
        <pt x="523" y="-201" on="1"/>
        <pt x="503" y="-210" on="0"/>
        <pt x="454" y="-221" on="0"/>
        <pt x="428" y="-221" on="1"/>
        <pt x="407" y="-221" on="0"/>
        <pt x="367" y="-212" on="0"/>
        <pt x="336" y="-192" on="0"/>
        <pt x="318" y="-160" on="0"/>
        <pt x="318" y="-136" on="1"/>
        <pt x="318" y="-106" on="0"/>
        <pt x="360" y="-42" on="0"/>
        <pt x="408" y="-13" on="1"/>
        <pt x="430" y="0" on="1"/>
      </contour>
    </TTGlyph>
    <TTGlyph name="Epsilon" xMin="75" yMin="0" xMax="694" yMax="693">
      <component glyphName="E" x="0" y="0" flags="0x204"/>
    </TTGlyph>
    <TTGlyph name="Epsilontonos" xMin="121" yMin="0" xMax="844" yMax="737">
      <component glyphName="E" x="150" y="0" flags="0x4"/>
      <component glyphName="tonos.cap" x="-109" y="0" flags="0x4"/>
    </TTGlyph>
    <TTGlyph name="Eta" xMin="75" yMin="0" xMax="799" yMax="693">
      <component glyphName="H" x="0" y="0" flags="0x204"/>
    </TTGlyph>
    <TTGlyph name="Etatonos" xMin="121" yMin="0" xMax="954" yMax="737">
      <component glyphName="H" x="155" y="0" flags="0x4"/>
      <component glyphName="tonos.cap" x="-109" y="0" flags="0x4"/>
    </TTGlyph>
    <TTGlyph name="Eth" xMin="65" yMin="-9" xMax="754" yMax="701">
      <contour>
        <pt x="257" y="125" on="1"/>
        <pt x="268" y="124" on="0"/>
        <pt x="291" y="123" on="0"/>
        <pt x="311" y="123" on="1"/>
        <pt x="376" y="123" on="0"/>
        <pt x="481" y="163" on="0"/>
        <pt x="554" y="238" on="0"/>
        <pt x="594" y="347" on="0"/>
        <pt x="594" y="415" on="1"/>
        <pt x="594" y="450" on="0"/>
        <pt x="576" y="507" on="0"/>
        <pt x="535" y="548" on="0"/>
        <pt x="470" y="570" on="0"/>
        <pt x="424" y="570" on="1"/>
        <pt x="394" y="570" on="0"/>
        <pt x="363" y="567" on="1"/>
        <pt x="327" y="417" on="1"/>
        <pt x="454" y="417" on="1"/>
        <pt x="427" y="302" on="1"/>
        <pt x="299" y="302" on="1"/>
      </contour>
      <contour>
        <pt x="754" y="423" on="1"/>
        <pt x="754" y="322" on="0"/>
        <pt x="688" y="162" on="0"/>
        <pt x="565" y="51" on="0"/>
        <pt x="389" y="-9" on="0"/>
        <pt x="278" y="-9" on="1"/>
        <pt x="236" y="-9" on="0"/>
        <pt x="126" y="1" on="0"/>
        <pt x="75" y="12" on="1"/>
        <pt x="145" y="302" on="1"/>
        <pt x="65" y="302" on="1"/>
        <pt x="91" y="417" on="1"/>
        <pt x="172" y="417" on="1"/>
        <pt x="236" y="681" on="1"/>
        <pt x="293" y="692" on="0"/>
        <pt x="398" y="701" on="0"/>
        <pt x="440" y="701" on="1"/>
        <pt x="514" y="701" on="0"/>
        <pt x="631" y="661" on="0"/>
        <pt x="712" y="587" on="0"/>
        <pt x="754" y="485" on="0"/>
      </contour>
    </TTGlyph>
    <TTGlyph name="Euro" xMin="85" yMin="-14" xMax="699" yMax="706">
      <contour>
        <pt x="314" y="218" on="1"/>
        <pt x="319" y="156" on="0"/>
        <pt x="381" y="110" on="0"/>
        <pt x="428" y="110" on="1"/>
        <pt x="458" y="110" on="0"/>
        <pt x="527" y="124" on="0"/>
        <pt x="562" y="135" on="1"/>
        <pt x="568" y="18" on="1"/>
        <pt x="526" y="3" on="0"/>
        <pt x="444" y="-14" on="0"/>
        <pt x="402" y="-14" on="1"/>
        <pt x="355" y="-14" on="0"/>
        <pt x="272" y="11" on="0"/>
        <pt x="208" y="66" on="0"/>
        <pt x="169" y="155" on="0"/>
        <pt x="167" y="218" on="1"/>
        <pt x="85" y="218" on="1"/>
        <pt x="108" y="317" on="1"/>
        <pt x="172" y="317" on="1"/>
        <pt x="174" y="334" on="0"/>
        <pt x="181" y="366" on="0"/>
        <pt x="185" y="382" on="1"/>
        <pt x="122" y="382" on="1"/>
        <pt x="146" y="481" on="1"/>
        <pt x="214" y="481" on="1"/>
        <pt x="236" y="532" on="0"/>
        <pt x="297" y="615" on="0"/>
        <pt x="381" y="674" on="0"/>
        <pt x="492" y="706" on="0"/>
        <pt x="564" y="706" on="1"/>
        <pt x="630" y="706" on="0"/>
        <pt x="699" y="683" on="1"/>
        <pt x="640" y="567" on="1"/>
        <pt x="590" y="584" on="0"/>
        <pt x="542" y="584" on="1"/>
        <pt x="472" y="584" on="0"/>
        <pt x="390" y="529" on="0"/>
        <pt x="364" y="481" on="1"/>
        <pt x="599" y="481" on="1"/>
        <pt x="556" y="382" on="1"/>
        <pt x="330" y="382" on="1"/>
        <pt x="323" y="350" on="0"/>
        <pt x="318" y="317" on="1"/>
        <pt x="528" y="317" on="1"/>
        <pt x="486" y="218" on="1"/>
      </contour>
    </TTGlyph>
    <TTGlyph name="Exclamdown" xMin="74" yMin="0" xMax="385" yMax="706">
      <component glyphName="exclamdown" x="42" y="175" flags="0x214"/>
    </TTGlyph>
    <TTGlyph name="F" xMin="75" yMin="0" xMax="690" yMax="693">
      <contour>
        <pt x="75" y="0" on="1"/>
        <pt x="241" y="693" on="1"/>
        <pt x="690" y="693" on="1"/>
        <pt x="658" y="564" on="1"/>
        <pt x="365" y="564" on="1"/>
        <pt x="330" y="416" on="1"/>
        <pt x="589" y="416" on="1"/>
        <pt x="558" y="287" on="1"/>
        <pt x="299" y="287" on="1"/>
        <pt x="230" y="0" on="1"/>
      </contour>
    </TTGlyph>
    <TTGlyph name="G" xMin="123" yMin="-13" xMax="748" yMax="709">
      <contour>
        <pt x="429" y="120" on="1"/>
        <pt x="449" y="120" on="0"/>
        <pt x="481" y="123" on="0"/>
        <pt x="494" y="125" on="1"/>
        <pt x="552" y="366" on="1"/>
        <pt x="708" y="366" on="1"/>
        <pt x="624" y="19" on="1"/>
        <pt x="596" y="8" on="0"/>
        <pt x="490" y="-13" on="0"/>
        <pt x="408" y="-13" on="1"/>
        <pt x="338" y="-13" on="0"/>
        <pt x="231" y="28" on="0"/>
        <pt x="159" y="104" on="0"/>
        <pt x="123" y="212" on="0"/>
        <pt x="123" y="280" on="1"/>
        <pt x="123" y="358" on="0"/>
        <pt x="178" y="512" on="0"/>
        <pt x="286" y="633" on="0"/>
        <pt x="446" y="709" on="0"/>
        <pt x="550" y="709" on="1"/>
        <pt x="598" y="709" on="0"/>
        <pt x="705" y="681" on="0"/>
        <pt x="748" y="653" on="1"/>
        <pt x="692" y="532" on="1"/>
        <pt x="657" y="554" on="0"/>
        <pt x="578" y="576" on="0"/>
        <pt x="540" y="576" on="1"/>
        <pt x="479" y="576" on="0"/>
        <pt x="384" y="530" on="0"/>
        <pt x="318" y="451" on="0"/>
        <pt x="284" y="347" on="0"/>
        <pt x="284" y="289" on="1"/>
        <pt x="284" y="201" on="0"/>
        <pt x="357" y="120" on="0"/>
      </contour>
    </TTGlyph>
    <TTGlyph name="Gamma" xMin="75" yMin="0" xMax="674" yMax="693">
      <component glyphName="afii10020" x="0" y="0" flags="0x204"/>
    </TTGlyph>
    <TTGlyph name="Gbreve" xMin="123" yMin="-13" xMax="748" yMax="917">
      <component glyphName="G" x="0" y="0" flags="0x204"/>
      <component glyphName="breve" x="190" y="153" flags="0x4"/>
    </TTGlyph>
    <TTGlyph name="Gcaron" xMin="123" yMin="-13" xMax="748" yMax="954">
      <component glyphName="G" x="0" y="0" flags="0x204"/>
      <component glyphName="caron" x="214" y="161" flags="0x4"/>
    </TTGlyph>
    <TTGlyph name="Gcircumflex" xMin="123" yMin="-13" xMax="748" yMax="950">
      <component glyphName="G" x="0" y="0" flags="0x204"/>
      <component glyphName="circumflex" x="196" y="166" flags="0x4"/>
    </TTGlyph>
    <TTGlyph name="Gcommaaccent" xMin="123" yMin="-215" xMax="748" yMax="709">
      <component glyphName="commaaccent" x="303" y="0" flags="0x4"/>
      <component glyphName="G" x="0" y="0" flags="0x204"/>
    </TTGlyph>
    <TTGlyph name="Gdotaccent" xMin="123" yMin="-13" xMax="748" yMax="916">
      <component glyphName="G" x="0" y="0" flags="0x204"/>
      <component glyphName="dotaccent" x="138" y="160" flags="0x4"/>
    </TTGlyph>
    <TTGlyph name="Guillemotleft" xMin="114" yMin="106" xMax="697" yMax="586">
      <component glyphName="guilsinglleft" x="14" y="62" flags="0x4"/>
      <component glyphName="guilsinglleft" x="284" y="62" flags="0x4"/>
    </TTGlyph>
    <TTGlyph name="Guillemotright" xMin="75" yMin="106" xMax="657" yMax="586">
      <component glyphName="guilsinglright" x="14" y="62" flags="0x4"/>
      <component glyphName="guilsinglright" x="283" y="62" flags="0x4"/>
    </TTGlyph>
    <TTGlyph name="Guilsinglleft" xMin="114" yMin="106" xMax="427" yMax="586">
      <component glyphName="guilsinglleft" x="14" y="62" flags="0x214"/>
    </TTGlyph>
    <TTGlyph name="Guilsinglright" xMin="75" yMin="106" xMax="388" yMax="586">
      <component glyphName="guilsinglright" x="14" y="62" flags="0x214"/>
    </TTGlyph>
    <TTGlyph name="H" xMin="75" yMin="0" xMax="799" yMax="693">
      <contour>
        <pt x="643" y="693" on="1"/>
        <pt x="799" y="693" on="1"/>
        <pt x="632" y="0" on="1"/>
        <pt x="476" y="0" on="1"/>
        <pt x="547" y="295" on="1"/>
        <pt x="301" y="295" on="1"/>
        <pt x="230" y="0" on="1"/>
        <pt x="75" y="0" on="1"/>
        <pt x="241" y="693" on="1"/>
        <pt x="397" y="693" on="1"/>
        <pt x="333" y="427" on="1"/>
        <pt x="579" y="427" on="1"/>
      </contour>
    </TTGlyph>
    <TTGlyph name="Hbar" xMin="75" yMin="0" xMax="857" yMax="693">
      <contour>
        <pt x="141" y="612" on="1"/>
        <pt x="221" y="612" on="1"/>
        <pt x="241" y="693" on="1"/>
        <pt x="397" y="693" on="1"/>
        <pt x="377" y="612" on="1"/>
        <pt x="623" y="612" on="1"/>
        <pt x="643" y="693" on="1"/>
        <pt x="799" y="693" on="1"/>
        <pt x="779" y="612" on="1"/>
        <pt x="857" y="612" on="1"/>
        <pt x="831" y="502" on="1"/>
        <pt x="753" y="502" on="1"/>
        <pt x="632" y="0" on="1"/>
        <pt x="476" y="0" on="1"/>
        <pt x="547" y="295" on="1"/>
        <pt x="301" y="295" on="1"/>
        <pt x="230" y="0" on="1"/>
        <pt x="75" y="0" on="1"/>
        <pt x="195" y="502" on="1"/>
        <pt x="115" y="502" on="1"/>
      </contour>
      <contour>
        <pt x="597" y="502" on="1"/>
        <pt x="351" y="502" on="1"/>
        <pt x="333" y="427" on="1"/>
        <pt x="579" y="427" on="1"/>
      </contour>
    </TTGlyph>
    <TTGlyph name="Hcircumflex" xMin="75" yMin="0" xMax="799" yMax="950">
      <component glyphName="H" x="0" y="0" flags="0x204"/>
      <component glyphName="circumflex" x="179" y="166" flags="0x4"/>
    </TTGlyph>
    <TTGlyph name="Hyphen" xMin="98" yMin="289" xMax="421" yMax="424">
      <component glyphName="hyphen" x="25" y="58" flags="0x214"/>
    </TTGlyph>
    <TTGlyph name="I" xMin="75" yMin="0" xMax="397" yMax="693">
      <contour>
        <pt x="241" y="693" on="1"/>
        <pt x="397" y="693" on="1"/>
        <pt x="230" y="0" on="1"/>
        <pt x="75" y="0" on="1"/>
      </contour>
    </TTGlyph>
    <TTGlyph name="IJ" xMin="75" yMin="-14" xMax="926" yMax="693">
      <component glyphName="I" x="0" y="0" flags="0x4"/>
      <component glyphName="J" x="325" y="0" flags="0x4"/>
    </TTGlyph>
    <TTGlyph name="Iacute" xMin="75" yMin="0" xMax="488" yMax="959">
      <component glyphName="I" x="0" y="0" flags="0x204"/>
      <component glyphName="acute" x="74" y="160" flags="0x4"/>
    </TTGlyph>
    <TTGlyph name="Ibreve" xMin="75" yMin="0" xMax="523" yMax="917">
      <component glyphName="I" x="0" y="0" flags="0x204"/>
      <component glyphName="breve" x="-1" y="153" flags="0x4"/>
    </TTGlyph>
    <TTGlyph name="Icircumflex" xMin="75" yMin="0" xMax="500" yMax="950">
      <component glyphName="I" x="0" y="0" flags="0x204"/>
      <component glyphName="circumflex" x="1" y="166" flags="0x4"/>
    </TTGlyph>
    <TTGlyph name="Idieresis" xMin="75" yMin="0" xMax="538" yMax="914">
      <component glyphName="I" x="0" y="0" flags="0x204"/>
      <component glyphName="dieresis" x="-64" y="160" flags="0x4"/>
    </TTGlyph>
    <TTGlyph name="Idotaccent" xMin="75" yMin="0" xMax="428" yMax="916">
      <component glyphName="I" x="0" y="0" flags="0x204"/>
      <component glyphName="dotaccent" x="-68" y="160" flags="0x4"/>
    </TTGlyph>
    <TTGlyph name="Igrave" xMin="75" yMin="0" xMax="397" yMax="959">
      <component glyphName="I" x="0" y="0" flags="0x204"/>
      <component glyphName="grave" x="16" y="160" flags="0x4"/>
    </TTGlyph>
    <TTGlyph name="Imacron" xMin="75" yMin="0" xMax="529" yMax="878">
      <component glyphName="I" x="0" y="0" flags="0x204"/>
      <component glyphName="macron" x="11" y="153" flags="0x4"/>
    </TTGlyph>
    <TTGlyph name="Iogonek" xMin="-3" yMin="-221" xMax="397" yMax="693">
      <contour>
        <pt x="241" y="693" on="1"/>
        <pt x="397" y="693" on="1"/>
        <pt x="230" y="0" on="1"/>
        <pt x="229" y="0" on="1"/>
        <pt x="215" y="-10" on="0"/>
        <pt x="181" y="-34" on="0"/>
        <pt x="153" y="-60" on="0"/>
        <pt x="134" y="-85" on="0"/>
        <pt x="134" y="-96" on="1"/>
        <pt x="134" y="-104" on="0"/>
        <pt x="145" y="-113" on="0"/>
        <pt x="159" y="-113" on="1"/>
        <pt x="168" y="-113" on="0"/>
        <pt x="194" y="-110" on="0"/>
        <pt x="212" y="-105" on="1"/>
        <pt x="200" y="-205" on="1"/>
        <pt x="179" y="-213" on="0"/>
        <pt x="120" y="-221" on="0"/>
        <pt x="97" y="-221" on="1"/>
        <pt x="49" y="-221" on="0"/>
        <pt x="-3" y="-178" on="0"/>
        <pt x="-3" y="-144" on="1"/>
        <pt x="-3" y="-123" on="0"/>
        <pt x="17" y="-83" on="0"/>
        <pt x="48" y="-47" on="0"/>
        <pt x="88" y="-14" on="0"/>
        <pt x="109" y="0" on="1"/>
        <pt x="75" y="0" on="1"/>
      </contour>
    </TTGlyph>
    <TTGlyph name="Iota" xMin="75" yMin="0" xMax="397" yMax="693">
      <component glyphName="I" x="0" y="0" flags="0x204"/>
    </TTGlyph>
    <TTGlyph name="Iotadieresis" xMin="75" yMin="0" xMax="534" yMax="914">
      <component glyphName="I" x="0" y="0" flags="0x204"/>
      <component glyphName="dieresis" x="-68" y="160" flags="0x4"/>
    </TTGlyph>
    <TTGlyph name="Iotatonos" xMin="121" yMin="0" xMax="547" yMax="737">
      <component glyphName="I" x="150" y="0" flags="0x4"/>
      <component glyphName="tonos.cap" x="-109" y="0" flags="0x4"/>
    </TTGlyph>
    <TTGlyph name="Itilde" xMin="75" yMin="0" xMax="536" yMax="918">
      <component glyphName="I" x="0" y="0" flags="0x204"/>
      <component glyphName="tilde" x="7" y="163" flags="0x4"/>
    </TTGlyph>
    <TTGlyph name="J" xMin="20" yMin="-14" xMax="601" yMax="693">
      <contour>
        <pt x="485" y="210" on="1"/>
        <pt x="473" y="159" on="0"/>
        <pt x="433" y="76" on="0"/>
        <pt x="369" y="17" on="0"/>
        <pt x="275" y="-14" on="0"/>
        <pt x="208" y="-14" on="1"/>
        <pt x="154" y="-14" on="0"/>
        <pt x="57" y="19" on="0"/>
        <pt x="20" y="47" on="1"/>
        <pt x="89" y="163" on="1"/>
        <pt x="113" y="146" on="0"/>
        <pt x="170" y="120" on="0"/>
        <pt x="209" y="120" on="1"/>
        <pt x="237" y="120" on="0"/>
        <pt x="278" y="133" on="0"/>
        <pt x="308" y="162" on="0"/>
        <pt x="329" y="208" on="0"/>
        <pt x="337" y="241" on="1"/>
        <pt x="445" y="693" on="1"/>
        <pt x="601" y="693" on="1"/>
      </contour>
    </TTGlyph>
    <TTGlyph name="Jcircumflex" xMin="20" yMin="-14" xMax="691" yMax="950">
      <component glyphName="J" x="0" y="0" flags="0x204"/>
      <component glyphName="circumflex" x="192" y="166" flags="0x4"/>
    </TTGlyph>
    <TTGlyph name="K" xMin="75" yMin="0" xMax="797" yMax="693">
      <contour>
        <pt x="483" y="0" on="1"/>
        <pt x="469" y="34" on="0"/>
        <pt x="430" y="112" on="0"/>
        <pt x="383" y="190" on="0"/>
        <pt x="329" y="262" on="0"/>
        <pt x="301" y="290" on="1"/>
        <pt x="230" y="0" on="1"/>
        <pt x="75" y="0" on="1"/>
        <pt x="241" y="693" on="1"/>
        <pt x="397" y="693" on="1"/>
        <pt x="336" y="443" on="1"/>
        <pt x="414" y="510" on="0"/>
        <pt x="552" y="633" on="0"/>
        <pt x="612" y="693" on="1"/>
        <pt x="797" y="693" on="1"/>
        <pt x="706" y="608" on="0"/>
        <pt x="527" y="441" on="0"/>
        <pt x="428" y="362" on="1"/>
        <pt x="491" y="293" on="0"/>
        <pt x="607" y="115" on="0"/>
        <pt x="653" y="0" on="1"/>
      </contour>
    </TTGlyph>
    <TTGlyph name="Kappa" xMin="75" yMin="0" xMax="797" yMax="693">
      <component glyphName="K" x="0" y="0" flags="0x204"/>
    </TTGlyph>
    <TTGlyph name="Kcommaaccent" xMin="75" yMin="-215" xMax="797" yMax="693">
      <component glyphName="commaaccent" x="247" y="0" flags="0x4"/>
      <component glyphName="K" x="0" y="0" flags="0x204"/>
    </TTGlyph>
    <TTGlyph name="L" xMin="75" yMin="0" xMax="569" yMax="693">
      <contour>
        <pt x="569" y="132" on="1"/>
        <pt x="537" y="0" on="1"/>
        <pt x="75" y="0" on="1"/>
        <pt x="241" y="693" on="1"/>
        <pt x="397" y="693" on="1"/>
        <pt x="262" y="132" on="1"/>
      </contour>
    </TTGlyph>
    <TTGlyph name="Lacute" xMin="75" yMin="0" xMax="569" yMax="959">
      <component glyphName="L" x="0" y="0" flags="0x204"/>
      <component glyphName="acute" x="83" y="160" flags="0x4"/>
    </TTGlyph>
    <TTGlyph name="Lambda" xMin="15" yMin="0" xMax="675" yMax="693">
      <contour>
        <pt x="15" y="0" on="1"/>
        <pt x="74" y="109" on="0"/>
        <pt x="178" y="291" on="0"/>
        <pt x="278" y="455" on="0"/>
        <pt x="380" y="610" on="0"/>
        <pt x="437" y="693" on="1"/>
        <pt x="575" y="693" on="1"/>
        <pt x="594" y="607" on="0"/>
        <pt x="623" y="443" on="0"/>
        <pt x="647" y="275" on="0"/>
        <pt x="666" y="99" on="0"/>
        <pt x="675" y="0" on="1"/>
        <pt x="518" y="0" on="1"/>
        <pt x="512" y="89" on="0"/>
        <pt x="500" y="229" on="0"/>
        <pt x="487" y="348" on="0"/>
        <pt x="473" y="453" on="0"/>
        <pt x="466" y="507" on="1"/>
        <pt x="431" y="456" on="0"/>
        <pt x="354" y="332" on="0"/>
        <pt x="277" y="198" on="0"/>
        <pt x="203" y="63" on="0"/>
        <pt x="170" y="0" on="1"/>
      </contour>
    </TTGlyph>
    <TTGlyph name="Lcaron" xMin="75" yMin="0" xMax="605" yMax="695">
      <component glyphName="L" x="0" y="0" flags="0x204"/>
      <component glyphName="caron.alt" x="250" y="-81" flags="0x4"/>
    </TTGlyph>
    <TTGlyph name="Lcommaaccent" xMin="75" yMin="-215" xMax="569" yMax="693">
      <component glyphName="commaaccent" x="231" y="0" flags="0x4"/>
      <component glyphName="L" x="0" y="0" flags="0x204"/>
    </TTGlyph>
    <TTGlyph name="Ldot" xMin="75" yMin="0" xMax="624" yMax="693">
      <component glyphName="L" x="0" y="0" flags="0x204"/>
      <component glyphName="period" x="382" y="324" flags="0x4"/>
    </TTGlyph>
    <TTGlyph name="Lslash" xMin="38" yMin="0" xMax="569" yMax="693">
      <contour>
        <pt x="569" y="132" on="1"/>
        <pt x="537" y="0" on="1"/>
        <pt x="75" y="0" on="1"/>
        <pt x="136" y="256" on="1"/>
        <pt x="62" y="223" on="1"/>
        <pt x="38" y="324" on="1"/>
        <pt x="166" y="382" on="1"/>
        <pt x="241" y="693" on="1"/>
        <pt x="397" y="693" on="1"/>
        <pt x="341" y="460" on="1"/>
        <pt x="473" y="520" on="1"/>
        <pt x="498" y="419" on="1"/>
        <pt x="311" y="335" on="1"/>
        <pt x="262" y="132" on="1"/>
      </contour>
    </TTGlyph>
    <TTGlyph name="M" xMin="55" yMin="0" xMax="918" yMax="693">
      <contour>
        <pt x="416" y="693" on="1"/>
        <pt x="422" y="666" on="0"/>
        <pt x="441" y="567" on="0"/>
        <pt x="462" y="448" on="0"/>
        <pt x="484" y="323" on="0"/>
        <pt x="493" y="271" on="1"/>
        <pt x="527" y="323" on="0"/>
        <pt x="607" y="443" on="0"/>
        <pt x="685" y="559" on="0"/>
        <pt x="755" y="660" on="0"/>
        <pt x="780" y="693" on="1"/>
        <pt x="918" y="693" on="1"/>
        <pt x="911" y="624" on="0"/>
        <pt x="888" y="452" on="0"/>
        <pt x="859" y="268" on="0"/>
        <pt x="827" y="82" on="0"/>
        <pt x="811" y="0" on="1"/>
        <pt x="659" y="0" on="1"/>
        <pt x="680" y="102" on="0"/>
        <pt x="727" y="339" on="0"/>
        <pt x="747" y="460" on="1"/>
        <pt x="721" y="419" on="0"/>
        <pt x="657" y="318" on="0"/>
        <pt x="593" y="215" on="0"/>
        <pt x="533" y="121" on="0"/>
        <pt x="511" y="88" on="1"/>
        <pt x="397" y="88" on="1"/>
        <pt x="392" y="118" on="0"/>
        <pt x="378" y="210" on="0"/>
        <pt x="361" y="313" on="0"/>
        <pt x="343" y="418" on="0"/>
        <pt x="335" y="460" on="1"/>
        <pt x="296" y="339" on="0"/>
        <pt x="233" y="102" on="0"/>
        <pt x="206" y="0" on="1"/>
        <pt x="55" y="0" on="1"/>
        <pt x="78" y="82" on="0"/>
        <pt x="133" y="268" on="0"/>
        <pt x="192" y="453" on="0"/>
        <pt x="250" y="625" on="0"/>
        <pt x="276" y="693" on="1"/>
      </contour>
    </TTGlyph>
    <TTGlyph name="Mu" xMin="55" yMin="0" xMax="918" yMax="693">
      <component glyphName="M" x="0" y="0" flags="0x204"/>
    </TTGlyph>
    <TTGlyph name="N" xMin="75" yMin="0" xMax="827" yMax="693">
      <contour>
        <pt x="543" y="0" on="1"/>
        <pt x="501" y="118" on="0"/>
        <pt x="398" y="354" on="0"/>
        <pt x="338" y="459" on="1"/>
        <pt x="228" y="0" on="1"/>
        <pt x="75" y="0" on="1"/>
        <pt x="241" y="693" on="1"/>
        <pt x="360" y="693" on="1"/>
        <pt x="383" y="658" on="0"/>
        <pt x="436" y="563" on="0"/>
        <pt x="492" y="453" on="0"/>
        <pt x="548" y="334" on="0"/>
        <pt x="573" y="276" on="1"/>
        <pt x="672" y="693" on="1"/>
        <pt x="827" y="693" on="1"/>
        <pt x="660" y="0" on="1"/>
      </contour>
    </TTGlyph>
    <TTGlyph name="Nacute" xMin="75" yMin="0" xMax="827" yMax="959">
      <component glyphName="N" x="0" y="0" flags="0x204"/>
      <component glyphName="acute" x="278" y="160" flags="0x4"/>
    </TTGlyph>
    <TTGlyph name="Ncaron" xMin="75" yMin="0" xMax="827" yMax="954">
      <component glyphName="N" x="0" y="0" flags="0x204"/>
      <component glyphName="caron" x="189" y="161" flags="0x4"/>
    </TTGlyph>
    <TTGlyph name="Ncommaaccent" xMin="75" yMin="-215" xMax="827" yMax="693">
      <component glyphName="commaaccent" x="276" y="0" flags="0x4"/>
      <component glyphName="N" x="0" y="0" flags="0x204"/>
    </TTGlyph>
    <TTGlyph name="Ntilde" xMin="75" yMin="0" xMax="827" yMax="918">
      <component glyphName="N" x="0" y="0" flags="0x204"/>
      <component glyphName="tilde" x="215" y="163" flags="0x4"/>
    </TTGlyph>
    <TTGlyph name="Nu" xMin="75" yMin="0" xMax="827" yMax="693">
      <component glyphName="N" x="0" y="0" flags="0x204"/>
    </TTGlyph>
    <TTGlyph name="O" xMin="123" yMin="-14" xMax="794" yMax="709">
      <contour>
        <pt x="500" y="575" on="1"/>
        <pt x="454" y="575" on="0"/>
        <pt x="375" y="527" on="0"/>
        <pt x="316" y="447" on="0"/>
        <pt x="283" y="343" on="0"/>
        <pt x="283" y="288" on="1"/>
        <pt x="283" y="213" on="0"/>
        <pt x="346" y="120" on="0"/>
        <pt x="417" y="120" on="1"/>
        <pt x="463" y="120" on="0"/>
        <pt x="542" y="168" on="0"/>
        <pt x="601" y="248" on="0"/>
        <pt x="634" y="351" on="0"/>
        <pt x="634" y="407" on="1"/>
        <pt x="634" y="482" on="0"/>
        <pt x="571" y="575" on="0"/>
      </contour>
      <contour>
        <pt x="401" y="-14" on="1"/>
        <pt x="340" y="-14" on="0"/>
        <pt x="238" y="26" on="0"/>
        <pt x="164" y="101" on="0"/>
        <pt x="123" y="209" on="0"/>
        <pt x="123" y="277" on="1"/>
        <pt x="123" y="355" on="0"/>
        <pt x="177" y="509" on="0"/>
        <pt x="278" y="632" on="0"/>
        <pt x="424" y="709" on="0"/>
        <pt x="516" y="709" on="1"/>
        <pt x="577" y="709" on="0"/>
        <pt x="679" y="669" on="0"/>
        <pt x="753" y="594" on="0"/>
        <pt x="794" y="486" on="0"/>
        <pt x="794" y="418" on="1"/>
        <pt x="794" y="340" on="0"/>
        <pt x="741" y="185" on="0"/>
        <pt x="640" y="62" on="0"/>
        <pt x="494" y="-14" on="0"/>
      </contour>
    </TTGlyph>
    <TTGlyph name="OE" xMin="123" yMin="-8" xMax="1085" yMax="700">
      <contour>
        <pt x="546" y="0" on="1"/>
        <pt x="520" y="-4" on="0"/>
        <pt x="465" y="-8" on="0"/>
        <pt x="437" y="-8" on="1"/>
        <pt x="378" y="-8" on="0"/>
        <pt x="266" y="17" on="0"/>
        <pt x="177" y="80" on="0"/>
        <pt x="123" y="189" on="0"/>
        <pt x="123" y="274" on="1"/>
        <pt x="123" y="376" on="0"/>
        <pt x="192" y="535" on="0"/>
        <pt x="316" y="644" on="0"/>
        <pt x="485" y="700" on="0"/>
        <pt x="586" y="700" on="1"/>
        <pt x="612" y="700" on="0"/>
        <pt x="675" y="697" on="0"/>
        <pt x="702" y="693" on="1"/>
        <pt x="1085" y="693" on="1"/>
        <pt x="1053" y="562" on="1"/>
        <pt x="768" y="562" on="1"/>
        <pt x="736" y="426" on="1"/>
        <pt x="986" y="426" on="1"/>
        <pt x="955" y="298" on="1"/>
        <pt x="705" y="298" on="1"/>
        <pt x="665" y="131" on="1"/>
        <pt x="973" y="131" on="1"/>
        <pt x="941" y="0" on="1"/>
      </contour>
      <contour>
        <pt x="558" y="570" on="1"/>
        <pt x="487" y="570" on="0"/>
        <pt x="383" y="517" on="0"/>
        <pt x="314" y="435" on="0"/>
        <pt x="281" y="333" on="0"/>
        <pt x="281" y="285" on="1"/>
        <pt x="281" y="252" on="0"/>
        <pt x="300" y="192" on="0"/>
        <pt x="340" y="147" on="0"/>
        <pt x="402" y="121" on="0"/>
        <pt x="445" y="121" on="1"/>
        <pt x="477" y="121" on="0"/>
        <pt x="513" y="127" on="1"/>
        <pt x="618" y="566" on="1"/>
        <pt x="602" y="568" on="0"/>
        <pt x="572" y="570" on="0"/>
      </contour>
    </TTGlyph>
    <TTGlyph name="Oacute" xMin="123" yMin="-14" xMax="794" yMax="959">
      <component glyphName="O" x="0" y="0" flags="0x204"/>
      <component glyphName="acute" x="238" y="160" flags="0x4"/>
    </TTGlyph>
    <TTGlyph name="Obreve" xMin="123" yMin="-14" xMax="794" yMax="917">
      <component glyphName="O" x="0" y="0" flags="0x204"/>
      <component glyphName="breve" x="183" y="153" flags="0x4"/>
    </TTGlyph>
    <TTGlyph name="Ocircumflex" xMin="123" yMin="-14" xMax="794" yMax="950">
      <component glyphName="O" x="0" y="0" flags="0x204"/>
      <component glyphName="circumflex" x="189" y="166" flags="0x4"/>
    </TTGlyph>
    <TTGlyph name="Odieresis" xMin="123" yMin="-14" xMax="794" yMax="914">
      <component glyphName="O" x="0" y="0" flags="0x204"/>
      <component glyphName="dieresis" x="128" y="160" flags="0x4"/>
    </TTGlyph>
    <TTGlyph name="Ograve" xMin="123" yMin="-14" xMax="794" yMax="959">
      <component glyphName="O" x="0" y="0" flags="0x204"/>
      <component glyphName="grave" x="284" y="160" flags="0x4"/>
    </TTGlyph>
    <TTGlyph name="Ohorn" xMin="123" yMin="-14" xMax="884" yMax="801">
      <contour>
        <pt x="401" y="-14" on="1"/>
        <pt x="340" y="-14" on="0"/>
        <pt x="238" y="26" on="0"/>
        <pt x="164" y="101" on="0"/>
        <pt x="123" y="209" on="0"/>
        <pt x="123" y="277" on="1"/>
        <pt x="123" y="355" on="0"/>
        <pt x="177" y="509" on="0"/>
        <pt x="278" y="632" on="0"/>
        <pt x="424" y="709" on="0"/>
        <pt x="516" y="709" on="1"/>
        <pt x="615" y="709" on="0"/>
        <pt x="686" y="658" on="1"/>
        <pt x="705" y="675" on="0"/>
        <pt x="727" y="711" on="0"/>
        <pt x="739" y="747" on="0"/>
        <pt x="744" y="784" on="0"/>
        <pt x="746" y="801" on="1"/>
        <pt x="884" y="801" on="1"/>
        <pt x="879" y="735" on="0"/>
        <pt x="817" y="622" on="0"/>
        <pt x="754" y="580" on="1"/>
        <pt x="794" y="512" on="0"/>
        <pt x="794" y="418" on="1"/>
        <pt x="794" y="340" on="0"/>
        <pt x="741" y="185" on="0"/>
        <pt x="640" y="62" on="0"/>
        <pt x="494" y="-14" on="0"/>
      </contour>
      <contour>
        <pt x="500" y="575" on="1"/>
        <pt x="454" y="575" on="0"/>
        <pt x="375" y="527" on="0"/>
        <pt x="316" y="447" on="0"/>
        <pt x="283" y="343" on="0"/>
        <pt x="283" y="288" on="1"/>
        <pt x="283" y="213" on="0"/>
        <pt x="346" y="120" on="0"/>
        <pt x="417" y="120" on="1"/>
        <pt x="463" y="120" on="0"/>
        <pt x="542" y="168" on="0"/>
        <pt x="601" y="248" on="0"/>
        <pt x="634" y="351" on="0"/>
        <pt x="634" y="407" on="1"/>
        <pt x="634" y="482" on="0"/>
        <pt x="571" y="575" on="0"/>
      </contour>
    </TTGlyph>
    <TTGlyph name="Ohungarumlaut" xMin="123" yMin="-14" xMax="794" yMax="961">
      <component glyphName="O" x="0" y="0" flags="0x204"/>
      <component glyphName="hungarumlaut" x="179" y="162" flags="0x4"/>
    </TTGlyph>
    <TTGlyph name="Omacron" xMin="123" yMin="-14" xMax="794" yMax="878">
      <component glyphName="O" x="0" y="0" flags="0x204"/>
      <component glyphName="macron" x="199" y="153" flags="0x4"/>
    </TTGlyph>
    <TTGlyph name="Omega" xMin="60" yMin="0" xMax="827" yMax="710">
      <contour>
        <pt x="773" y="124" on="1"/>
        <pt x="744" y="0" on="1"/>
        <pt x="446" y="0" on="1"/>
        <pt x="474" y="116" on="1"/>
        <pt x="514" y="138" on="0"/>
        <pt x="584" y="206" on="0"/>
        <pt x="637" y="289" on="0"/>
        <pt x="668" y="379" on="0"/>
        <pt x="668" y="423" on="1"/>
        <pt x="668" y="498" on="0"/>
        <pt x="587" y="576" on="0"/>
        <pt x="508" y="576" on="1"/>
        <pt x="467" y="576" on="0"/>
        <pt x="390" y="544" on="0"/>
        <pt x="332" y="479" on="0"/>
        <pt x="297" y="383" on="0"/>
        <pt x="297" y="320" on="1"/>
        <pt x="297" y="250" on="0"/>
        <pt x="340" y="150" on="0"/>
        <pt x="374" y="116" on="1"/>
        <pt x="346" y="0" on="1"/>
        <pt x="60" y="0" on="1"/>
        <pt x="89" y="124" on="1"/>
        <pt x="211" y="124" on="1"/>
        <pt x="177" y="173" on="0"/>
        <pt x="145" y="282" on="0"/>
        <pt x="145" y="336" on="1"/>
        <pt x="145" y="428" on="0"/>
        <pt x="210" y="568" on="0"/>
        <pt x="317" y="662" on="0"/>
        <pt x="455" y="710" on="0"/>
        <pt x="529" y="710" on="1"/>
        <pt x="589" y="710" on="0"/>
        <pt x="697" y="676" on="0"/>
        <pt x="779" y="608" on="0"/>
        <pt x="827" y="507" on="0"/>
        <pt x="827" y="440" on="1"/>
        <pt x="827" y="349" on="0"/>
        <pt x="736" y="184" on="0"/>
        <pt x="655" y="124" on="1"/>
      </contour>
    </TTGlyph>
    <TTGlyph name="Omegatonos" xMin="121" yMin="0" xMax="935" yMax="737">
      <component glyphName="Omega" x="108" y="0" flags="0x4"/>
      <component glyphName="tonos.cap" x="-109" y="0" flags="0x4"/>
    </TTGlyph>
    <TTGlyph name="Omicron" xMin="123" yMin="-14" xMax="794" yMax="709">
      <component glyphName="O" x="0" y="0" flags="0x204"/>
    </TTGlyph>
    <TTGlyph name="Omicrontonos" xMin="121" yMin="-14" xMax="928" yMax="737">
      <component glyphName="O" x="134" y="0" flags="0x4"/>
      <component glyphName="tonos.cap" x="-109" y="0" flags="0x4"/>
    </TTGlyph>
    <TTGlyph name="Oslash" xMin="101" yMin="-45" xMax="812" yMax="738">
      <contour>
        <pt x="401" y="-14" on="1"/>
        <pt x="309" y="-14" on="0"/>
        <pt x="243" y="28" on="1"/>
        <pt x="179" y="-45" on="1"/>
        <pt x="101" y="18" on="1"/>
        <pt x="172" y="99" on="1"/>
        <pt x="123" y="169" on="0"/>
        <pt x="123" y="277" on="1"/>
        <pt x="123" y="355" on="0"/>
        <pt x="177" y="509" on="0"/>
        <pt x="278" y="632" on="0"/>
        <pt x="424" y="709" on="0"/>
        <pt x="516" y="709" on="1"/>
        <pt x="606" y="709" on="0"/>
        <pt x="672" y="667" on="1"/>
        <pt x="734" y="738" on="1"/>
        <pt x="812" y="675" on="1"/>
        <pt x="744" y="597" on="1"/>
        <pt x="768" y="562" on="0"/>
        <pt x="794" y="472" on="0"/>
        <pt x="794" y="418" on="1"/>
        <pt x="794" y="340" on="0"/>
        <pt x="741" y="185" on="0"/>
        <pt x="640" y="62" on="0"/>
        <pt x="494" y="-14" on="0"/>
      </contour>
      <contour>
        <pt x="639" y="412" on="1"/>
        <pt x="639" y="444" on="0"/>
        <pt x="633" y="471" on="1"/>
        <pt x="336" y="135" on="1"/>
        <pt x="365" y="115" on="0"/>
        <pt x="411" y="115" on="1"/>
        <pt x="457" y="115" on="0"/>
        <pt x="540" y="166" on="0"/>
        <pt x="602" y="250" on="0"/>
        <pt x="639" y="356" on="0"/>
      </contour>
      <contour>
        <pt x="505" y="580" on="1"/>
        <pt x="458" y="580" on="0"/>
        <pt x="376" y="528" on="0"/>
        <pt x="314" y="444" on="0"/>
        <pt x="278" y="337" on="0"/>
        <pt x="278" y="282" on="1"/>
        <pt x="278" y="266" on="0"/>
        <pt x="280" y="238" on="0"/>
        <pt x="283" y="225" on="1"/>
        <pt x="578" y="560" on="1"/>
        <pt x="549" y="580" on="0"/>
      </contour>
    </TTGlyph>
    <TTGlyph name="Oslashacute" xMin="101" yMin="-45" xMax="812" yMax="959">
      <component glyphName="Oslash" x="0" y="0" flags="0x204"/>
      <component glyphName="acute" x="305" y="160" flags="0x4"/>
    </TTGlyph>
    <TTGlyph name="Otilde" xMin="123" yMin="-14" xMax="794" yMax="918">
      <component glyphName="O" x="0" y="0" flags="0x204"/>
      <component glyphName="tilde" x="194" y="163" flags="0x4"/>
    </TTGlyph>
    <TTGlyph name="P" xMin="75" yMin="0" xMax="704" yMax="701">
      <contour>
        <pt x="432" y="701" on="1"/>
        <pt x="495" y="701" on="0"/>
        <pt x="596" y="674" on="0"/>
        <pt x="666" y="623" on="0"/>
        <pt x="704" y="549" on="0"/>
        <pt x="704" y="503" on="1"/>
        <pt x="704" y="428" on="0"/>
        <pt x="646" y="324" on="0"/>
        <pt x="544" y="260" on="0"/>
        <pt x="406" y="232" on="0"/>
        <pt x="325" y="232" on="1"/>
        <pt x="286" y="232" on="1"/>
        <pt x="230" y="0" on="1"/>
        <pt x="75" y="0" on="1"/>
        <pt x="238" y="683" on="1"/>
        <pt x="292" y="693" on="0"/>
        <pt x="389" y="701" on="0"/>
      </contour>
      <contour>
        <pt x="419" y="570" on="1"/>
        <pt x="402" y="570" on="0"/>
        <pt x="378" y="568" on="0"/>
        <pt x="366" y="567" on="1"/>
        <pt x="318" y="363" on="1"/>
        <pt x="357" y="363" on="1"/>
        <pt x="399" y="363" on="0"/>
        <pt x="468" y="376" on="0"/>
        <pt x="517" y="406" on="0"/>
        <pt x="544" y="453" on="0"/>
        <pt x="544" y="487" on="1"/>
        <pt x="544" y="532" on="0"/>
        <pt x="479" y="570" on="0"/>
      </contour>
    </TTGlyph>
    <TTGlyph name="Parenleft" xMin="109" yMin="-138" xMax="512" yMax="830">
      <component glyphName="parenleft" x="11" y="47" flags="0x214"/>
    </TTGlyph>
    <TTGlyph name="Parenright" xMin="-13" yMin="-138" xMax="390" yMax="830">
      <component glyphName="parenright" x="11" y="46" flags="0x214"/>
    </TTGlyph>
    <TTGlyph name="Phi" xMin="115" yMin="0" xMax="885" yMax="738">
      <contour>
        <pt x="463" y="535" on="1"/>
        <pt x="418" y="530" on="0"/>
        <pt x="348" y="492" on="0"/>
        <pt x="299" y="438" on="0"/>
        <pt x="274" y="373" on="0"/>
        <pt x="274" y="341" on="1"/>
        <pt x="274" y="284" on="0"/>
        <pt x="328" y="215" on="0"/>
        <pt x="386" y="210" on="1"/>
      </contour>
      <contour>
        <pt x="355" y="86" on="1"/>
        <pt x="292" y="94" on="0"/>
        <pt x="201" y="139" on="0"/>
        <pt x="143" y="203" on="0"/>
        <pt x="115" y="279" on="0"/>
        <pt x="115" y="318" on="1"/>
        <pt x="115" y="377" on="0"/>
        <pt x="164" y="496" on="0"/>
        <pt x="260" y="592" on="0"/>
        <pt x="401" y="654" on="0"/>
        <pt x="493" y="656" on="1"/>
        <pt x="512" y="738" on="1"/>
        <pt x="664" y="738" on="1"/>
        <pt x="645" y="656" on="1"/>
        <pt x="708" y="648" on="0"/>
        <pt x="799" y="603" on="0"/>
        <pt x="857" y="540" on="0"/>
        <pt x="885" y="463" on="0"/>
        <pt x="885" y="424" on="1"/>
        <pt x="885" y="365" on="0"/>
        <pt x="836" y="246" on="0"/>
        <pt x="740" y="150" on="0"/>
        <pt x="599" y="88" on="0"/>
        <pt x="507" y="86" on="1"/>
        <pt x="487" y="0" on="1"/>
        <pt x="335" y="0" on="1"/>
      </contour>
      <contour>
        <pt x="537" y="207" on="1"/>
        <pt x="582" y="212" on="0"/>
        <pt x="652" y="250" on="0"/>
        <pt x="701" y="304" on="0"/>
        <pt x="726" y="369" on="0"/>
        <pt x="726" y="401" on="1"/>
        <pt x="726" y="458" on="0"/>
        <pt x="672" y="527" on="0"/>
        <pt x="614" y="532" on="1"/>
      </contour>
    </TTGlyph>
    <TTGlyph name="Pi" xMin="75" yMin="0" xMax="791" yMax="693">
      <contour>
        <pt x="791" y="693" on="1"/>
        <pt x="624" y="0" on="1"/>
        <pt x="468" y="0" on="1"/>
        <pt x="603" y="561" on="1"/>
        <pt x="365" y="561" on="1"/>
        <pt x="230" y="0" on="1"/>
        <pt x="75" y="0" on="1"/>
        <pt x="241" y="693" on="1"/>
      </contour>
    </TTGlyph>
    <TTGlyph name="Psi" xMin="150" yMin="0" xMax="914" yMax="693">
      <contour>
        <pt x="473" y="0" on="1"/>
        <pt x="326" y="0" on="1"/>
        <pt x="366" y="165" on="1"/>
        <pt x="261" y="176" on="0"/>
        <pt x="150" y="277" on="0"/>
        <pt x="150" y="371" on="1"/>
        <pt x="150" y="404" on="0"/>
        <pt x="161" y="453" on="1"/>
        <pt x="219" y="693" on="1"/>
        <pt x="370" y="693" on="1"/>
        <pt x="316" y="471" on="1"/>
        <pt x="301" y="411" on="0"/>
        <pt x="301" y="375" on="1"/>
        <pt x="301" y="334" on="0"/>
        <pt x="338" y="297" on="0"/>
        <pt x="394" y="291" on="1"/>
        <pt x="491" y="693" on="1"/>
        <pt x="642" y="693" on="1"/>
        <pt x="545" y="291" on="1"/>
        <pt x="579" y="294" on="0"/>
        <pt x="630" y="317" on="0"/>
        <pt x="669" y="361" on="0"/>
        <pt x="698" y="426" on="0"/>
        <pt x="709" y="471" on="1"/>
        <pt x="763" y="693" on="1"/>
        <pt x="914" y="693" on="1"/>
        <pt x="856" y="453" on="1"/>
        <pt x="840" y="387" on="0"/>
        <pt x="793" y="283" on="0"/>
        <pt x="715" y="210" on="0"/>
        <pt x="598" y="168" on="0"/>
        <pt x="513" y="165" on="1"/>
      </contour>
    </TTGlyph>
    <TTGlyph name="Q" xMin="123" yMin="-187" xMax="794" yMax="709">
      <contour>
        <pt x="610" y="-187" on="1"/>
        <pt x="531" y="-184" on="0"/>
        <pt x="425" y="-158" on="0"/>
        <pt x="360" y="-115" on="0"/>
        <pt x="332" y="-53" on="0"/>
        <pt x="332" y="-14" on="1"/>
        <pt x="332" y="-7" on="1"/>
        <pt x="236" y="13" on="0"/>
        <pt x="123" y="159" on="0"/>
        <pt x="123" y="277" on="1"/>
        <pt x="123" y="355" on="0"/>
        <pt x="177" y="509" on="0"/>
        <pt x="278" y="632" on="0"/>
        <pt x="424" y="709" on="0"/>
        <pt x="516" y="709" on="1"/>
        <pt x="577" y="709" on="0"/>
        <pt x="679" y="669" on="0"/>
        <pt x="753" y="594" on="0"/>
        <pt x="794" y="486" on="0"/>
        <pt x="794" y="418" on="1"/>
        <pt x="794" y="349" on="0"/>
        <pt x="752" y="210" on="0"/>
        <pt x="671" y="93" on="0"/>
        <pt x="554" y="9" on="0"/>
        <pt x="479" y="-6" on="1"/>
        <pt x="479" y="-9" on="1"/>
        <pt x="479" y="-31" on="0"/>
        <pt x="508" y="-57" on="0"/>
        <pt x="557" y="-71" on="0"/>
        <pt x="621" y="-77" on="0"/>
        <pt x="656" y="-79" on="1"/>
      </contour>
      <contour>
        <pt x="500" y="575" on="1"/>
        <pt x="454" y="575" on="0"/>
        <pt x="375" y="527" on="0"/>
        <pt x="316" y="447" on="0"/>
        <pt x="283" y="343" on="0"/>
        <pt x="283" y="288" on="1"/>
        <pt x="283" y="213" on="0"/>
        <pt x="346" y="120" on="0"/>
        <pt x="417" y="120" on="1"/>
        <pt x="463" y="120" on="0"/>
        <pt x="542" y="168" on="0"/>
        <pt x="601" y="248" on="0"/>
        <pt x="634" y="351" on="0"/>
        <pt x="634" y="407" on="1"/>
        <pt x="634" y="482" on="0"/>
        <pt x="571" y="575" on="0"/>
      </contour>
    </TTGlyph>
    <TTGlyph name="Questiondown" xMin="60" yMin="-16" xMax="487" yMax="706">
      <component glyphName="questiondown" x="20" y="180" flags="0x214"/>
    </TTGlyph>
    <TTGlyph name="R" xMin="75" yMin="0" xMax="701" yMax="701">
      <contour>
        <pt x="436" y="701" on="1"/>
        <pt x="503" y="701" on="0"/>
        <pt x="603" y="669" on="0"/>
        <pt x="669" y="615" on="0"/>
        <pt x="701" y="542" on="0"/>
        <pt x="701" y="502" on="1"/>
        <pt x="701" y="469" on="0"/>
        <pt x="686" y="405" on="0"/>
        <pt x="645" y="347" on="0"/>
        <pt x="576" y="298" on="0"/>
        <pt x="522" y="281" on="1"/>
        <pt x="550" y="229" on="0"/>
        <pt x="609" y="81" on="0"/>
        <pt x="635" y="0" on="1"/>
        <pt x="468" y="0" on="1"/>
        <pt x="445" y="69" on="0"/>
        <pt x="398" y="204" on="0"/>
        <pt x="369" y="253" on="1"/>
        <pt x="291" y="253" on="1"/>
        <pt x="230" y="0" on="1"/>
        <pt x="75" y="0" on="1"/>
        <pt x="238" y="683" on="1"/>
        <pt x="292" y="693" on="0"/>
        <pt x="394" y="701" on="0"/>
      </contour>
      <contour>
        <pt x="431" y="569" on="1"/>
        <pt x="414" y="569" on="0"/>
        <pt x="378" y="567" on="0"/>
        <pt x="366" y="566" on="1"/>
        <pt x="321" y="376" on="1"/>
        <pt x="374" y="376" on="1"/>
        <pt x="422" y="376" on="0"/>
        <pt x="488" y="394" on="0"/>
        <pt x="528" y="424" on="0"/>
        <pt x="545" y="463" on="0"/>
        <pt x="545" y="483" on="1"/>
        <pt x="545" y="500" on="0"/>
        <pt x="535" y="531" on="0"/>
        <pt x="509" y="555" on="0"/>
        <pt x="465" y="569" on="0"/>
      </contour>
    </TTGlyph>
    <TTGlyph name="Racute" xMin="75" yMin="0" xMax="701" yMax="959">
      <component glyphName="R" x="0" y="0" flags="0x204"/>
      <component glyphName="acute" x="199" y="160" flags="0x4"/>
    </TTGlyph>
    <TTGlyph name="Rcaron" xMin="75" yMin="0" xMax="701" yMax="954">
      <component glyphName="R" x="0" y="0" flags="0x204"/>
      <component glyphName="caron" x="128" y="161" flags="0x4"/>
    </TTGlyph>
    <TTGlyph name="Rcommaaccent" xMin="75" yMin="-215" xMax="701" yMax="701">
      <component glyphName="R" x="0" y="0" flags="0x204"/>
      <component glyphName="commaaccent" x="233" y="0" flags="0x4"/>
    </TTGlyph>
    <TTGlyph name="Rho" xMin="75" yMin="0" xMax="704" yMax="701">
      <component glyphName="P" x="0" y="0" flags="0x204"/>
    </TTGlyph>
    <TTGlyph name="S" xMin="40" yMin="-14" xMax="629" yMax="709">
      <contour>
        <pt x="269" y="116" on="1"/>
        <pt x="292" y="116" on="0"/>
        <pt x="338" y="123" on="0"/>
        <pt x="374" y="141" on="0"/>
        <pt x="397" y="174" on="0"/>
        <pt x="397" y="200" on="1"/>
        <pt x="397" y="220" on="0"/>
        <pt x="375" y="249" on="0"/>
        <pt x="341" y="273" on="0"/>
        <pt x="299" y="293" on="0"/>
        <pt x="278" y="305" on="1"/>
        <pt x="251" y="321" on="0"/>
        <pt x="203" y="357" on="0"/>
        <pt x="169" y="402" on="0"/>
        <pt x="149" y="457" on="0"/>
        <pt x="149" y="493" on="1"/>
        <pt x="149" y="539" on="0"/>
        <pt x="184" y="618" on="0"/>
        <pt x="253" y="676" on="0"/>
        <pt x="357" y="709" on="0"/>
        <pt x="427" y="709" on="1"/>
        <pt x="459" y="709" on="0"/>
        <pt x="519" y="698" on="0"/>
        <pt x="571" y="682" on="0"/>
        <pt x="614" y="661" on="0"/>
        <pt x="629" y="651" on="1"/>
        <pt x="564" y="536" on="1"/>
        <pt x="539" y="555" on="0"/>
        <pt x="467" y="581" on="0"/>
        <pt x="425" y="581" on="1"/>
        <pt x="402" y="581" on="0"/>
        <pt x="360" y="573" on="0"/>
        <pt x="328" y="554" on="0"/>
        <pt x="309" y="524" on="0"/>
        <pt x="309" y="502" on="1"/>
        <pt x="309" y="482" on="0"/>
        <pt x="324" y="455" on="0"/>
        <pt x="348" y="435" on="0"/>
        <pt x="380" y="419" on="0"/>
        <pt x="398" y="410" on="1"/>
        <pt x="429" y="394" on="0"/>
        <pt x="487" y="358" on="0"/>
        <pt x="531" y="311" on="0"/>
        <pt x="557" y="251" on="0"/>
        <pt x="557" y="210" on="1"/>
        <pt x="557" y="153" on="0"/>
        <pt x="515" y="69" on="0"/>
        <pt x="439" y="13" on="0"/>
        <pt x="334" y="-14" on="0"/>
        <pt x="270" y="-14" on="1"/>
        <pt x="228" y="-14" on="0"/>
        <pt x="155" y="0" on="0"/>
        <pt x="96" y="19" on="0"/>
        <pt x="53" y="41" on="0"/>
        <pt x="40" y="50" on="1"/>
        <pt x="106" y="169" on="1"/>
        <pt x="118" y="161" on="0"/>
        <pt x="152" y="143" on="0"/>
        <pt x="195" y="127" on="0"/>
        <pt x="243" y="116" on="0"/>
      </contour>
    </TTGlyph>
    <TTGlyph name="Sacute" xMin="40" yMin="-14" xMax="629" yMax="959">
      <component glyphName="S" x="0" y="0" flags="0x204"/>
      <component glyphName="acute" x="155" y="160" flags="0x4"/>
    </TTGlyph>
    <TTGlyph name="Scaron" xMin="40" yMin="-14" xMax="629" yMax="954">
      <component glyphName="S" x="0" y="0" flags="0x204"/>
      <component glyphName="caron" x="98" y="161" flags="0x4"/>
    </TTGlyph>
    <TTGlyph name="Scedilla" xMin="40" yMin="-221" xMax="629" yMax="709">
      <contour>
        <pt x="269" y="116" on="1"/>
        <pt x="292" y="116" on="0"/>
        <pt x="338" y="123" on="0"/>
        <pt x="374" y="141" on="0"/>
        <pt x="397" y="174" on="0"/>
        <pt x="397" y="200" on="1"/>
        <pt x="397" y="220" on="0"/>
        <pt x="375" y="249" on="0"/>
        <pt x="341" y="273" on="0"/>
        <pt x="299" y="293" on="0"/>
        <pt x="278" y="305" on="1"/>
        <pt x="251" y="321" on="0"/>
        <pt x="203" y="357" on="0"/>
        <pt x="169" y="402" on="0"/>
        <pt x="149" y="457" on="0"/>
        <pt x="149" y="493" on="1"/>
        <pt x="149" y="539" on="0"/>
        <pt x="184" y="618" on="0"/>
        <pt x="253" y="676" on="0"/>
        <pt x="357" y="709" on="0"/>
        <pt x="427" y="709" on="1"/>
        <pt x="459" y="709" on="0"/>
        <pt x="519" y="698" on="0"/>
        <pt x="571" y="682" on="0"/>
        <pt x="614" y="661" on="0"/>
        <pt x="629" y="651" on="1"/>
        <pt x="564" y="536" on="1"/>
        <pt x="539" y="555" on="0"/>
        <pt x="467" y="581" on="0"/>
        <pt x="425" y="581" on="1"/>
        <pt x="402" y="581" on="0"/>
        <pt x="360" y="573" on="0"/>
        <pt x="328" y="554" on="0"/>
        <pt x="309" y="524" on="0"/>
        <pt x="309" y="502" on="1"/>
        <pt x="309" y="482" on="0"/>
        <pt x="324" y="455" on="0"/>
        <pt x="348" y="435" on="0"/>
        <pt x="380" y="419" on="0"/>
        <pt x="398" y="410" on="1"/>
        <pt x="429" y="394" on="0"/>
        <pt x="487" y="358" on="0"/>
        <pt x="531" y="311" on="0"/>
        <pt x="557" y="251" on="0"/>
        <pt x="557" y="210" on="1"/>
        <pt x="557" y="155" on="0"/>
        <pt x="518" y="73" on="0"/>
        <pt x="448" y="18" on="0"/>
        <pt x="350" y="-11" on="0"/>
        <pt x="291" y="-13" on="1"/>
        <pt x="271" y="-44" on="1"/>
        <pt x="293" y="-55" on="0"/>
        <pt x="315" y="-91" on="0"/>
        <pt x="315" y="-111" on="1"/>
        <pt x="315" y="-140" on="0"/>
        <pt x="292" y="-182" on="0"/>
        <pt x="253" y="-209" on="0"/>
        <pt x="203" y="-221" on="0"/>
        <pt x="177" y="-221" on="1"/>
        <pt x="150" y="-221" on="0"/>
        <pt x="97" y="-209" on="0"/>
        <pt x="76" y="-198" on="1"/>
        <pt x="112" y="-116" on="1"/>
        <pt x="125" y="-122" on="0"/>
        <pt x="158" y="-130" on="0"/>
        <pt x="173" y="-130" on="1"/>
        <pt x="213" y="-130" on="0"/>
        <pt x="213" y="-106" on="1"/>
        <pt x="213" y="-95" on="0"/>
        <pt x="199" y="-81" on="0"/>
        <pt x="183" y="-74" on="1"/>
        <pt x="163" y="-65" on="1"/>
        <pt x="170" y="-54" on="0"/>
        <pt x="191" y="-23" on="0"/>
        <pt x="201" y="-9" on="1"/>
        <pt x="143" y="0" on="0"/>
        <pt x="60" y="36" on="0"/>
        <pt x="40" y="50" on="1"/>
        <pt x="106" y="169" on="1"/>
        <pt x="118" y="161" on="0"/>
        <pt x="152" y="143" on="0"/>
        <pt x="195" y="127" on="0"/>
        <pt x="243" y="116" on="0"/>
      </contour>
    </TTGlyph>
    <TTGlyph name="Scircumflex" xMin="40" yMin="-14" xMax="629" yMax="950">
      <component glyphName="S" x="0" y="0" flags="0x204"/>
      <component glyphName="circumflex" x="105" y="166" flags="0x4"/>
    </TTGlyph>
    <TTGlyph name="Scommaaccent" xMin="40" yMin="-215" xMax="629" yMax="709">
      <component glyphName="S" x="0" y="0" flags="0x204"/>
      <component glyphName="commaaccent" x="160" y="0" flags="0x4"/>
    </TTGlyph>
    <TTGlyph name="Sigma" xMin="30" yMin="0" xMax="700" yMax="693">
      <contour>
        <pt x="316" y="358" on="1"/>
        <pt x="282" y="417" on="0"/>
        <pt x="222" y="527" on="0"/>
        <pt x="186" y="592" on="1"/>
        <pt x="211" y="693" on="1"/>
        <pt x="700" y="693" on="1"/>
        <pt x="668" y="562" on="1"/>
        <pt x="365" y="562" on="1"/>
        <pt x="380" y="535" on="0"/>
        <pt x="412" y="477" on="0"/>
        <pt x="445" y="417" on="0"/>
        <pt x="479" y="359" on="0"/>
        <pt x="494" y="334" on="1"/>
        <pt x="474" y="317" on="0"/>
        <pt x="413" y="265" on="0"/>
        <pt x="347" y="208" on="0"/>
        <pt x="284" y="152" on="0"/>
        <pt x="262" y="131" on="1"/>
        <pt x="565" y="131" on="1"/>
        <pt x="533" y="0" on="1"/>
        <pt x="30" y="0" on="1"/>
        <pt x="56" y="108" on="1"/>
        <pt x="122" y="174" on="0"/>
        <pt x="250" y="298" on="0"/>
      </contour>
    </TTGlyph>
    <TTGlyph name="Slash" xMin="-69" yMin="-138" xMax="642" yMax="830">
      <component glyphName="slash" x="21" y="47" flags="0x214"/>
    </TTGlyph>
    <TTGlyph name="T" xMin="145" yMin="0" xMax="739" yMax="693">
      <contour>
        <pt x="739" y="693" on="1"/>
        <pt x="707" y="562" on="1"/>
        <pt x="504" y="562" on="1"/>
        <pt x="369" y="0" on="1"/>
        <pt x="213" y="0" on="1"/>
        <pt x="348" y="562" on="1"/>
        <pt x="145" y="562" on="1"/>
        <pt x="177" y="693" on="1"/>
      </contour>
    </TTGlyph>
    <TTGlyph name="Tau" xMin="145" yMin="0" xMax="739" yMax="693">
      <component glyphName="T" x="0" y="0" flags="0x204"/>
    </TTGlyph>
    <TTGlyph name="Tbar" xMin="137" yMin="0" xMax="739" yMax="693">
      <contour>
        <pt x="739" y="693" on="1"/>
        <pt x="707" y="562" on="1"/>
        <pt x="504" y="562" on="1"/>
        <pt x="459" y="377" on="1"/>
        <pt x="602" y="377" on="1"/>
        <pt x="575" y="267" on="1"/>
        <pt x="433" y="267" on="1"/>
        <pt x="369" y="0" on="1"/>
        <pt x="213" y="0" on="1"/>
        <pt x="277" y="267" on="1"/>
        <pt x="137" y="267" on="1"/>
        <pt x="164" y="377" on="1"/>
        <pt x="303" y="377" on="1"/>
        <pt x="348" y="562" on="1"/>
        <pt x="145" y="562" on="1"/>
        <pt x="177" y="693" on="1"/>
      </contour>
    </TTGlyph>
    <TTGlyph name="Tcaron" xMin="145" yMin="0" xMax="739" yMax="954">
      <component glyphName="T" x="0" y="0" flags="0x204"/>
      <component glyphName="caron" x="124" y="161" flags="0x4"/>
    </TTGlyph>
    <TTGlyph name="Theta" xMin="123" yMin="-14" xMax="794" yMax="709">
      <contour>
        <pt x="363" y="410" on="1"/>
        <pt x="586" y="410" on="1"/>
        <pt x="557" y="286" on="1"/>
        <pt x="334" y="286" on="1"/>
      </contour>
      <contour>
        <pt x="500" y="575" on="1"/>
        <pt x="454" y="575" on="0"/>
        <pt x="375" y="527" on="0"/>
        <pt x="316" y="447" on="0"/>
        <pt x="283" y="343" on="0"/>
        <pt x="283" y="288" on="1"/>
        <pt x="283" y="213" on="0"/>
        <pt x="346" y="120" on="0"/>
        <pt x="417" y="120" on="1"/>
        <pt x="463" y="120" on="0"/>
        <pt x="542" y="168" on="0"/>
        <pt x="601" y="248" on="0"/>
        <pt x="634" y="351" on="0"/>
        <pt x="634" y="407" on="1"/>
        <pt x="634" y="482" on="0"/>
        <pt x="571" y="575" on="0"/>
      </contour>
      <contour>
        <pt x="401" y="-14" on="1"/>
        <pt x="340" y="-14" on="0"/>
        <pt x="238" y="26" on="0"/>
        <pt x="164" y="101" on="0"/>
        <pt x="123" y="209" on="0"/>
        <pt x="123" y="277" on="1"/>
        <pt x="123" y="355" on="0"/>
        <pt x="177" y="509" on="0"/>
        <pt x="278" y="632" on="0"/>
        <pt x="424" y="709" on="0"/>
        <pt x="516" y="709" on="1"/>
        <pt x="577" y="709" on="0"/>
        <pt x="679" y="669" on="0"/>
        <pt x="753" y="594" on="0"/>
        <pt x="794" y="486" on="0"/>
        <pt x="794" y="418" on="1"/>
        <pt x="794" y="340" on="0"/>
        <pt x="741" y="185" on="0"/>
        <pt x="640" y="62" on="0"/>
        <pt x="494" y="-14" on="0"/>
      </contour>
    </TTGlyph>
    <TTGlyph name="Thorn" xMin="74" yMin="0" xMax="693" yMax="693">
      <contour>
        <pt x="453" y="596" on="1"/>
        <pt x="516" y="596" on="0"/>
        <pt x="606" y="564" on="0"/>
        <pt x="665" y="510" on="0"/>
        <pt x="693" y="440" on="0"/>
        <pt x="693" y="402" on="1"/>
        <pt x="693" y="356" on="0"/>
        <pt x="654" y="259" on="0"/>
        <pt x="567" y="179" on="0"/>
        <pt x="428" y="128" on="0"/>
        <pt x="329" y="128" on="1"/>
        <pt x="260" y="128" on="1"/>
        <pt x="229" y="0" on="1"/>
        <pt x="74" y="0" on="1"/>
        <pt x="240" y="693" on="1"/>
        <pt x="396" y="693" on="1"/>
        <pt x="372" y="593" on="1"/>
        <pt x="379" y="594" on="0"/>
        <pt x="402" y="595" on="0"/>
        <pt x="426" y="596" on="0"/>
        <pt x="447" y="596" on="0"/>
      </contour>
      <contour>
        <pt x="403" y="464" on="1"/>
        <pt x="386" y="464" on="0"/>
        <pt x="352" y="462" on="0"/>
        <pt x="340" y="461" on="1"/>
        <pt x="292" y="261" on="1"/>
        <pt x="341" y="261" on="1"/>
        <pt x="383" y="261" on="0"/>
        <pt x="453" y="274" on="0"/>
        <pt x="504" y="304" on="0"/>
        <pt x="532" y="354" on="0"/>
        <pt x="532" y="392" on="1"/>
        <pt x="532" y="433" on="0"/>
        <pt x="462" y="464" on="0"/>
      </contour>
    </TTGlyph>
    <TTGlyph name="U" xMin="120" yMin="-14" xMax="773" yMax="693">
      <contour>
        <pt x="668" y="252" on="1"/>
        <pt x="634" y="111" on="0"/>
        <pt x="481" y="-14" on="0"/>
        <pt x="355" y="-14" on="1"/>
        <pt x="290" y="-14" on="0"/>
        <pt x="201" y="17" on="0"/>
        <pt x="145" y="72" on="0"/>
        <pt x="120" y="149" on="0"/>
        <pt x="120" y="194" on="1"/>
        <pt x="120" y="246" on="0"/>
        <pt x="135" y="305" on="1"/>
        <pt x="228" y="693" on="1"/>
        <pt x="384" y="693" on="1"/>
        <pt x="286" y="283" on="1"/>
        <pt x="276" y="247" on="0"/>
        <pt x="276" y="210" on="1"/>
        <pt x="276" y="190" on="0"/>
        <pt x="285" y="158" on="0"/>
        <pt x="308" y="134" on="0"/>
        <pt x="347" y="121" on="0"/>
        <pt x="376" y="121" on="1"/>
        <pt x="436" y="121" on="0"/>
        <pt x="498" y="196" on="0"/>
        <pt x="515" y="265" on="1"/>
        <pt x="617" y="693" on="1"/>
        <pt x="773" y="693" on="1"/>
      </contour>
    </TTGlyph>
    <TTGlyph name="Uacute" xMin="120" yMin="-14" xMax="773" yMax="959">
      <component glyphName="U" x="0" y="0" flags="0x204"/>
      <component glyphName="acute" x="227" y="160" flags="0x4"/>
    </TTGlyph>
    <TTGlyph name="Ubreve" xMin="120" yMin="-14" xMax="773" yMax="917">
      <component glyphName="U" x="0" y="0" flags="0x204"/>
      <component glyphName="breve" x="167" y="153" flags="0x4"/>
    </TTGlyph>
    <TTGlyph name="Ucircumflex" xMin="120" yMin="-14" xMax="773" yMax="950">
      <component glyphName="U" x="0" y="0" flags="0x204"/>
      <component glyphName="circumflex" x="172" y="166" flags="0x4"/>
    </TTGlyph>
    <TTGlyph name="Udieresis" xMin="120" yMin="-14" xMax="773" yMax="914">
      <component glyphName="U" x="0" y="0" flags="0x204"/>
      <component glyphName="dieresis" x="104" y="160" flags="0x4"/>
    </TTGlyph>
    <TTGlyph name="Ugrave" xMin="120" yMin="-14" xMax="773" yMax="959">
      <component glyphName="U" x="0" y="0" flags="0x204"/>
      <component glyphName="grave" x="197" y="160" flags="0x4"/>
    </TTGlyph>
    <TTGlyph name="Uhorn" xMin="120" yMin="-14" xMax="926" yMax="801">
      <contour>
        <pt x="668" y="252" on="1"/>
        <pt x="634" y="111" on="0"/>
        <pt x="481" y="-14" on="0"/>
        <pt x="355" y="-14" on="1"/>
        <pt x="290" y="-14" on="0"/>
        <pt x="201" y="17" on="0"/>
        <pt x="145" y="72" on="0"/>
        <pt x="120" y="149" on="0"/>
        <pt x="120" y="194" on="1"/>
        <pt x="120" y="246" on="0"/>
        <pt x="135" y="305" on="1"/>
        <pt x="228" y="693" on="1"/>
        <pt x="384" y="693" on="1"/>
        <pt x="286" y="283" on="1"/>
        <pt x="281" y="264" on="0"/>
        <pt x="276" y="227" on="0"/>
        <pt x="276" y="210" on="1"/>
        <pt x="276" y="191" on="0"/>
        <pt x="285" y="158" on="0"/>
        <pt x="308" y="134" on="0"/>
        <pt x="347" y="121" on="0"/>
        <pt x="376" y="121" on="1"/>
        <pt x="436" y="121" on="0"/>
        <pt x="498" y="196" on="0"/>
        <pt x="515" y="265" on="1"/>
        <pt x="617" y="693" on="1"/>
        <pt x="685" y="693" on="1"/>
        <pt x="742" y="693" on="0"/>
        <pt x="790" y="747" on="0"/>
        <pt x="792" y="801" on="1"/>
        <pt x="926" y="801" on="1"/>
        <pt x="922" y="765" on="0"/>
        <pt x="902" y="694" on="0"/>
        <pt x="863" y="638" on="0"/>
        <pt x="799" y="600" on="0"/>
        <pt x="750" y="597" on="1"/>
      </contour>
    </TTGlyph>
    <TTGlyph name="Uhungarumlaut" xMin="120" yMin="-14" xMax="773" yMax="961">
      <component glyphName="U" x="0" y="0" flags="0x204"/>
      <component glyphName="hungarumlaut" x="168" y="162" flags="0x4"/>
    </TTGlyph>
    <TTGlyph name="Umacron" xMin="120" yMin="-14" xMax="773" yMax="878">
      <component glyphName="U" x="0" y="0" flags="0x204"/>
      <component glyphName="macron" x="179" y="153" flags="0x4"/>
    </TTGlyph>
    <TTGlyph name="Uogonek" xMin="121" yMin="-221" xMax="774" yMax="693">
      <contour>
        <pt x="669" y="252" on="1"/>
        <pt x="640" y="128" on="0"/>
        <pt x="517" y="4" on="0"/>
        <pt x="417" y="-10" on="1"/>
        <pt x="372" y="-42" on="0"/>
        <pt x="337" y="-85" on="0"/>
        <pt x="337" y="-97" on="1"/>
        <pt x="337" y="-113" on="0"/>
        <pt x="362" y="-113" on="1"/>
        <pt x="376" y="-113" on="0"/>
        <pt x="408" y="-104" on="0"/>
        <pt x="415" y="-102" on="1"/>
        <pt x="405" y="-201" on="1"/>
        <pt x="385" y="-210" on="0"/>
        <pt x="336" y="-221" on="0"/>
        <pt x="310" y="-221" on="1"/>
        <pt x="289" y="-221" on="0"/>
        <pt x="249" y="-212" on="0"/>
        <pt x="218" y="-192" on="0"/>
        <pt x="200" y="-160" on="0"/>
        <pt x="200" y="-136" on="1"/>
        <pt x="200" y="-106" on="0"/>
        <pt x="241" y="-42" on="0"/>
        <pt x="295" y="-10" on="1"/>
        <pt x="248" y="-3" on="0"/>
        <pt x="182" y="33" on="0"/>
        <pt x="140" y="86" on="0"/>
        <pt x="121" y="154" on="0"/>
        <pt x="121" y="194" on="1"/>
        <pt x="121" y="246" on="0"/>
        <pt x="136" y="305" on="1"/>
        <pt x="229" y="693" on="1"/>
        <pt x="385" y="693" on="1"/>
        <pt x="287" y="283" on="1"/>
        <pt x="277" y="247" on="0"/>
        <pt x="277" y="210" on="1"/>
        <pt x="277" y="190" on="0"/>
        <pt x="286" y="158" on="0"/>
        <pt x="309" y="134" on="0"/>
        <pt x="348" y="121" on="0"/>
        <pt x="377" y="121" on="1"/>
        <pt x="437" y="121" on="0"/>
        <pt x="499" y="196" on="0"/>
        <pt x="516" y="265" on="1"/>
        <pt x="618" y="693" on="1"/>
        <pt x="774" y="693" on="1"/>
      </contour>
    </TTGlyph>
    <TTGlyph name="Upsilon" xMin="170" yMin="0" xMax="792" yMax="693">
      <component glyphName="Y" x="0" y="0" flags="0x204"/>
    </TTGlyph>
    <TTGlyph name="Upsilondieresis" xMin="170" yMin="0" xMax="792" yMax="914">
      <component glyphName="Y" x="0" y="0" flags="0x204"/>
      <component glyphName="dieresis" x="77" y="160" flags="0x4"/>
    </TTGlyph>
    <TTGlyph name="Upsilontonos" xMin="-99" yMin="0" xMax="784" yMax="737">
      <component glyphName="Y" x="-8" y="0" flags="0x4"/>
      <component glyphName="tonos.cap" x="-329" y="0" flags="0x4"/>
    </TTGlyph>
    <TTGlyph name="Uring" xMin="120" yMin="-14" xMax="773" yMax="949">
      <component glyphName="U" x="0" y="0" flags="0x204"/>
      <component glyphName="ring" x="189" y="135" flags="0x4"/>
    </TTGlyph>
    <TTGlyph name="Utilde" xMin="120" yMin="-14" xMax="773" yMax="918">
      <component glyphName="U" x="0" y="0" flags="0x204"/>
      <component glyphName="tilde" x="176" y="163" flags="0x4"/>
    </TTGlyph>
    <TTGlyph name="V" xMin="170" yMin="0" xMax="823" yMax="693">
      <contour>
        <pt x="268" y="0" on="1"/>
        <pt x="252" y="85" on="0"/>
        <pt x="223" y="267" on="0"/>
        <pt x="197" y="447" on="0"/>
        <pt x="177" y="618" on="0"/>
        <pt x="170" y="693" on="1"/>
        <pt x="337" y="693" on="1"/>
        <pt x="340" y="636" on="0"/>
        <pt x="349" y="505" on="0"/>
        <pt x="361" y="372" on="0"/>
        <pt x="374" y="241" on="0"/>
        <pt x="381" y="184" on="1"/>
        <pt x="412" y="236" on="0"/>
        <pt x="483" y="360" on="0"/>
        <pt x="556" y="494" on="0"/>
        <pt x="627" y="630" on="0"/>
        <pt x="657" y="693" on="1"/>
        <pt x="823" y="693" on="1"/>
        <pt x="785" y="621" on="0"/>
        <pt x="695" y="455" on="0"/>
        <pt x="592" y="277" on="0"/>
        <pt x="477" y="92" on="0"/>
        <pt x="414" y="0" on="1"/>
      </contour>
    </TTGlyph>
    <TTGlyph name="W" xMin="160" yMin="0" xMax="1076" yMax="693">
      <contour>
        <pt x="667" y="619" on="1"/>
        <pt x="669" y="578" on="0"/>
        <pt x="676" y="474" on="0"/>
        <pt x="685" y="363" on="0"/>
        <pt x="695" y="253" on="0"/>
        <pt x="700" y="206" on="1"/>
        <pt x="726" y="257" on="0"/>
        <pt x="780" y="375" on="0"/>
        <pt x="834" y="501" on="0"/>
        <pt x="887" y="631" on="0"/>
        <pt x="911" y="693" on="1"/>
        <pt x="1076" y="693" on="1"/>
        <pt x="998" y="503" on="0"/>
        <pt x="836" y="160" on="0"/>
        <pt x="743" y="0" on="1"/>
        <pt x="597" y="0" on="1"/>
        <pt x="589" y="55" on="0"/>
        <pt x="576" y="156" on="0"/>
        <pt x="565" y="254" on="0"/>
        <pt x="556" y="354" on="0"/>
        <pt x="552" y="408" on="1"/>
        <pt x="495" y="302" on="0"/>
        <pt x="384" y="99" on="0"/>
        <pt x="321" y="0" on="1"/>
        <pt x="175" y="0" on="1"/>
        <pt x="167" y="93" on="0"/>
        <pt x="160" y="275" on="0"/>
        <pt x="160" y="369" on="1"/>
        <pt x="160" y="450" on="0"/>
        <pt x="166" y="611" on="0"/>
        <pt x="171" y="693" on="1"/>
        <pt x="328" y="693" on="1"/>
        <pt x="323" y="605" on="0"/>
        <pt x="314" y="436" on="0"/>
        <pt x="314" y="345" on="1"/>
        <pt x="314" y="311" on="0"/>
        <pt x="314" y="241" on="0"/>
        <pt x="316" y="206" on="1"/>
        <pt x="344" y="255" on="0"/>
        <pt x="406" y="365" on="0"/>
        <pt x="466" y="475" on="0"/>
        <pt x="520" y="578" on="0"/>
        <pt x="539" y="619" on="1"/>
      </contour>
    </TTGlyph>
    <TTGlyph name="Wacute" xMin="160" yMin="0" xMax="1076" yMax="957">
      <component glyphName="W" x="0" y="0" flags="0x204"/>
      <component glyphName="acute" x="364" y="158" flags="0x4"/>
    </TTGlyph>
    <TTGlyph name="Wcircumflex" xMin="160" yMin="0" xMax="1076" yMax="940">
      <component glyphName="W" x="0" y="0" flags="0x204"/>
      <component glyphName="circumflex" x="298" y="156" flags="0x4"/>
    </TTGlyph>
    <TTGlyph name="Wdieresis" xMin="160" yMin="0" xMax="1076" yMax="904">
      <component glyphName="W" x="0" y="0" flags="0x204"/>
      <component glyphName="dieresis" x="231" y="150" flags="0x4"/>
    </TTGlyph>
    <TTGlyph name="Wgrave" xMin="160" yMin="0" xMax="1076" yMax="957">
      <component glyphName="W" x="0" y="0" flags="0x204"/>
      <component glyphName="grave" x="308" y="158" flags="0x4"/>
    </TTGlyph>
    <TTGlyph name="X" xMin="15" yMin="0" xMax="779" yMax="693">
      <contour>
        <pt x="487" y="0" on="1"/>
        <pt x="473" y="43" on="0"/>
        <pt x="450" y="109" on="0"/>
        <pt x="429" y="166" on="0"/>
        <pt x="407" y="217" on="0"/>
        <pt x="394" y="245" on="1"/>
        <pt x="193" y="0" on="1"/>
        <pt x="15" y="0" on="1"/>
        <pt x="330" y="377" on="1"/>
        <pt x="189" y="693" on="1"/>
        <pt x="361" y="693" on="1"/>
        <pt x="444" y="479" on="1"/>
        <pt x="489" y="533" on="0"/>
        <pt x="573" y="644" on="0"/>
        <pt x="608" y="693" on="1"/>
        <pt x="779" y="693" on="1"/>
        <pt x="750" y="652" on="0"/>
        <pt x="685" y="565" on="0"/>
        <pt x="616" y="478" on="0"/>
        <pt x="546" y="395" on="0"/>
        <pt x="513" y="358" on="1"/>
        <pt x="534" y="311" on="0"/>
        <pt x="571" y="227" on="0"/>
        <pt x="605" y="142" on="0"/>
        <pt x="637" y="52" on="0"/>
        <pt x="654" y="0" on="1"/>
      </contour>
    </TTGlyph>
    <TTGlyph name="Xi" xMin="50" yMin="0" xMax="707" yMax="693">
      <contour>
        <pt x="224" y="693" on="1"/>
        <pt x="707" y="693" on="1"/>
        <pt x="675" y="560" on="1"/>
        <pt x="192" y="560" on="1"/>
      </contour>
      <contour>
        <pt x="171" y="297" on="1"/>
        <pt x="202" y="427" on="1"/>
        <pt x="601" y="427" on="1"/>
        <pt x="570" y="297" on="1"/>
      </contour>
      <contour>
        <pt x="82" y="133" on="1"/>
        <pt x="582" y="133" on="1"/>
        <pt x="550" y="0" on="1"/>
        <pt x="50" y="0" on="1"/>
      </contour>
    </TTGlyph>
    <TTGlyph name="Y" xMin="170" yMin="0" xMax="792" yMax="693">
      <contour>
        <pt x="413" y="408" on="1"/>
        <pt x="442" y="445" on="0"/>
        <pt x="495" y="514" on="0"/>
        <pt x="545" y="583" on="0"/>
        <pt x="594" y="654" on="0"/>
        <pt x="620" y="693" on="1"/>
        <pt x="792" y="693" on="1"/>
        <pt x="750" y="634" on="0"/>
        <pt x="672" y="528" on="0"/>
        <pt x="594" y="427" on="0"/>
        <pt x="512" y="327" on="0"/>
        <pt x="466" y="274" on="1"/>
        <pt x="400" y="0" on="1"/>
        <pt x="244" y="0" on="1"/>
        <pt x="310" y="274" on="1"/>
        <pt x="268" y="380" on="0"/>
        <pt x="200" y="582" on="0"/>
        <pt x="170" y="693" on="1"/>
        <pt x="336" y="693" on="1"/>
        <pt x="352" y="621" on="0"/>
        <pt x="390" y="483" on="0"/>
      </contour>
    </TTGlyph>
    <TTGlyph name="Yacute" xMin="170" yMin="0" xMax="792" yMax="959">
      <component glyphName="Y" x="0" y="0" flags="0x204"/>
      <component glyphName="acute" x="210" y="160" flags="0x4"/>
    </TTGlyph>
    <TTGlyph name="Ycircumflex" xMin="170" yMin="0" xMax="792" yMax="950">
      <component glyphName="Y" x="0" y="0" flags="0x204"/>
      <component glyphName="circumflex" x="140" y="166" flags="0x4"/>
    </TTGlyph>
    <TTGlyph name="Ydieresis" xMin="170" yMin="0" xMax="792" yMax="914">
      <component glyphName="Y" x="0" y="0" flags="0x214"/>
      <component glyphName="dieresis" x="73" y="160" flags="0x4"/>
    </TTGlyph>
    <TTGlyph name="Ygrave" xMin="170" yMin="0" xMax="792" yMax="959">
      <component glyphName="Y" x="0" y="0" flags="0x204"/>
      <component glyphName="grave" x="168" y="160" flags="0x4"/>
    </TTGlyph>
    <TTGlyph name="Z" xMin="45" yMin="0" xMax="738" yMax="693">
      <contour>
        <pt x="712" y="585" on="1"/>
        <pt x="672" y="551" on="0"/>
        <pt x="560" y="446" on="0"/>
        <pt x="438" y="323" on="0"/>
        <pt x="316" y="191" on="0"/>
        <pt x="266" y="131" on="1"/>
        <pt x="614" y="131" on="1"/>
        <pt x="582" y="0" on="1"/>
        <pt x="45" y="0" on="1"/>
        <pt x="68" y="93" on="1"/>
        <pt x="108" y="146" on="0"/>
        <pt x="216" y="271" on="0"/>
        <pt x="333" y="397" on="0"/>
        <pt x="451" y="515" on="0"/>
        <pt x="501" y="562" on="1"/>
        <pt x="195" y="562" on="1"/>
        <pt x="227" y="693" on="1"/>
        <pt x="738" y="693" on="1"/>
      </contour>
    </TTGlyph>
    <TTGlyph name="Zacute" xMin="45" yMin="0" xMax="738" yMax="959">
      <component glyphName="Z" x="0" y="0" flags="0x204"/>
      <component glyphName="acute" x="227" y="160" flags="0x4"/>
    </TTGlyph>
    <TTGlyph name="Zcaron" xMin="45" yMin="0" xMax="738" yMax="959">
      <component glyphName="Z" x="0" y="0" flags="0x204"/>
      <component glyphName="caron" x="149" y="166" flags="0x4"/>
    </TTGlyph>
    <TTGlyph name="Zdotaccent" xMin="45" yMin="0" xMax="738" yMax="916">
      <component glyphName="Z" x="0" y="0" flags="0x204"/>
      <component glyphName="dotaccent" x="92" y="160" flags="0x4"/>
    </TTGlyph>
    <TTGlyph name="Zeta" xMin="45" yMin="0" xMax="738" yMax="693">
      <component glyphName="Z" x="0" y="0" flags="0x204"/>
    </TTGlyph>
    <TTGlyph name="a" xMin="100" yMin="-14" xMax="628" yMax="538">
      <contour>
        <pt x="563" y="227" on="1"/>
        <pt x="549" y="170" on="0"/>
        <pt x="561" y="55" on="0"/>
        <pt x="578" y="10" on="1"/>
        <pt x="445" y="-9" on="1"/>
        <pt x="439" y="3" on="0"/>
        <pt x="429" y="25" on="0"/>
        <pt x="424" y="39" on="1"/>
        <pt x="396" y="16" on="0"/>
        <pt x="328" y="-14" on="0"/>
        <pt x="286" y="-14" on="1"/>
        <pt x="236" y="-14" on="0"/>
        <pt x="165" y="21" on="0"/>
        <pt x="120" y="80" on="0"/>
        <pt x="100" y="159" on="0"/>
        <pt x="100" y="204" on="1"/>
        <pt x="100" y="273" on="0"/>
        <pt x="149" y="395" on="0"/>
        <pt x="236" y="486" on="0"/>
        <pt x="354" y="538" on="0"/>
        <pt x="423" y="538" on="1"/>
        <pt x="432" y="538" on="0"/>
        <pt x="477" y="536" on="0"/>
        <pt x="535" y="529" on="0"/>
        <pt x="599" y="513" on="0"/>
        <pt x="628" y="499" on="1"/>
      </contour>
      <contour>
        <pt x="459" y="411" on="1"/>
        <pt x="446" y="413" on="0"/>
        <pt x="425" y="415" on="0"/>
        <pt x="410" y="415" on="1"/>
        <pt x="376" y="415" on="0"/>
        <pt x="317" y="381" on="0"/>
        <pt x="273" y="326" on="0"/>
        <pt x="248" y="254" on="0"/>
        <pt x="248" y="215" on="1"/>
        <pt x="248" y="167" on="0"/>
        <pt x="280" y="111" on="0"/>
        <pt x="323" y="111" on="1"/>
        <pt x="346" y="111" on="0"/>
        <pt x="383" y="129" on="0"/>
        <pt x="404" y="150" on="1"/>
        <pt x="406" y="175" on="0"/>
        <pt x="415" y="230" on="0"/>
        <pt x="420" y="253" on="1"/>
      </contour>
    </TTGlyph>
    <TTGlyph name="aacute" xMin="100" yMin="-14" xMax="628" yMax="799">
      <component glyphName="a" x="0" y="0" flags="0x204"/>
      <component glyphName="acute" x="178" y="0" flags="0x4"/>
    </TTGlyph>
    <TTGlyph name="abreve" xMin="100" yMin="-14" xMax="651" yMax="764">
      <component glyphName="a" x="0" y="0" flags="0x204"/>
      <component glyphName="breve" x="127" y="0" flags="0x4"/>
    </TTGlyph>
    <TTGlyph name="acircumflex" xMin="100" yMin="-14" xMax="628" yMax="784">
      <component glyphName="a" x="0" y="0" flags="0x204"/>
      <component glyphName="circumflex" x="94" y="0" flags="0x4"/>
    </TTGlyph>
    <TTGlyph name="acute" xMin="177" yMin="576" xMax="414" yMax="799">
      <contour>
        <pt x="414" y="712" on="1"/>
        <pt x="237" y="576" on="1"/>
        <pt x="177" y="638" on="1"/>
        <pt x="337" y="799" on="1"/>
      </contour>
    </TTGlyph>
    <TTGlyph name="acute.asc" xMin="231" yMin="792" xMax="477" yMax="962">
      <contour>
        <pt x="477" y="859" on="1"/>
        <pt x="249" y="792" on="1"/>
        <pt x="231" y="857" on="1"/>
        <pt x="449" y="962" on="1"/>
      </contour>
    </TTGlyph>
    <TTGlyph name="adieresis" xMin="100" yMin="-14" xMax="629" yMax="754">
      <component glyphName="a" x="0" y="0" flags="0x204"/>
      <component glyphName="dieresis" x="27" y="0" flags="0x4"/>
    </TTGlyph>
    <TTGlyph name="ae" xMin="90" yMin="-14" xMax="887" yMax="540">
      <contour>
        <pt x="176" y="511" on="1"/>
        <pt x="211" y="523" on="0"/>
        <pt x="295" y="540" on="0"/>
        <pt x="337" y="540" on="1"/>
        <pt x="394" y="540" on="0"/>
        <pt x="492" y="502" on="0"/>
        <pt x="522" y="453" on="1"/>
        <pt x="541" y="474" on="0"/>
        <pt x="589" y="507" on="0"/>
        <pt x="641" y="529" on="0"/>
        <pt x="696" y="540" on="0"/>
        <pt x="722" y="540" on="1"/>
        <pt x="755" y="540" on="0"/>
        <pt x="815" y="522" on="0"/>
        <pt x="860" y="485" on="0"/>
        <pt x="887" y="429" on="0"/>
        <pt x="887" y="392" on="1"/>
        <pt x="887" y="336" on="0"/>
        <pt x="838" y="258" on="0"/>
        <pt x="750" y="209" on="0"/>
        <pt x="630" y="187" on="0"/>
        <pt x="558" y="187" on="1"/>
        <pt x="565" y="145" on="0"/>
        <pt x="612" y="110" on="0"/>
        <pt x="663" y="110" on="1"/>
        <pt x="695" y="110" on="0"/>
        <pt x="761" y="121" on="0"/>
        <pt x="790" y="132" on="1"/>
        <pt x="801" y="15" on="1"/>
        <pt x="763" y="2" on="0"/>
        <pt x="680" y="-14" on="0"/>
        <pt x="638" y="-14" on="1"/>
        <pt x="583" y="-14" on="0"/>
        <pt x="487" y="23" on="0"/>
        <pt x="455" y="71" on="1"/>
        <pt x="438" y="51" on="0"/>
        <pt x="391" y="19" on="0"/>
        <pt x="338" y="-3" on="0"/>
        <pt x="282" y="-14" on="0"/>
        <pt x="255" y="-14" on="1"/>
        <pt x="222" y="-14" on="0"/>
        <pt x="163" y="3" on="0"/>
        <pt x="117" y="39" on="0"/>
        <pt x="90" y="95" on="0"/>
        <pt x="90" y="134" on="1"/>
        <pt x="90" y="190" on="0"/>
        <pt x="139" y="268" on="0"/>
        <pt x="227" y="317" on="0"/>
        <pt x="347" y="339" on="0"/>
        <pt x="419" y="339" on="1"/>
        <pt x="412" y="381" on="0"/>
        <pt x="365" y="416" on="0"/>
        <pt x="314" y="416" on="1"/>
        <pt x="282" y="416" on="0"/>
        <pt x="216" y="405" on="0"/>
        <pt x="187" y="394" on="1"/>
      </contour>
      <contour>
        <pt x="279" y="104" on="1"/>
        <pt x="330" y="104" on="0"/>
        <pt x="403" y="177" on="0"/>
        <pt x="415" y="237" on="1"/>
        <pt x="353" y="235" on="0"/>
        <pt x="278" y="218" on="0"/>
        <pt x="238" y="194" on="0"/>
        <pt x="225" y="165" on="0"/>
        <pt x="225" y="152" on="1"/>
        <pt x="225" y="104" on="0"/>
      </contour>
      <contour>
        <pt x="698" y="422" on="1"/>
        <pt x="647" y="422" on="0"/>
        <pt x="574" y="349" on="0"/>
        <pt x="562" y="289" on="1"/>
        <pt x="624" y="291" on="0"/>
        <pt x="699" y="308" on="0"/>
        <pt x="739" y="332" on="0"/>
        <pt x="752" y="360" on="0"/>
        <pt x="752" y="374" on="1"/>
        <pt x="752" y="422" on="0"/>
      </contour>
    </TTGlyph>
    <TTGlyph name="aeacute" xMin="90" yMin="-14" xMax="887" yMax="799">
      <component glyphName="ae" x="0" y="0" flags="0x204"/>
      <component glyphName="acute" x="320" y="0" flags="0x4"/>
    </TTGlyph>
    <TTGlyph name="afii00208" xMin="50" yMin="237" xMax="1078" yMax="361">
      <contour>
        <pt x="78" y="361" on="1"/>
        <pt x="1078" y="361" on="1"/>
        <pt x="1049" y="237" on="1"/>
        <pt x="50" y="237" on="1"/>
      </contour>
    </TTGlyph>
    <TTGlyph name="afii10017" xMin="15" yMin="0" xMax="689" yMax="693">
      <component glyphName="A" x="0" y="0" flags="0x204"/>
    </TTGlyph>
    <TTGlyph name="afii10018" xMin="75" yMin="-7" xMax="686" yMax="693">
      <component glyphName="uni0182" x="0" y="0" flags="0x204"/>
    </TTGlyph>
    <TTGlyph name="afii10019" xMin="75" yMin="-9" xMax="698" yMax="701">
      <component glyphName="B" x="0" y="0" flags="0x204"/>
    </TTGlyph>
    <TTGlyph name="afii10020" xMin="75" yMin="0" xMax="674" yMax="693">
      <contour>
        <pt x="230" y="0" on="1"/>
        <pt x="75" y="0" on="1"/>
        <pt x="241" y="693" on="1"/>
        <pt x="674" y="693" on="1"/>
        <pt x="642" y="561" on="1"/>
        <pt x="365" y="561" on="1"/>
      </contour>
    </TTGlyph>
    <TTGlyph name="afii10021" xMin="-2" yMin="-185" xMax="851" yMax="693">
      <contour>
        <pt x="74" y="132" on="1"/>
        <pt x="165" y="132" on="1"/>
        <pt x="210" y="175" on="0"/>
        <pt x="278" y="293" on="0"/>
        <pt x="330" y="424" on="0"/>
        <pt x="367" y="556" on="0"/>
        <pt x="380" y="613" on="1"/>
        <pt x="398" y="693" on="1"/>
        <pt x="851" y="693" on="1"/>
        <pt x="716" y="132" on="1"/>
        <pt x="835" y="132" on="1"/>
        <pt x="759" y="-185" on="1"/>
        <pt x="609" y="-185" on="1"/>
        <pt x="654" y="0" on="1"/>
        <pt x="192" y="0" on="1"/>
        <pt x="147" y="-185" on="1"/>
        <pt x="-2" y="-185" on="1"/>
      </contour>
      <contour>
        <pt x="513" y="561" on="1"/>
        <pt x="496" y="493" on="0"/>
        <pt x="465" y="379" on="0"/>
        <pt x="427" y="277" on="0"/>
        <pt x="378" y="181" on="0"/>
        <pt x="342" y="132" on="1"/>
        <pt x="564" y="132" on="1"/>
        <pt x="667" y="561" on="1"/>
      </contour>
    </TTGlyph>
    <TTGlyph name="afii10022" xMin="75" yMin="0" xMax="694" yMax="693">
      <component glyphName="E" x="0" y="0" flags="0x204"/>
    </TTGlyph>
    <TTGlyph name="afii10023" xMin="75" yMin="0" xMax="694" yMax="914">
      <component glyphName="E" x="0" y="0" flags="0x204"/>
      <component glyphName="dieresis" x="74" y="160" flags="0x4"/>
    </TTGlyph>
    <TTGlyph name="afii10024" xMin="30" yMin="0" xMax="1146" yMax="693">
      <contour>
        <pt x="30" y="0" on="1"/>
        <pt x="72" y="55" on="0"/>
        <pt x="161" y="162" on="0"/>
        <pt x="251" y="259" on="0"/>
        <pt x="342" y="343" on="0"/>
        <pt x="387" y="376" on="1"/>
        <pt x="197" y="693" on="1"/>
        <pt x="385" y="693" on="1"/>
        <pt x="524" y="415" on="1"/>
        <pt x="591" y="693" on="1"/>
        <pt x="743" y="693" on="1"/>
        <pt x="676" y="415" on="1"/>
        <pt x="959" y="693" on="1"/>
        <pt x="1146" y="693" on="1"/>
        <pt x="792" y="353" on="1"/>
        <pt x="853" y="278" on="0"/>
        <pt x="949" y="103" on="0"/>
        <pt x="982" y="0" on="1"/>
        <pt x="808" y="0" on="1"/>
        <pt x="789" y="50" on="0"/>
        <pt x="754" y="131" on="0"/>
        <pt x="718" y="203" on="0"/>
        <pt x="676" y="272" on="0"/>
        <pt x="651" y="310" on="1"/>
        <pt x="576" y="0" on="1"/>
        <pt x="424" y="0" on="1"/>
        <pt x="499" y="310" on="1"/>
        <pt x="452" y="268" on="0"/>
        <pt x="377" y="196" on="0"/>
        <pt x="308" y="124" on="0"/>
        <pt x="240" y="46" on="0"/>
        <pt x="202" y="0" on="1"/>
      </contour>
    </TTGlyph>
    <TTGlyph name="afii10025" xMin="40" yMin="-14" xMax="644" yMax="708">
      <contour>
        <pt x="245" y="423" on="1"/>
        <pt x="330" y="423" on="1"/>
        <pt x="357" y="423" on="0"/>
        <pt x="410" y="433" on="0"/>
        <pt x="454" y="456" on="0"/>
        <pt x="481" y="494" on="0"/>
        <pt x="481" y="522" on="1"/>
        <pt x="481" y="549" on="0"/>
        <pt x="434" y="575" on="0"/>
        <pt x="398" y="575" on="1"/>
        <pt x="362" y="575" on="0"/>
        <pt x="275" y="551" on="0"/>
        <pt x="234" y="528" on="1"/>
        <pt x="212" y="658" on="1"/>
        <pt x="259" y="682" on="0"/>
        <pt x="367" y="708" on="0"/>
        <pt x="436" y="708" on="1"/>
        <pt x="493" y="708" on="0"/>
        <pt x="572" y="681" on="0"/>
        <pt x="622" y="636" on="0"/>
        <pt x="644" y="578" on="0"/>
        <pt x="644" y="547" on="1"/>
        <pt x="644" y="487" on="0"/>
        <pt x="578" y="391" on="0"/>
        <pt x="511" y="365" on="1"/>
        <pt x="563" y="338" on="0"/>
        <pt x="600" y="263" on="0"/>
        <pt x="600" y="227" on="1"/>
        <pt x="600" y="187" on="0"/>
        <pt x="564" y="102" on="0"/>
        <pt x="485" y="31" on="0"/>
        <pt x="360" y="-14" on="0"/>
        <pt x="270" y="-14" on="1"/>
        <pt x="204" y="-14" on="0"/>
        <pt x="84" y="16" on="0"/>
        <pt x="40" y="42" on="1"/>
        <pt x="112" y="164" on="1"/>
        <pt x="154" y="141" on="0"/>
        <pt x="235" y="119" on="0"/>
        <pt x="282" y="119" on="1"/>
        <pt x="322" y="119" on="0"/>
        <pt x="380" y="136" on="0"/>
        <pt x="419" y="165" on="0"/>
        <pt x="438" y="201" on="0"/>
        <pt x="438" y="220" on="1"/>
        <pt x="438" y="255" on="0"/>
        <pt x="383" y="295" on="0"/>
        <pt x="326" y="295" on="1"/>
        <pt x="214" y="295" on="1"/>
      </contour>
    </TTGlyph>
    <TTGlyph name="afii10026" xMin="75" yMin="0" xMax="817" yMax="693">
      <contour>
        <pt x="75" y="0" on="1"/>
        <pt x="241" y="693" on="1"/>
        <pt x="396" y="693" on="1"/>
        <pt x="297" y="284" on="1"/>
        <pt x="346" y="338" on="0"/>
        <pt x="447" y="450" on="0"/>
        <pt x="547" y="556" on="0"/>
        <pt x="645" y="653" on="0"/>
        <pt x="690" y="693" on="1"/>
        <pt x="817" y="693" on="1"/>
        <pt x="650" y="0" on="1"/>
        <pt x="496" y="0" on="1"/>
        <pt x="605" y="454" on="1"/>
        <pt x="548" y="394" on="0"/>
        <pt x="444" y="281" on="0"/>
        <pt x="347" y="171" on="0"/>
        <pt x="253" y="59" on="0"/>
        <pt x="205" y="0" on="1"/>
      </contour>
    </TTGlyph>
    <TTGlyph name="afii10027" xMin="75" yMin="0" xMax="817" yMax="923">
      <component glyphName="afii10026" x="0" y="0" flags="0x204"/>
      <component glyphName="kratka" x="206" y="156" flags="0x4"/>
    </TTGlyph>
    <TTGlyph name="afii10028" xMin="75" yMin="0" xMax="797" yMax="693">
      <component glyphName="K" x="0" y="0" flags="0x204"/>
    </TTGlyph>
    <TTGlyph name="afii10029" xMin="40" yMin="-14" xMax="802" yMax="693">
      <contour>
        <pt x="465" y="561" on="1"/>
        <pt x="432" y="422" on="0"/>
        <pt x="367" y="212" on="0"/>
        <pt x="278" y="69" on="0"/>
        <pt x="151" y="-8" on="0"/>
        <pt x="55" y="-14" on="1"/>
        <pt x="40" y="122" on="1"/>
        <pt x="90" y="126" on="0"/>
        <pt x="165" y="175" on="0"/>
        <pt x="222" y="255" on="0"/>
        <pt x="265" y="362" on="0"/>
        <pt x="301" y="486" on="0"/>
        <pt x="332" y="623" on="0"/>
        <pt x="349" y="693" on="1"/>
        <pt x="802" y="693" on="1"/>
        <pt x="636" y="0" on="1"/>
        <pt x="480" y="0" on="1"/>
        <pt x="615" y="561" on="1"/>
      </contour>
    </TTGlyph>
    <TTGlyph name="afii10030" xMin="55" yMin="0" xMax="918" yMax="693">
      <component glyphName="M" x="0" y="0" flags="0x204"/>
    </TTGlyph>
    <TTGlyph name="afii10031" xMin="75" yMin="0" xMax="799" yMax="693">
      <component glyphName="H" x="0" y="0" flags="0x204"/>
    </TTGlyph>
    <TTGlyph name="afii10032" xMin="123" yMin="-14" xMax="794" yMax="709">
      <component glyphName="O" x="0" y="0" flags="0x204"/>
    </TTGlyph>
    <TTGlyph name="afii10033" xMin="75" yMin="0" xMax="791" yMax="693">
      <component glyphName="Pi" x="0" y="0" flags="0x204"/>
    </TTGlyph>
    <TTGlyph name="afii10034" xMin="75" yMin="0" xMax="704" yMax="701">
      <component glyphName="P" x="0" y="0" flags="0x204"/>
    </TTGlyph>
    <TTGlyph name="afii10035" xMin="123" yMin="-14" xMax="733" yMax="709">
      <component glyphName="C" x="0" y="0" flags="0x204"/>
    </TTGlyph>
    <TTGlyph name="afii10036" xMin="145" yMin="0" xMax="739" yMax="693">
      <component glyphName="T" x="0" y="0" flags="0x204"/>
    </TTGlyph>
    <TTGlyph name="afii10037" xMin="60" yMin="-14" xMax="780" yMax="693">
      <contour>
        <pt x="184" y="119" on="1"/>
        <pt x="214" y="119" on="0"/>
        <pt x="270" y="142" on="0"/>
        <pt x="296" y="168" on="1"/>
        <pt x="314" y="187" on="1"/>
        <pt x="293" y="247" on="0"/>
        <pt x="254" y="377" on="0"/>
        <pt x="219" y="509" on="0"/>
        <pt x="192" y="636" on="0"/>
        <pt x="183" y="693" on="1"/>
        <pt x="356" y="693" on="1"/>
        <pt x="365" y="612" on="0"/>
        <pt x="398" y="429" on="0"/>
        <pt x="421" y="338" on="1"/>
        <pt x="463" y="408" on="0"/>
        <pt x="556" y="585" on="0"/>
        <pt x="613" y="693" on="1"/>
        <pt x="780" y="693" on="1"/>
        <pt x="689" y="529" on="0"/>
        <pt x="517" y="247" on="0"/>
        <pt x="442" y="141" on="1"/>
        <pt x="391" y="71" on="0"/>
        <pt x="265" y="-14" on="0"/>
        <pt x="180" y="-14" on="1"/>
        <pt x="120" y="-14" on="0"/>
        <pt x="60" y="12" on="1"/>
        <pt x="109" y="135" on="1"/>
        <pt x="144" y="119" on="0"/>
      </contour>
    </TTGlyph>
    <TTGlyph name="afii10038" xMin="115" yMin="0" xMax="885" yMax="738">
      <component glyphName="Phi" x="0" y="0" flags="0x204"/>
    </TTGlyph>
    <TTGlyph name="afii10039" xMin="15" yMin="0" xMax="779" yMax="693">
      <component glyphName="X" x="0" y="0" flags="0x204"/>
    </TTGlyph>
    <TTGlyph name="afii10040" xMin="75" yMin="-185" xMax="791" yMax="693">
      <contour>
        <pt x="656" y="132" on="1"/>
        <pt x="776" y="132" on="1"/>
        <pt x="700" y="-185" on="1"/>
        <pt x="550" y="-185" on="1"/>
        <pt x="595" y="0" on="1"/>
        <pt x="75" y="0" on="1"/>
        <pt x="241" y="693" on="1"/>
        <pt x="397" y="693" on="1"/>
        <pt x="262" y="132" on="1"/>
        <pt x="500" y="132" on="1"/>
        <pt x="635" y="693" on="1"/>
        <pt x="791" y="693" on="1"/>
      </contour>
    </TTGlyph>
    <TTGlyph name="afii10041" xMin="150" yMin="0" xMax="740" yMax="693">
      <contour>
        <pt x="317" y="489" on="1"/>
        <pt x="309" y="454" on="0"/>
        <pt x="309" y="432" on="1"/>
        <pt x="309" y="408" on="0"/>
        <pt x="325" y="376" on="0"/>
        <pt x="353" y="357" on="0"/>
        <pt x="388" y="349" on="0"/>
        <pt x="408" y="349" on="1"/>
        <pt x="434" y="349" on="0"/>
        <pt x="485" y="359" on="0"/>
        <pt x="505" y="364" on="1"/>
        <pt x="584" y="693" on="1"/>
        <pt x="740" y="693" on="1"/>
        <pt x="573" y="0" on="1"/>
        <pt x="417" y="0" on="1"/>
        <pt x="473" y="232" on="1"/>
        <pt x="419" y="217" on="0"/>
        <pt x="363" y="217" on="1"/>
        <pt x="321" y="217" on="0"/>
        <pt x="243" y="238" on="0"/>
        <pt x="185" y="283" on="0"/>
        <pt x="150" y="355" on="0"/>
        <pt x="150" y="406" on="1"/>
        <pt x="150" y="445" on="0"/>
        <pt x="162" y="495" on="1"/>
        <pt x="210" y="693" on="1"/>
        <pt x="366" y="693" on="1"/>
      </contour>
    </TTGlyph>
    <TTGlyph name="afii10042" xMin="75" yMin="0" xMax="1071" yMax="693">
      <contour>
        <pt x="241" y="693" on="1"/>
        <pt x="397" y="693" on="1"/>
        <pt x="262" y="132" on="1"/>
        <pt x="443" y="132" on="1"/>
        <pt x="578" y="693" on="1"/>
        <pt x="734" y="693" on="1"/>
        <pt x="599" y="132" on="1"/>
        <pt x="780" y="132" on="1"/>
        <pt x="915" y="693" on="1"/>
        <pt x="1071" y="693" on="1"/>
        <pt x="904" y="0" on="1"/>
        <pt x="75" y="0" on="1"/>
      </contour>
    </TTGlyph>
    <TTGlyph name="afii10043" xMin="75" yMin="-185" xMax="1071" yMax="693">
      <contour>
        <pt x="241" y="693" on="1"/>
        <pt x="397" y="693" on="1"/>
        <pt x="262" y="132" on="1"/>
        <pt x="443" y="132" on="1"/>
        <pt x="578" y="693" on="1"/>
        <pt x="734" y="693" on="1"/>
        <pt x="599" y="132" on="1"/>
        <pt x="780" y="132" on="1"/>
        <pt x="915" y="693" on="1"/>
        <pt x="1071" y="693" on="1"/>
        <pt x="936" y="132" on="1"/>
        <pt x="1056" y="132" on="1"/>
        <pt x="980" y="-185" on="1"/>
        <pt x="830" y="-185" on="1"/>
        <pt x="875" y="0" on="1"/>
        <pt x="75" y="0" on="1"/>
      </contour>
    </TTGlyph>
    <TTGlyph name="afii10044" xMin="145" yMin="-9" xMax="746" yMax="693">
      <contour>
        <pt x="496" y="693" on="1"/>
        <pt x="441" y="462" on="1"/>
        <pt x="448" y="463" on="0"/>
        <pt x="485" y="465" on="0"/>
        <pt x="496" y="465" on="1"/>
        <pt x="574" y="465" on="0"/>
        <pt x="671" y="429" on="0"/>
        <pt x="726" y="370" on="0"/>
        <pt x="746" y="294" on="0"/>
        <pt x="746" y="253" on="1"/>
        <pt x="746" y="205" on="0"/>
        <pt x="710" y="112" on="0"/>
        <pt x="625" y="37" on="0"/>
        <pt x="486" y="-9" on="0"/>
        <pt x="383" y="-9" on="1"/>
        <pt x="330" y="-9" on="0"/>
        <pt x="221" y="5" on="0"/>
        <pt x="177" y="16" on="1"/>
        <pt x="308" y="561" on="1"/>
        <pt x="145" y="561" on="1"/>
        <pt x="177" y="693" on="1"/>
      </contour>
      <contour>
        <pt x="360" y="127" on="1"/>
        <pt x="373" y="125" on="0"/>
        <pt x="406" y="123" on="0"/>
        <pt x="423" y="123" on="1"/>
        <pt x="470" y="123" on="0"/>
        <pt x="533" y="144" on="0"/>
        <pt x="570" y="179" on="0"/>
        <pt x="586" y="222" on="0"/>
        <pt x="586" y="244" on="1"/>
        <pt x="586" y="262" on="0"/>
        <pt x="576" y="295" on="0"/>
        <pt x="550" y="321" on="0"/>
        <pt x="505" y="336" on="0"/>
        <pt x="471" y="336" on="1"/>
        <pt x="466" y="336" on="0"/>
        <pt x="428" y="335" on="0"/>
        <pt x="410" y="333" on="1"/>
      </contour>
    </TTGlyph>
    <TTGlyph name="afii10045" xMin="75" yMin="-9" xMax="996" yMax="693">
      <contour>
        <pt x="830" y="0" on="1"/>
        <pt x="682" y="0" on="1"/>
        <pt x="847" y="693" on="1"/>
        <pt x="996" y="693" on="1"/>
      </contour>
      <contour>
        <pt x="238" y="693" on="1"/>
        <pt x="394" y="693" on="1"/>
        <pt x="339" y="462" on="1"/>
        <pt x="346" y="463" on="0"/>
        <pt x="383" y="465" on="0"/>
        <pt x="394" y="465" on="1"/>
        <pt x="472" y="465" on="0"/>
        <pt x="569" y="429" on="0"/>
        <pt x="624" y="370" on="0"/>
        <pt x="644" y="294" on="0"/>
        <pt x="644" y="253" on="1"/>
        <pt x="644" y="205" on="0"/>
        <pt x="608" y="112" on="0"/>
        <pt x="523" y="37" on="0"/>
        <pt x="384" y="-9" on="0"/>
        <pt x="281" y="-9" on="1"/>
        <pt x="228" y="-9" on="0"/>
        <pt x="119" y="5" on="0"/>
        <pt x="75" y="16" on="1"/>
      </contour>
      <contour>
        <pt x="258" y="127" on="1"/>
        <pt x="271" y="125" on="0"/>
        <pt x="304" y="123" on="0"/>
        <pt x="321" y="123" on="1"/>
        <pt x="368" y="123" on="0"/>
        <pt x="431" y="144" on="0"/>
        <pt x="468" y="179" on="0"/>
        <pt x="484" y="222" on="0"/>
        <pt x="484" y="244" on="1"/>
        <pt x="484" y="262" on="0"/>
        <pt x="474" y="295" on="0"/>
        <pt x="448" y="321" on="0"/>
        <pt x="403" y="336" on="0"/>
        <pt x="369" y="336" on="1"/>
        <pt x="364" y="336" on="0"/>
        <pt x="326" y="335" on="0"/>
        <pt x="308" y="333" on="1"/>
      </contour>
    </TTGlyph>
    <TTGlyph name="afii10046" xMin="75" yMin="-9" xMax="644" yMax="693">
      <contour>
        <pt x="238" y="693" on="1"/>
        <pt x="394" y="693" on="1"/>
        <pt x="339" y="462" on="1"/>
        <pt x="346" y="463" on="0"/>
        <pt x="383" y="465" on="0"/>
        <pt x="394" y="465" on="1"/>
        <pt x="472" y="465" on="0"/>
        <pt x="569" y="429" on="0"/>
        <pt x="624" y="370" on="0"/>
        <pt x="644" y="294" on="0"/>
        <pt x="644" y="253" on="1"/>
        <pt x="644" y="205" on="0"/>
        <pt x="608" y="112" on="0"/>
        <pt x="523" y="37" on="0"/>
        <pt x="384" y="-9" on="0"/>
        <pt x="281" y="-9" on="1"/>
        <pt x="228" y="-9" on="0"/>
        <pt x="119" y="5" on="0"/>
        <pt x="75" y="16" on="1"/>
      </contour>
      <contour>
        <pt x="258" y="127" on="1"/>
        <pt x="271" y="125" on="0"/>
        <pt x="304" y="123" on="0"/>
        <pt x="321" y="123" on="1"/>
        <pt x="368" y="123" on="0"/>
        <pt x="431" y="144" on="0"/>
        <pt x="468" y="179" on="0"/>
        <pt x="484" y="222" on="0"/>
        <pt x="484" y="244" on="1"/>
        <pt x="484" y="262" on="0"/>
        <pt x="474" y="295" on="0"/>
        <pt x="448" y="321" on="0"/>
        <pt x="403" y="336" on="0"/>
        <pt x="369" y="336" on="1"/>
        <pt x="364" y="336" on="0"/>
        <pt x="326" y="335" on="0"/>
        <pt x="308" y="333" on="1"/>
      </contour>
    </TTGlyph>
    <TTGlyph name="afii10047" xMin="65" yMin="-14" xMax="690" yMax="709">
      <contour>
        <pt x="206" y="665" on="1"/>
        <pt x="254" y="685" on="0"/>
        <pt x="361" y="709" on="0"/>
        <pt x="415" y="709" on="1"/>
        <pt x="469" y="709" on="0"/>
        <pt x="568" y="681" on="0"/>
        <pt x="644" y="620" on="0"/>
        <pt x="690" y="521" on="0"/>
        <pt x="690" y="450" on="1"/>
        <pt x="690" y="326" on="0"/>
        <pt x="622" y="150" on="0"/>
        <pt x="507" y="38" on="0"/>
        <pt x="356" y="-14" on="0"/>
        <pt x="274" y="-14" on="1"/>
        <pt x="218" y="-14" on="0"/>
        <pt x="112" y="11" on="0"/>
        <pt x="65" y="36" on="1"/>
        <pt x="131" y="157" on="1"/>
        <pt x="173" y="135" on="0"/>
        <pt x="244" y="119" on="0"/>
        <pt x="282" y="119" on="1"/>
        <pt x="375" y="119" on="0"/>
        <pt x="491" y="210" on="0"/>
        <pt x="517" y="286" on="1"/>
        <pt x="240" y="286" on="1"/>
        <pt x="273" y="418" on="1"/>
        <pt x="539" y="418" on="1"/>
        <pt x="539" y="435" on="1"/>
        <pt x="539" y="474" on="0"/>
        <pt x="512" y="528" on="0"/>
        <pt x="467" y="560" on="0"/>
        <pt x="410" y="574" on="0"/>
        <pt x="380" y="574" on="1"/>
        <pt x="338" y="574" on="0"/>
        <pt x="251" y="553" on="0"/>
        <pt x="216" y="538" on="1"/>
      </contour>
    </TTGlyph>
    <TTGlyph name="afii10048" xMin="75" yMin="-14" xMax="1106" yMax="709">
      <contour>
        <pt x="713" y="-14" on="1"/>
        <pt x="652" y="-14" on="0"/>
        <pt x="550" y="26" on="0"/>
        <pt x="476" y="101" on="0"/>
        <pt x="435" y="209" on="0"/>
        <pt x="435" y="277" on="1"/>
        <pt x="435" y="295" on="1"/>
        <pt x="301" y="295" on="1"/>
        <pt x="230" y="0" on="1"/>
        <pt x="75" y="0" on="1"/>
        <pt x="240" y="693" on="1"/>
        <pt x="396" y="693" on="1"/>
        <pt x="332" y="427" on="1"/>
        <pt x="460" y="427" on="1"/>
        <pt x="479" y="484" on="0"/>
        <pt x="547" y="587" on="0"/>
        <pt x="640" y="664" on="0"/>
        <pt x="758" y="709" on="0"/>
        <pt x="828" y="709" on="1"/>
        <pt x="889" y="709" on="0"/>
        <pt x="991" y="669" on="0"/>
        <pt x="1065" y="594" on="0"/>
        <pt x="1106" y="486" on="0"/>
        <pt x="1106" y="418" on="1"/>
        <pt x="1106" y="340" on="0"/>
        <pt x="1053" y="185" on="0"/>
        <pt x="952" y="62" on="0"/>
        <pt x="806" y="-14" on="0"/>
      </contour>
      <contour>
        <pt x="812" y="575" on="1"/>
        <pt x="766" y="575" on="0"/>
        <pt x="687" y="527" on="0"/>
        <pt x="628" y="447" on="0"/>
        <pt x="595" y="343" on="0"/>
        <pt x="595" y="288" on="1"/>
        <pt x="595" y="213" on="0"/>
        <pt x="658" y="120" on="0"/>
        <pt x="729" y="120" on="1"/>
        <pt x="775" y="120" on="0"/>
        <pt x="854" y="168" on="0"/>
        <pt x="913" y="248" on="0"/>
        <pt x="946" y="351" on="0"/>
        <pt x="946" y="407" on="1"/>
        <pt x="946" y="482" on="0"/>
        <pt x="883" y="575" on="0"/>
      </contour>
    </TTGlyph>
    <TTGlyph name="afii10049" xMin="40" yMin="0" xMax="748" yMax="700">
      <contour>
        <pt x="565" y="565" on="1"/>
        <pt x="550" y="567" on="0"/>
        <pt x="520" y="569" on="0"/>
        <pt x="506" y="569" on="1"/>
        <pt x="475" y="569" on="0"/>
        <pt x="418" y="558" on="0"/>
        <pt x="374" y="532" on="0"/>
        <pt x="348" y="488" on="0"/>
        <pt x="348" y="454" on="1"/>
        <pt x="348" y="420" on="0"/>
        <pt x="395" y="378" on="0"/>
        <pt x="455" y="378" on="1"/>
        <pt x="520" y="378" on="1"/>
      </contour>
      <contour>
        <pt x="185" y="435" on="1"/>
        <pt x="185" y="511" on="0"/>
        <pt x="245" y="613" on="0"/>
        <pt x="344" y="675" on="0"/>
        <pt x="473" y="700" on="0"/>
        <pt x="542" y="700" on="1"/>
        <pt x="602" y="700" on="0"/>
        <pt x="700" y="688" on="0"/>
        <pt x="748" y="678" on="1"/>
        <pt x="585" y="0" on="1"/>
        <pt x="429" y="0" on="1"/>
        <pt x="489" y="249" on="1"/>
        <pt x="470" y="249" on="1"/>
        <pt x="457" y="249" on="0"/>
        <pt x="421" y="250" on="0"/>
        <pt x="403" y="252" on="1"/>
        <pt x="361" y="206" on="0"/>
        <pt x="256" y="75" on="0"/>
        <pt x="204" y="0" on="1"/>
        <pt x="40" y="0" on="1"/>
        <pt x="68" y="41" on="0"/>
        <pt x="129" y="123" on="0"/>
        <pt x="190" y="198" on="0"/>
        <pt x="246" y="261" on="0"/>
        <pt x="268" y="284" on="1"/>
        <pt x="220" y="317" on="0"/>
        <pt x="185" y="387" on="0"/>
      </contour>
    </TTGlyph>
    <TTGlyph name="afii10050" xMin="75" yMin="0" xMax="726" yMax="825">
      <contour>
        <pt x="230" y="0" on="1"/>
        <pt x="75" y="0" on="1"/>
        <pt x="241" y="693" on="1"/>
        <pt x="544" y="693" on="1"/>
        <pt x="576" y="825" on="1"/>
        <pt x="726" y="825" on="1"/>
        <pt x="662" y="561" on="1"/>
        <pt x="365" y="561" on="1"/>
      </contour>
    </TTGlyph>
    <TTGlyph name="afii10051" xMin="145" yMin="-7" xMax="795" yMax="693">
      <contour>
        <pt x="741" y="693" on="1"/>
        <pt x="709" y="560" on="1"/>
        <pt x="490" y="560" on="1"/>
        <pt x="458" y="428" on="1"/>
        <pt x="516" y="440" on="0"/>
        <pt x="567" y="440" on="1"/>
        <pt x="679" y="440" on="0"/>
        <pt x="795" y="333" on="0"/>
        <pt x="795" y="246" on="1"/>
        <pt x="795" y="184" on="0"/>
        <pt x="753" y="89" on="0"/>
        <pt x="678" y="25" on="0"/>
        <pt x="574" y="-7" on="0"/>
        <pt x="513" y="-7" on="1"/>
        <pt x="477" y="-7" on="0"/>
        <pt x="441" y="-1" on="1"/>
        <pt x="472" y="115" on="1"/>
        <pt x="481" y="113" on="0"/>
        <pt x="508" y="112" on="0"/>
        <pt x="521" y="112" on="1"/>
        <pt x="576" y="112" on="0"/>
        <pt x="644" y="176" on="0"/>
        <pt x="644" y="227" on="1"/>
        <pt x="644" y="252" on="0"/>
        <pt x="625" y="286" on="0"/>
        <pt x="593" y="305" on="0"/>
        <pt x="551" y="313" on="0"/>
        <pt x="529" y="313" on="1"/>
        <pt x="503" y="313" on="0"/>
        <pt x="449" y="306" on="0"/>
        <pt x="427" y="301" on="1"/>
        <pt x="355" y="0" on="1"/>
        <pt x="199" y="0" on="1"/>
        <pt x="334" y="560" on="1"/>
        <pt x="145" y="560" on="1"/>
        <pt x="177" y="693" on="1"/>
      </contour>
    </TTGlyph>
    <TTGlyph name="afii10052" xMin="75" yMin="0" xMax="674" yMax="959">
      <component glyphName="afii10020" x="0" y="0" flags="0x204"/>
      <component glyphName="acute" x="234" y="160" flags="0x4"/>
    </TTGlyph>
    <TTGlyph name="afii10053" xMin="123" yMin="-14" xMax="752" yMax="710">
      <contour>
        <pt x="688" y="536" on="1"/>
        <pt x="646" y="554" on="0"/>
        <pt x="563" y="574" on="0"/>
        <pt x="525" y="574" on="1"/>
        <pt x="450" y="574" on="0"/>
        <pt x="336" y="499" on="0"/>
        <pt x="308" y="418" on="1"/>
        <pt x="585" y="418" on="1"/>
        <pt x="553" y="286" on="1"/>
        <pt x="282" y="286" on="1"/>
        <pt x="282" y="239" on="0"/>
        <pt x="307" y="176" on="0"/>
        <pt x="350" y="138" on="0"/>
        <pt x="407" y="122" on="0"/>
        <pt x="440" y="122" on="1"/>
        <pt x="486" y="122" on="0"/>
        <pt x="584" y="147" on="0"/>
        <pt x="627" y="166" on="1"/>
        <pt x="647" y="37" on="1"/>
        <pt x="581" y="11" on="0"/>
        <pt x="472" y="-14" on="0"/>
        <pt x="412" y="-14" on="1"/>
        <pt x="271" y="-14" on="0"/>
        <pt x="123" y="141" on="0"/>
        <pt x="123" y="289" on="1"/>
        <pt x="123" y="363" on="0"/>
        <pt x="173" y="513" on="0"/>
        <pt x="276" y="634" on="0"/>
        <pt x="436" y="710" on="0"/>
        <pt x="546" y="710" on="1"/>
        <pt x="597" y="710" on="0"/>
        <pt x="701" y="686" on="0"/>
        <pt x="752" y="660" on="1"/>
      </contour>
    </TTGlyph>
    <TTGlyph name="afii10054" xMin="40" yMin="-14" xMax="629" yMax="709">
      <component glyphName="S" x="0" y="0" flags="0x204"/>
    </TTGlyph>
    <TTGlyph name="afii10055" xMin="75" yMin="0" xMax="397" yMax="693">
      <component glyphName="I" x="0" y="0" flags="0x204"/>
    </TTGlyph>
    <TTGlyph name="afii10056" xMin="75" yMin="0" xMax="538" yMax="914">
      <component glyphName="I" x="0" y="0" flags="0x204"/>
      <component glyphName="dieresis" x="-64" y="160" flags="0x4"/>
    </TTGlyph>
    <TTGlyph name="afii10057" xMin="20" yMin="-14" xMax="601" yMax="693">
      <component glyphName="J" x="0" y="0" flags="0x204"/>
    </TTGlyph>
    <TTGlyph name="afii10058" xMin="40" yMin="-14" xMax="1054" yMax="693">
      <contour>
        <pt x="465" y="561" on="1"/>
        <pt x="432" y="422" on="0"/>
        <pt x="367" y="212" on="0"/>
        <pt x="278" y="69" on="0"/>
        <pt x="151" y="-8" on="0"/>
        <pt x="55" y="-14" on="1"/>
        <pt x="40" y="122" on="1"/>
        <pt x="90" y="126" on="0"/>
        <pt x="165" y="175" on="0"/>
        <pt x="222" y="255" on="0"/>
        <pt x="265" y="362" on="0"/>
        <pt x="301" y="486" on="0"/>
        <pt x="332" y="623" on="0"/>
        <pt x="349" y="693" on="1"/>
        <pt x="801" y="693" on="1"/>
        <pt x="742" y="447" on="1"/>
        <pt x="793" y="447" on="1"/>
        <pt x="865" y="447" on="0"/>
        <pt x="965" y="422" on="0"/>
        <pt x="1026" y="372" on="0"/>
        <pt x="1054" y="300" on="0"/>
        <pt x="1054" y="253" on="1"/>
        <pt x="1054" y="178" on="0"/>
        <pt x="991" y="78" on="0"/>
        <pt x="888" y="18" on="0"/>
        <pt x="757" y="-7" on="0"/>
        <pt x="690" y="-7" on="1"/>
        <pt x="637" y="-7" on="0"/>
        <pt x="528" y="5" on="0"/>
        <pt x="484" y="16" on="1"/>
        <pt x="615" y="561" on="1"/>
      </contour>
      <contour>
        <pt x="668" y="128" on="1"/>
        <pt x="681" y="126" on="0"/>
        <pt x="712" y="124" on="0"/>
        <pt x="729" y="124" on="1"/>
        <pt x="779" y="124" on="0"/>
        <pt x="843" y="144" on="0"/>
        <pt x="879" y="177" on="0"/>
        <pt x="893" y="217" on="0"/>
        <pt x="893" y="238" on="1"/>
        <pt x="893" y="255" on="0"/>
        <pt x="881" y="285" on="0"/>
        <pt x="853" y="306" on="0"/>
        <pt x="804" y="318" on="0"/>
        <pt x="768" y="318" on="1"/>
        <pt x="713" y="318" on="1"/>
      </contour>
    </TTGlyph>
    <TTGlyph name="afii10059" xMin="75" yMin="-7" xMax="1050" yMax="693">
      <contour>
        <pt x="738" y="447" on="1"/>
        <pt x="789" y="447" on="1"/>
        <pt x="861" y="447" on="0"/>
        <pt x="961" y="422" on="0"/>
        <pt x="1022" y="372" on="0"/>
        <pt x="1050" y="300" on="0"/>
        <pt x="1050" y="253" on="1"/>
        <pt x="1050" y="178" on="0"/>
        <pt x="987" y="78" on="0"/>
        <pt x="884" y="18" on="0"/>
        <pt x="753" y="-7" on="0"/>
        <pt x="686" y="-7" on="1"/>
        <pt x="633" y="-7" on="0"/>
        <pt x="524" y="5" on="0"/>
        <pt x="480" y="16" on="1"/>
        <pt x="547" y="295" on="1"/>
        <pt x="301" y="295" on="1"/>
        <pt x="230" y="0" on="1"/>
        <pt x="75" y="0" on="1"/>
        <pt x="241" y="693" on="1"/>
        <pt x="397" y="693" on="1"/>
        <pt x="333" y="427" on="1"/>
        <pt x="579" y="427" on="1"/>
        <pt x="643" y="693" on="1"/>
        <pt x="797" y="693" on="1"/>
      </contour>
      <contour>
        <pt x="664" y="128" on="1"/>
        <pt x="677" y="126" on="0"/>
        <pt x="708" y="124" on="0"/>
        <pt x="725" y="124" on="1"/>
        <pt x="775" y="124" on="0"/>
        <pt x="839" y="144" on="0"/>
        <pt x="875" y="177" on="0"/>
        <pt x="889" y="217" on="0"/>
        <pt x="889" y="238" on="1"/>
        <pt x="889" y="255" on="0"/>
        <pt x="877" y="285" on="0"/>
        <pt x="849" y="306" on="0"/>
        <pt x="800" y="318" on="0"/>
        <pt x="764" y="318" on="1"/>
        <pt x="709" y="318" on="1"/>
      </contour>
    </TTGlyph>
    <TTGlyph name="afii10060" xMin="145" yMin="0" xMax="759" yMax="693">
      <contour>
        <pt x="741" y="693" on="1"/>
        <pt x="709" y="560" on="1"/>
        <pt x="490" y="560" on="1"/>
        <pt x="458" y="429" on="1"/>
        <pt x="482" y="435" on="0"/>
        <pt x="536" y="442" on="0"/>
        <pt x="562" y="442" on="1"/>
        <pt x="656" y="442" on="0"/>
        <pt x="759" y="353" on="0"/>
        <pt x="759" y="272" on="1"/>
        <pt x="759" y="239" on="0"/>
        <pt x="750" y="200" on="1"/>
        <pt x="701" y="0" on="1"/>
        <pt x="545" y="0" on="1"/>
        <pt x="595" y="206" on="1"/>
        <pt x="598" y="217" on="0"/>
        <pt x="600" y="237" on="0"/>
        <pt x="600" y="245" on="1"/>
        <pt x="600" y="285" on="0"/>
        <pt x="547" y="310" on="0"/>
        <pt x="506" y="310" on="1"/>
        <pt x="485" y="310" on="0"/>
        <pt x="444" y="304" on="0"/>
        <pt x="427" y="299" on="1"/>
        <pt x="355" y="0" on="1"/>
        <pt x="199" y="0" on="1"/>
        <pt x="334" y="560" on="1"/>
        <pt x="145" y="560" on="1"/>
        <pt x="177" y="693" on="1"/>
      </contour>
    </TTGlyph>
    <TTGlyph name="afii10061" xMin="75" yMin="0" xMax="797" yMax="959">
      <component glyphName="K" x="0" y="0" flags="0x204"/>
      <component glyphName="acute" x="282" y="160" flags="0x4"/>
    </TTGlyph>
    <TTGlyph name="afii10062" xMin="60" yMin="-14" xMax="780" yMax="920">
      <component glyphName="afii10037" x="0" y="0" flags="0x204"/>
      <component glyphName="kratka" x="148" y="153" flags="0x4"/>
    </TTGlyph>
    <TTGlyph name="afii10065" xMin="100" yMin="-14" xMax="628" yMax="538">
      <component glyphName="a" x="0" y="0" flags="0x204"/>
    </TTGlyph>
    <TTGlyph name="afii10066" xMin="110" yMin="-14" xMax="659" yMax="776">
      <contour>
        <pt x="653" y="649" on="1"/>
        <pt x="608" y="639" on="0"/>
        <pt x="511" y="633" on="0"/>
        <pt x="420" y="610" on="0"/>
        <pt x="341" y="552" on="0"/>
        <pt x="315" y="490" on="1"/>
        <pt x="368" y="512" on="0"/>
        <pt x="423" y="512" on="1"/>
        <pt x="457" y="512" on="0"/>
        <pt x="522" y="492" on="0"/>
        <pt x="572" y="447" on="0"/>
        <pt x="602" y="375" on="0"/>
        <pt x="602" y="324" on="1"/>
        <pt x="602" y="244" on="0"/>
        <pt x="554" y="118" on="0"/>
        <pt x="471" y="31" on="0"/>
        <pt x="362" y="-14" on="0"/>
        <pt x="302" y="-14" on="1"/>
        <pt x="259" y="-14" on="0"/>
        <pt x="188" y="10" on="0"/>
        <pt x="138" y="63" on="0"/>
        <pt x="110" y="145" on="0"/>
        <pt x="110" y="203" on="1"/>
        <pt x="110" y="242" on="0"/>
        <pt x="121" y="322" on="0"/>
        <pt x="139" y="398" on="0"/>
        <pt x="159" y="467" on="0"/>
        <pt x="168" y="494" on="1"/>
        <pt x="205" y="605" on="0"/>
        <pt x="376" y="737" on="0"/>
        <pt x="519" y="754" on="1"/>
        <pt x="554" y="759" on="0"/>
        <pt x="623" y="767" on="0"/>
        <pt x="659" y="776" on="1"/>
      </contour>
      <contour>
        <pt x="384" y="391" on="1"/>
        <pt x="358" y="391" on="0"/>
        <pt x="300" y="373" on="0"/>
        <pt x="273" y="359" on="1"/>
        <pt x="263" y="321" on="0"/>
        <pt x="250" y="248" on="0"/>
        <pt x="250" y="219" on="1"/>
        <pt x="250" y="159" on="0"/>
        <pt x="287" y="112" on="0"/>
        <pt x="324" y="112" on="1"/>
        <pt x="349" y="112" on="0"/>
        <pt x="399" y="139" on="0"/>
        <pt x="439" y="188" on="0"/>
        <pt x="463" y="258" on="0"/>
        <pt x="463" y="301" on="1"/>
        <pt x="463" y="351" on="0"/>
        <pt x="418" y="391" on="0"/>
      </contour>
    </TTGlyph>
    <TTGlyph name="afii10066.locl" xMin="90" yMin="-14" xMax="624" yMax="776">
      <contour>
        <pt x="365" y="411" on="1"/>
        <pt x="298" y="375" on="0"/>
        <pt x="234" y="272" on="0"/>
        <pt x="234" y="215" on="1"/>
        <pt x="234" y="162" on="0"/>
        <pt x="286" y="113" on="0"/>
        <pt x="320" y="113" on="1"/>
        <pt x="342" y="113" on="0"/>
        <pt x="386" y="132" on="0"/>
        <pt x="421" y="169" on="0"/>
        <pt x="443" y="223" on="0"/>
        <pt x="443" y="258" on="1"/>
        <pt x="443" y="296" on="0"/>
        <pt x="409" y="368" on="0"/>
      </contour>
      <contour>
        <pt x="592" y="276" on="1"/>
        <pt x="592" y="207" on="0"/>
        <pt x="541" y="99" on="0"/>
        <pt x="458" y="25" on="0"/>
        <pt x="353" y="-14" on="0"/>
        <pt x="299" y="-14" on="1"/>
        <pt x="258" y="-14" on="0"/>
        <pt x="182" y="11" on="0"/>
        <pt x="124" y="64" on="0"/>
        <pt x="90" y="144" on="0"/>
        <pt x="90" y="199" on="1"/>
        <pt x="90" y="296" on="0"/>
        <pt x="198" y="441" on="0"/>
        <pt x="285" y="487" on="1"/>
        <pt x="238" y="548" on="0"/>
        <pt x="238" y="606" on="1"/>
        <pt x="238" y="639" on="0"/>
        <pt x="260" y="698" on="0"/>
        <pt x="309" y="744" on="0"/>
        <pt x="389" y="771" on="0"/>
        <pt x="446" y="771" on="1"/>
        <pt x="462" y="771" on="0"/>
        <pt x="506" y="771" on="0"/>
        <pt x="555" y="772" on="0"/>
        <pt x="603" y="774" on="0"/>
        <pt x="624" y="776" on="1"/>
        <pt x="604" y="662" on="1"/>
        <pt x="592" y="660" on="0"/>
        <pt x="567" y="657" on="0"/>
        <pt x="534" y="655" on="0"/>
        <pt x="490" y="654" on="0"/>
        <pt x="460" y="654" on="1"/>
        <pt x="421" y="654" on="0"/>
        <pt x="380" y="640" on="0"/>
        <pt x="380" y="609" on="1"/>
        <pt x="380" y="590" on="0"/>
        <pt x="411" y="555" on="0"/>
        <pt x="459" y="517" on="0"/>
        <pt x="513" y="472" on="0"/>
        <pt x="561" y="411" on="0"/>
        <pt x="592" y="330" on="0"/>
      </contour>
    </TTGlyph>
    <TTGlyph name="afii10067" xMin="65" yMin="-11" xMax="582" yMax="537">
      <contour>
        <pt x="232" y="110" on="1"/>
        <pt x="246" y="107" on="0"/>
        <pt x="285" y="104" on="0"/>
        <pt x="299" y="104" on="1"/>
        <pt x="320" y="104" on="0"/>
        <pt x="361" y="111" on="0"/>
        <pt x="394" y="127" on="0"/>
        <pt x="415" y="156" on="0"/>
        <pt x="415" y="177" on="1"/>
        <pt x="415" y="201" on="0"/>
        <pt x="369" y="220" on="0"/>
        <pt x="326" y="220" on="1"/>
        <pt x="259" y="220" on="1"/>
      </contour>
      <contour>
        <pt x="339" y="320" on="1"/>
        <pt x="397" y="320" on="0"/>
        <pt x="443" y="356" on="0"/>
        <pt x="443" y="376" on="1"/>
        <pt x="443" y="399" on="0"/>
        <pt x="411" y="422" on="0"/>
        <pt x="390" y="422" on="1"/>
        <pt x="342" y="422" on="0"/>
        <pt x="297" y="376" on="0"/>
        <pt x="287" y="336" on="1"/>
        <pt x="283" y="320" on="1"/>
      </contour>
      <contour>
        <pt x="137" y="320" on="1"/>
        <pt x="151" y="378" on="0"/>
        <pt x="201" y="460" on="0"/>
        <pt x="269" y="513" on="0"/>
        <pt x="351" y="537" on="0"/>
        <pt x="398" y="537" on="1"/>
        <pt x="483" y="537" on="0"/>
        <pt x="582" y="465" on="0"/>
        <pt x="582" y="405" on="1"/>
        <pt x="582" y="363" on="0"/>
        <pt x="527" y="286" on="0"/>
        <pt x="479" y="271" on="1"/>
        <pt x="516" y="258" on="0"/>
        <pt x="556" y="199" on="0"/>
        <pt x="556" y="163" on="1"/>
        <pt x="556" y="133" on="0"/>
        <pt x="530" y="71" on="0"/>
        <pt x="465" y="21" on="0"/>
        <pt x="354" y="-11" on="0"/>
        <pt x="270" y="-11" on="1"/>
        <pt x="222" y="-11" on="0"/>
        <pt x="122" y="3" on="0"/>
        <pt x="65" y="18" on="1"/>
      </contour>
    </TTGlyph>
    <TTGlyph name="afii10068" xMin="79" yMin="-14" xMax="531" yMax="540">
      <component glyphName="uni01A8" x="0" y="0" flags="0x204"/>
    </TTGlyph>
    <TTGlyph name="afii10068.locl.ita" xMin="70" yMin="0" xMax="480" yMax="725">
      <component glyphName="macron" x="-38" y="0" flags="0x4"/>
      <component glyphName="dotlessi" x="0" y="0" flags="0x4"/>
    </TTGlyph>
    <TTGlyph name="afii10069" xMin="100" yMin="-14" xMax="607" yMax="776">
      <contour>
        <pt x="317" y="650" on="1"/>
        <pt x="265" y="650" on="0"/>
        <pt x="210" y="628" on="1"/>
        <pt x="198" y="754" on="1"/>
        <pt x="233" y="765" on="0"/>
        <pt x="301" y="776" on="0"/>
        <pt x="333" y="776" on="1"/>
        <pt x="393" y="776" on="0"/>
        <pt x="494" y="744" on="0"/>
        <pt x="566" y="669" on="0"/>
        <pt x="607" y="546" on="0"/>
        <pt x="607" y="454" on="1"/>
        <pt x="607" y="331" on="0"/>
        <pt x="560" y="154" on="0"/>
        <pt x="477" y="40" on="0"/>
        <pt x="363" y="-14" on="0"/>
        <pt x="296" y="-14" on="1"/>
        <pt x="198" y="-14" on="0"/>
        <pt x="100" y="99" on="0"/>
        <pt x="100" y="195" on="1"/>
        <pt x="100" y="266" on="0"/>
        <pt x="144" y="383" on="0"/>
        <pt x="219" y="467" on="0"/>
        <pt x="321" y="513" on="0"/>
        <pt x="379" y="513" on="1"/>
        <pt x="400" y="513" on="0"/>
        <pt x="444" y="507" on="0"/>
        <pt x="467" y="500" on="1"/>
        <pt x="464" y="547" on="0"/>
        <pt x="439" y="605" on="0"/>
        <pt x="400" y="638" on="0"/>
        <pt x="348" y="650" on="0"/>
      </contour>
      <contour>
        <pt x="393" y="394" on="1"/>
        <pt x="357" y="394" on="0"/>
        <pt x="299" y="362" on="0"/>
        <pt x="260" y="305" on="0"/>
        <pt x="239" y="228" on="0"/>
        <pt x="239" y="184" on="1"/>
        <pt x="239" y="158" on="0"/>
        <pt x="272" y="114" on="0"/>
        <pt x="312" y="114" on="1"/>
        <pt x="338" y="114" on="0"/>
        <pt x="388" y="141" on="0"/>
        <pt x="430" y="202" on="0"/>
        <pt x="459" y="303" on="0"/>
        <pt x="465" y="378" on="1"/>
        <pt x="427" y="394" on="0"/>
      </contour>
    </TTGlyph>
    <TTGlyph name="afii10069.locl.ita" xMin="33" yMin="-188" xMax="627" yMax="540">
      <component glyphName="g" x="0" y="0" flags="0x204"/>
    </TTGlyph>
    <TTGlyph name="afii10070" xMin="100" yMin="-14" xMax="580" yMax="540">
      <component glyphName="e" x="0" y="0" flags="0x204"/>
    </TTGlyph>
    <TTGlyph name="afii10071" xMin="100" yMin="-14" xMax="637" yMax="754">
      <component glyphName="e" x="0" y="0" flags="0x204"/>
      <component glyphName="dieresis" x="35" y="0" flags="0x4"/>
    </TTGlyph>
    <TTGlyph name="afii10072" xMin="20" yMin="-14" xMax="1013" yMax="540">
      <contour>
        <pt x="923" y="9" on="1"/>
        <pt x="894" y="-3" on="0"/>
        <pt x="841" y="-14" on="0"/>
        <pt x="817" y="-14" on="1"/>
        <pt x="747" y="-14" on="0"/>
        <pt x="660" y="81" on="0"/>
        <pt x="660" y="178" on="1"/>
        <pt x="660" y="186" on="0"/>
        <pt x="660" y="200" on="0"/>
        <pt x="661" y="208" on="1"/>
        <pt x="574" y="208" on="1"/>
        <pt x="524" y="0" on="1"/>
        <pt x="384" y="0" on="1"/>
        <pt x="433" y="208" on="1"/>
        <pt x="357" y="208" on="1"/>
        <pt x="332" y="103" on="0"/>
        <pt x="210" y="-14" on="0"/>
        <pt x="122" y="-14" on="1"/>
        <pt x="90" y="-14" on="0"/>
        <pt x="46" y="-4" on="0"/>
        <pt x="20" y="9" on="1"/>
        <pt x="60" y="127" on="1"/>
        <pt x="90" y="112" on="0"/>
        <pt x="116" y="112" on="1"/>
        <pt x="150" y="112" on="0"/>
        <pt x="201" y="149" on="0"/>
        <pt x="234" y="210" on="0"/>
        <pt x="250" y="290" on="0"/>
        <pt x="250" y="333" on="1"/>
        <pt x="250" y="372" on="0"/>
        <pt x="224" y="414" on="0"/>
        <pt x="195" y="414" on="1"/>
        <pt x="174" y="414" on="0"/>
        <pt x="144" y="402" on="1"/>
        <pt x="136" y="517" on="1"/>
        <pt x="191" y="540" on="0"/>
        <pt x="235" y="540" on="1"/>
        <pt x="298" y="540" on="0"/>
        <pt x="373" y="445" on="0"/>
        <pt x="373" y="348" on="1"/>
        <pt x="373" y="340" on="0"/>
        <pt x="373" y="327" on="0"/>
        <pt x="372" y="320" on="1"/>
        <pt x="460" y="320" on="1"/>
        <pt x="509" y="526" on="1"/>
        <pt x="650" y="526" on="1"/>
        <pt x="601" y="320" on="1"/>
        <pt x="677" y="320" on="1"/>
        <pt x="705" y="424" on="0"/>
        <pt x="831" y="540" on="0"/>
        <pt x="911" y="540" on="1"/>
        <pt x="943" y="540" on="0"/>
        <pt x="987" y="528" on="0"/>
        <pt x="1013" y="515" on="1"/>
        <pt x="973" y="399" on="1"/>
        <pt x="943" y="414" on="0"/>
        <pt x="917" y="414" on="1"/>
        <pt x="883" y="414" on="0"/>
        <pt x="832" y="372" on="0"/>
        <pt x="799" y="308" on="0"/>
        <pt x="783" y="229" on="0"/>
        <pt x="783" y="193" on="1"/>
        <pt x="783" y="148" on="0"/>
        <pt x="817" y="112" on="0"/>
        <pt x="844" y="112" on="1"/>
        <pt x="860" y="112" on="0"/>
        <pt x="896" y="120" on="0"/>
        <pt x="916" y="126" on="1"/>
      </contour>
    </TTGlyph>
    <TTGlyph name="afii10073" xMin="40" yMin="-14" xMax="502" yMax="538">
      <contour>
        <pt x="150" y="509" on="1"/>
        <pt x="191" y="523" on="0"/>
        <pt x="281" y="538" on="0"/>
        <pt x="323" y="538" on="1"/>
        <pt x="369" y="538" on="0"/>
        <pt x="436" y="517" on="0"/>
        <pt x="480" y="482" on="0"/>
        <pt x="502" y="436" on="0"/>
        <pt x="502" y="411" on="1"/>
        <pt x="502" y="373" on="0"/>
        <pt x="452" y="298" on="0"/>
        <pt x="404" y="275" on="1"/>
        <pt x="436" y="259" on="0"/>
        <pt x="470" y="203" on="0"/>
        <pt x="470" y="170" on="1"/>
        <pt x="470" y="121" on="0"/>
        <pt x="425" y="51" on="0"/>
        <pt x="351" y="7" on="0"/>
        <pt x="259" y="-14" on="0"/>
        <pt x="211" y="-14" on="1"/>
        <pt x="163" y="-14" on="0"/>
        <pt x="74" y="6" on="0"/>
        <pt x="40" y="23" on="1"/>
        <pt x="84" y="138" on="1"/>
        <pt x="106" y="125" on="0"/>
        <pt x="180" y="108" on="0"/>
        <pt x="218" y="108" on="1"/>
        <pt x="239" y="108" on="0"/>
        <pt x="277" y="114" on="0"/>
        <pt x="306" y="129" on="0"/>
        <pt x="323" y="152" on="0"/>
        <pt x="323" y="169" on="1"/>
        <pt x="323" y="195" on="0"/>
        <pt x="281" y="212" on="0"/>
        <pt x="252" y="212" on="1"/>
        <pt x="165" y="212" on="1"/>
        <pt x="190" y="318" on="1"/>
        <pt x="278" y="318" on="1"/>
        <pt x="320" y="318" on="0"/>
        <pt x="356" y="355" on="0"/>
        <pt x="356" y="378" on="1"/>
        <pt x="356" y="400" on="0"/>
        <pt x="316" y="416" on="0"/>
        <pt x="287" y="416" on="1"/>
        <pt x="269" y="416" on="0"/>
        <pt x="229" y="411" on="0"/>
        <pt x="194" y="405" on="0"/>
        <pt x="165" y="398" on="0"/>
        <pt x="158" y="396" on="1"/>
      </contour>
    </TTGlyph>
    <TTGlyph name="afii10074" xMin="99" yMin="-12" xMax="621" yMax="526">
      <component glyphName="u" x="0" y="0" flags="0x204"/>
    </TTGlyph>
    <TTGlyph name="afii10075" xMin="99" yMin="-12" xMax="621" yMax="767">
      <component glyphName="u" x="0" y="0" flags="0x204"/>
      <component glyphName="kratka" x="70" y="0" flags="0x4"/>
    </TTGlyph>
    <TTGlyph name="afii10076" xMin="70" yMin="0" xMax="679" yMax="526">
      <component glyphName="kappa" x="0" y="0" flags="0x204"/>
    </TTGlyph>
    <TTGlyph name="afii10077" xMin="50" yMin="-9" xMax="665" yMax="526">
      <contour>
        <pt x="384" y="404" on="1"/>
        <pt x="356" y="299" on="0"/>
        <pt x="306" y="147" on="0"/>
        <pt x="236" y="46" on="0"/>
        <pt x="132" y="-5" on="0"/>
        <pt x="50" y="-9" on="1"/>
        <pt x="50" y="115" on="1"/>
        <pt x="95" y="117" on="0"/>
        <pt x="156" y="155" on="0"/>
        <pt x="176" y="187" on="1"/>
        <pt x="204" y="231" on="0"/>
        <pt x="233" y="353" on="0"/>
        <pt x="247" y="418" on="1"/>
        <pt x="270" y="526" on="1"/>
        <pt x="665" y="526" on="1"/>
        <pt x="538" y="0" on="1"/>
        <pt x="389" y="0" on="1"/>
        <pt x="486" y="404" on="1"/>
      </contour>
    </TTGlyph>
    <TTGlyph name="afii10078" xMin="50" yMin="0" xMax="738" yMax="526">
      <contour>
        <pt x="277" y="313" on="1"/>
        <pt x="266" y="278" on="0"/>
        <pt x="243" y="198" on="0"/>
        <pt x="220" y="115" on="0"/>
        <pt x="198" y="34" on="0"/>
        <pt x="189" y="0" on="1"/>
        <pt x="50" y="0" on="1"/>
        <pt x="65" y="56" on="0"/>
        <pt x="107" y="194" on="0"/>
        <pt x="152" y="336" on="0"/>
        <pt x="198" y="472" on="0"/>
        <pt x="218" y="526" on="1"/>
        <pt x="341" y="526" on="1"/>
        <pt x="350" y="488" on="0"/>
        <pt x="365" y="418" on="0"/>
        <pt x="378" y="344" on="0"/>
        <pt x="393" y="263" on="0"/>
        <pt x="402" y="214" on="1"/>
        <pt x="435" y="266" on="0"/>
        <pt x="492" y="353" on="0"/>
        <pt x="544" y="428" on="0"/>
        <pt x="592" y="495" on="0"/>
        <pt x="615" y="526" on="1"/>
        <pt x="738" y="526" on="1"/>
        <pt x="733" y="470" on="0"/>
        <pt x="721" y="344" on="0"/>
        <pt x="704" y="210" on="0"/>
        <pt x="681" y="70" on="0"/>
        <pt x="665" y="0" on="1"/>
        <pt x="517" y="0" on="1"/>
        <pt x="526" y="36" on="0"/>
        <pt x="545" y="114" on="0"/>
        <pt x="564" y="194" on="0"/>
        <pt x="582" y="273" on="0"/>
        <pt x="589" y="309" on="1"/>
        <pt x="423" y="62" on="1"/>
        <pt x="324" y="62" on="1"/>
      </contour>
    </TTGlyph>
    <TTGlyph name="afii10079" xMin="70" yMin="0" xMax="650" yMax="526">
      <contour>
        <pt x="523" y="0" on="1"/>
        <pt x="374" y="0" on="1"/>
        <pt x="424" y="208" on="1"/>
        <pt x="269" y="208" on="1"/>
        <pt x="219" y="0" on="1"/>
        <pt x="70" y="0" on="1"/>
        <pt x="197" y="526" on="1"/>
        <pt x="346" y="526" on="1"/>
        <pt x="299" y="330" on="1"/>
        <pt x="454" y="330" on="1"/>
        <pt x="501" y="526" on="1"/>
        <pt x="650" y="526" on="1"/>
      </contour>
    </TTGlyph>
    <TTGlyph name="afii10080" xMin="100" yMin="-14" xMax="604" yMax="540">
      <component glyphName="o" x="0" y="0" flags="0x204"/>
    </TTGlyph>
    <TTGlyph name="afii10081" xMin="70" yMin="0" xMax="609" yMax="538">
      <component glyphName="n" x="0" y="0" flags="0x204"/>
    </TTGlyph>
    <TTGlyph name="afii10081.locl.ita" xMin="99" yMin="-12" xMax="667" yMax="725">
      <contour>
        <pt x="621" y="526" on="1"/>
        <pt x="550" y="227" on="1"/>
        <pt x="536" y="170" on="0"/>
        <pt x="548" y="54" on="0"/>
        <pt x="565" y="10" on="1"/>
        <pt x="432" y="-9" on="1"/>
        <pt x="426" y="3" on="0"/>
        <pt x="416" y="26" on="0"/>
        <pt x="411" y="40" on="1"/>
        <pt x="383" y="18" on="0"/>
        <pt x="313" y="-12" on="0"/>
        <pt x="270" y="-12" on="1"/>
        <pt x="211" y="-12" on="0"/>
        <pt x="138" y="31" on="0"/>
        <pt x="102" y="102" on="0"/>
        <pt x="99" y="194" on="0"/>
        <pt x="111" y="242" on="1"/>
        <pt x="179" y="526" on="1"/>
        <pt x="328" y="526" on="1"/>
        <pt x="261" y="244" on="1"/>
        <pt x="256" y="222" on="0"/>
        <pt x="249" y="176" on="0"/>
        <pt x="255" y="137" on="0"/>
        <pt x="280" y="112" on="0"/>
        <pt x="307" y="112" on="1"/>
        <pt x="330" y="112" on="0"/>
        <pt x="369" y="129" on="0"/>
        <pt x="391" y="150" on="1"/>
        <pt x="393" y="175" on="0"/>
        <pt x="402" y="230" on="0"/>
        <pt x="407" y="253" on="1"/>
        <pt x="472" y="526" on="1"/>
      </contour>
      <contour>
        <pt x="223" y="725" on="1"/>
        <pt x="667" y="725" on="1"/>
        <pt x="642" y="623" on="1"/>
        <pt x="198" y="623" on="1"/>
      </contour>
    </TTGlyph>
    <TTGlyph name="afii10082" xMin="25" yMin="-185" xMax="608" yMax="538">
      <component glyphName="p" x="0" y="0" flags="0x204"/>
    </TTGlyph>
    <TTGlyph name="afii10083" xMin="100" yMin="-14" xMax="560" yMax="540">
      <component glyphName="c" x="0" y="0" flags="0x204"/>
    </TTGlyph>
    <TTGlyph name="afii10084" xMin="70" yMin="0" xMax="871" yMax="538">
      <component glyphName="m" x="0" y="0" flags="0x204"/>
    </TTGlyph>
    <TTGlyph name="afii10084.locl.ita" xMin="100" yMin="-12" xMax="943" yMax="725">
      <contour>
        <pt x="834" y="243" on="1"/>
        <pt x="821" y="190" on="0"/>
        <pt x="821" y="140" on="1"/>
        <pt x="821" y="76" on="0"/>
        <pt x="845" y="10" on="1"/>
        <pt x="712" y="-9" on="1"/>
        <pt x="691" y="40" on="1"/>
        <pt x="663" y="17" on="0"/>
        <pt x="594" y="-12" on="0"/>
        <pt x="558" y="-12" on="1"/>
        <pt x="527" y="-12" on="0"/>
        <pt x="466" y="11" on="0"/>
        <pt x="437" y="36" on="1"/>
        <pt x="400" y="15" on="0"/>
        <pt x="327" y="-12" on="0"/>
        <pt x="278" y="-12" on="1"/>
        <pt x="231" y="-12" on="0"/>
        <pt x="164" y="13" on="0"/>
        <pt x="120" y="60" on="0"/>
        <pt x="100" y="125" on="0"/>
        <pt x="100" y="164" on="1"/>
        <pt x="100" y="182" on="0"/>
        <pt x="105" y="222" on="0"/>
        <pt x="110" y="242" on="1"/>
        <pt x="178" y="526" on="1"/>
        <pt x="327" y="526" on="1"/>
        <pt x="261" y="248" on="1"/>
        <pt x="257" y="234" on="0"/>
        <pt x="251" y="199" on="0"/>
        <pt x="251" y="182" on="1"/>
        <pt x="251" y="154" on="0"/>
        <pt x="277" y="113" on="0"/>
        <pt x="315" y="113" on="1"/>
        <pt x="336" y="113" on="0"/>
        <pt x="374" y="128" on="0"/>
        <pt x="389" y="136" on="1"/>
        <pt x="387" y="144" on="0"/>
        <pt x="387" y="158" on="0"/>
        <pt x="387" y="164" on="1"/>
        <pt x="387" y="182" on="0"/>
        <pt x="392" y="222" on="0"/>
        <pt x="397" y="242" on="1"/>
        <pt x="465" y="526" on="1"/>
        <pt x="614" y="526" on="1"/>
        <pt x="548" y="248" on="1"/>
        <pt x="544" y="234" on="0"/>
        <pt x="538" y="199" on="0"/>
        <pt x="538" y="182" on="1"/>
        <pt x="538" y="154" on="0"/>
        <pt x="563" y="114" on="0"/>
        <pt x="601" y="114" on="1"/>
        <pt x="617" y="114" on="0"/>
        <pt x="654" y="132" on="0"/>
        <pt x="671" y="149" on="1"/>
        <pt x="671" y="152" on="0"/>
        <pt x="674" y="174" on="0"/>
        <pt x="677" y="203" on="0"/>
        <pt x="682" y="234" on="0"/>
        <pt x="685" y="246" on="1"/>
        <pt x="752" y="526" on="1"/>
        <pt x="901" y="526" on="1"/>
      </contour>
      <contour>
        <pt x="219" y="725" on="1"/>
        <pt x="943" y="725" on="1"/>
        <pt x="918" y="623" on="1"/>
        <pt x="194" y="623" on="1"/>
      </contour>
    </TTGlyph>
    <TTGlyph name="afii10085" xMin="-25" yMin="-185" xMax="632" yMax="526">
      <component glyphName="y" x="0" y="0" flags="0x204"/>
    </TTGlyph>
    <TTGlyph name="afii10086" xMin="100" yMin="-185" xMax="798" yMax="776">
      <contour>
        <pt x="100" y="225" on="1"/>
        <pt x="100" y="297" on="0"/>
        <pt x="156" y="408" on="0"/>
        <pt x="250" y="486" on="0"/>
        <pt x="375" y="531" on="0"/>
        <pt x="444" y="537" on="1"/>
        <pt x="496" y="751" on="1"/>
        <pt x="647" y="776" on="1"/>
        <pt x="588" y="531" on="1"/>
        <pt x="632" y="522" on="0"/>
        <pt x="709" y="485" on="0"/>
        <pt x="766" y="428" on="0"/>
        <pt x="798" y="347" on="0"/>
        <pt x="798" y="295" on="1"/>
        <pt x="798" y="241" on="0"/>
        <pt x="753" y="134" on="0"/>
        <pt x="666" y="47" on="0"/>
        <pt x="537" y="-9" on="0"/>
        <pt x="454" y="-11" on="1"/>
        <pt x="412" y="-185" on="1"/>
        <pt x="271" y="-185" on="1"/>
        <pt x="313" y="-8" on="1"/>
        <pt x="206" y="10" on="0"/>
        <pt x="100" y="137" on="0"/>
      </contour>
      <contour>
        <pt x="478" y="96" on="1"/>
        <pt x="513" y="99" on="0"/>
        <pt x="574" y="133" on="0"/>
        <pt x="619" y="186" on="0"/>
        <pt x="645" y="255" on="0"/>
        <pt x="645" y="293" on="1"/>
        <pt x="645" y="312" on="0"/>
        <pt x="634" y="350" on="0"/>
        <pt x="612" y="383" on="0"/>
        <pt x="578" y="407" on="0"/>
        <pt x="554" y="412" on="1"/>
      </contour>
      <contour>
        <pt x="251" y="225" on="1"/>
        <pt x="251" y="206" on="0"/>
        <pt x="262" y="168" on="0"/>
        <pt x="284" y="135" on="0"/>
        <pt x="318" y="111" on="0"/>
        <pt x="342" y="106" on="1"/>
        <pt x="417" y="422" on="1"/>
        <pt x="378" y="417" on="0"/>
        <pt x="317" y="382" on="0"/>
        <pt x="274" y="329" on="0"/>
        <pt x="251" y="262" on="0"/>
      </contour>
    </TTGlyph>
    <TTGlyph name="afii10087" xMin="20" yMin="0" xMax="629" yMax="526">
      <component glyphName="x" x="0" y="0" flags="0x204"/>
    </TTGlyph>
    <TTGlyph name="afii10088" xMin="99" yMin="-150" xMax="621" yMax="526">
      <contour>
        <pt x="621" y="526" on="1"/>
        <pt x="550" y="227" on="1"/>
        <pt x="548" y="219" on="0"/>
        <pt x="543" y="198" on="0"/>
        <pt x="538" y="174" on="0"/>
        <pt x="535" y="151" on="0"/>
        <pt x="535" y="143" on="1"/>
        <pt x="535" y="117" on="0"/>
        <pt x="564" y="86" on="0"/>
        <pt x="602" y="80" on="1"/>
        <pt x="543" y="-150" on="1"/>
        <pt x="416" y="-150" on="1"/>
        <pt x="455" y="9" on="1"/>
        <pt x="441" y="15" on="0"/>
        <pt x="422" y="35" on="0"/>
        <pt x="417" y="46" on="1"/>
        <pt x="385" y="20" on="0"/>
        <pt x="313" y="-12" on="0"/>
        <pt x="270" y="-12" on="1"/>
        <pt x="211" y="-12" on="0"/>
        <pt x="138" y="31" on="0"/>
        <pt x="102" y="102" on="0"/>
        <pt x="99" y="194" on="0"/>
        <pt x="111" y="242" on="1"/>
        <pt x="179" y="526" on="1"/>
        <pt x="328" y="526" on="1"/>
        <pt x="261" y="244" on="1"/>
        <pt x="256" y="222" on="0"/>
        <pt x="249" y="176" on="0"/>
        <pt x="255" y="137" on="0"/>
        <pt x="280" y="112" on="0"/>
        <pt x="307" y="112" on="1"/>
        <pt x="330" y="112" on="0"/>
        <pt x="369" y="129" on="0"/>
        <pt x="391" y="150" on="1"/>
        <pt x="393" y="175" on="0"/>
        <pt x="402" y="230" on="0"/>
        <pt x="407" y="253" on="1"/>
        <pt x="472" y="526" on="1"/>
      </contour>
    </TTGlyph>
    <TTGlyph name="afii10089" xMin="119" yMin="0" xMax="605" yMax="526">
      <contour>
        <pt x="311" y="526" on="1"/>
        <pt x="270" y="356" on="1"/>
        <pt x="267" y="344" on="0"/>
        <pt x="267" y="335" on="1"/>
        <pt x="267" y="319" on="0"/>
        <pt x="281" y="300" on="0"/>
        <pt x="303" y="291" on="0"/>
        <pt x="331" y="288" on="0"/>
        <pt x="345" y="288" on="1"/>
        <pt x="375" y="288" on="0"/>
        <pt x="400" y="293" on="1"/>
        <pt x="456" y="526" on="1"/>
        <pt x="605" y="526" on="1"/>
        <pt x="478" y="0" on="1"/>
        <pt x="329" y="0" on="1"/>
        <pt x="371" y="173" on="1"/>
        <pt x="351" y="170" on="0"/>
        <pt x="314" y="166" on="0"/>
        <pt x="296" y="166" on="1"/>
        <pt x="258" y="166" on="0"/>
        <pt x="193" y="182" on="0"/>
        <pt x="146" y="218" on="0"/>
        <pt x="119" y="274" on="0"/>
        <pt x="119" y="314" on="1"/>
        <pt x="119" y="344" on="0"/>
        <pt x="128" y="383" on="1"/>
        <pt x="162" y="526" on="1"/>
      </contour>
    </TTGlyph>
    <TTGlyph name="afii10090" xMin="100" yMin="-12" xMax="901" yMax="526">
      <contour>
        <pt x="834" y="243" on="1"/>
        <pt x="821" y="190" on="0"/>
        <pt x="821" y="140" on="1"/>
        <pt x="821" y="76" on="0"/>
        <pt x="845" y="10" on="1"/>
        <pt x="712" y="-9" on="1"/>
        <pt x="691" y="40" on="1"/>
        <pt x="663" y="17" on="0"/>
        <pt x="594" y="-12" on="0"/>
        <pt x="558" y="-12" on="1"/>
        <pt x="527" y="-12" on="0"/>
        <pt x="466" y="11" on="0"/>
        <pt x="437" y="36" on="1"/>
        <pt x="400" y="15" on="0"/>
        <pt x="327" y="-12" on="0"/>
        <pt x="278" y="-12" on="1"/>
        <pt x="231" y="-12" on="0"/>
        <pt x="164" y="13" on="0"/>
        <pt x="120" y="60" on="0"/>
        <pt x="100" y="125" on="0"/>
        <pt x="100" y="164" on="1"/>
        <pt x="100" y="182" on="0"/>
        <pt x="105" y="222" on="0"/>
        <pt x="110" y="242" on="1"/>
        <pt x="178" y="526" on="1"/>
        <pt x="327" y="526" on="1"/>
        <pt x="261" y="248" on="1"/>
        <pt x="257" y="234" on="0"/>
        <pt x="251" y="199" on="0"/>
        <pt x="251" y="182" on="1"/>
        <pt x="251" y="154" on="0"/>
        <pt x="277" y="113" on="0"/>
        <pt x="315" y="113" on="1"/>
        <pt x="336" y="113" on="0"/>
        <pt x="374" y="128" on="0"/>
        <pt x="389" y="136" on="1"/>
        <pt x="387" y="144" on="0"/>
        <pt x="387" y="158" on="0"/>
        <pt x="387" y="164" on="1"/>
        <pt x="387" y="182" on="0"/>
        <pt x="392" y="222" on="0"/>
        <pt x="397" y="242" on="1"/>
        <pt x="465" y="526" on="1"/>
        <pt x="614" y="526" on="1"/>
        <pt x="548" y="248" on="1"/>
        <pt x="544" y="234" on="0"/>
        <pt x="538" y="199" on="0"/>
        <pt x="538" y="182" on="1"/>
        <pt x="538" y="154" on="0"/>
        <pt x="563" y="114" on="0"/>
        <pt x="601" y="114" on="1"/>
        <pt x="617" y="114" on="0"/>
        <pt x="654" y="132" on="0"/>
        <pt x="671" y="149" on="1"/>
        <pt x="671" y="152" on="0"/>
        <pt x="674" y="174" on="0"/>
        <pt x="677" y="203" on="0"/>
        <pt x="682" y="234" on="0"/>
        <pt x="685" y="246" on="1"/>
        <pt x="752" y="526" on="1"/>
        <pt x="901" y="526" on="1"/>
      </contour>
    </TTGlyph>
    <TTGlyph name="afii10091" xMin="100" yMin="-150" xMax="901" yMax="526">
      <contour>
        <pt x="831" y="229" on="1"/>
        <pt x="829" y="221" on="0"/>
        <pt x="824" y="199" on="0"/>
        <pt x="819" y="175" on="0"/>
        <pt x="816" y="151" on="0"/>
        <pt x="816" y="143" on="1"/>
        <pt x="816" y="117" on="0"/>
        <pt x="845" y="86" on="0"/>
        <pt x="883" y="80" on="1"/>
        <pt x="824" y="-150" on="1"/>
        <pt x="698" y="-150" on="1"/>
        <pt x="737" y="9" on="1"/>
        <pt x="723" y="15" on="0"/>
        <pt x="704" y="35" on="0"/>
        <pt x="699" y="46" on="1"/>
        <pt x="667" y="20" on="0"/>
        <pt x="601" y="-12" on="0"/>
        <pt x="558" y="-12" on="1"/>
        <pt x="527" y="-12" on="0"/>
        <pt x="466" y="11" on="0"/>
        <pt x="437" y="36" on="1"/>
        <pt x="400" y="15" on="0"/>
        <pt x="327" y="-12" on="0"/>
        <pt x="278" y="-12" on="1"/>
        <pt x="231" y="-12" on="0"/>
        <pt x="164" y="13" on="0"/>
        <pt x="120" y="60" on="0"/>
        <pt x="100" y="125" on="0"/>
        <pt x="100" y="164" on="1"/>
        <pt x="100" y="182" on="0"/>
        <pt x="105" y="222" on="0"/>
        <pt x="110" y="242" on="1"/>
        <pt x="178" y="526" on="1"/>
        <pt x="327" y="526" on="1"/>
        <pt x="261" y="248" on="1"/>
        <pt x="257" y="234" on="0"/>
        <pt x="251" y="199" on="0"/>
        <pt x="251" y="182" on="1"/>
        <pt x="251" y="154" on="0"/>
        <pt x="277" y="113" on="0"/>
        <pt x="315" y="113" on="1"/>
        <pt x="336" y="113" on="0"/>
        <pt x="374" y="128" on="0"/>
        <pt x="389" y="136" on="1"/>
        <pt x="387" y="144" on="0"/>
        <pt x="387" y="158" on="0"/>
        <pt x="387" y="164" on="1"/>
        <pt x="386" y="182" on="0"/>
        <pt x="392" y="222" on="0"/>
        <pt x="397" y="242" on="1"/>
        <pt x="465" y="526" on="1"/>
        <pt x="614" y="526" on="1"/>
        <pt x="548" y="248" on="1"/>
        <pt x="544" y="234" on="0"/>
        <pt x="538" y="199" on="0"/>
        <pt x="538" y="182" on="1"/>
        <pt x="538" y="154" on="0"/>
        <pt x="563" y="114" on="0"/>
        <pt x="601" y="114" on="1"/>
        <pt x="617" y="114" on="0"/>
        <pt x="654" y="132" on="0"/>
        <pt x="671" y="149" on="1"/>
        <pt x="671" y="152" on="0"/>
        <pt x="674" y="174" on="0"/>
        <pt x="677" y="203" on="0"/>
        <pt x="682" y="234" on="0"/>
        <pt x="685" y="246" on="1"/>
        <pt x="752" y="526" on="1"/>
        <pt x="901" y="526" on="1"/>
      </contour>
    </TTGlyph>
    <TTGlyph name="afii10092" xMin="110" yMin="-11" xMax="620" yMax="526">
      <contour>
        <pt x="394" y="235" on="1"/>
        <pt x="377" y="235" on="0"/>
        <pt x="342" y="231" on="0"/>
        <pt x="331" y="228" on="1"/>
        <pt x="303" y="108" on="1"/>
        <pt x="317" y="106" on="0"/>
        <pt x="347" y="104" on="0"/>
        <pt x="362" y="104" on="1"/>
        <pt x="420" y="104" on="0"/>
        <pt x="479" y="144" on="0"/>
        <pt x="479" y="179" on="1"/>
        <pt x="479" y="235" on="0"/>
      </contour>
      <contour>
        <pt x="358" y="339" on="1"/>
        <pt x="401" y="347" on="0"/>
        <pt x="438" y="347" on="1"/>
        <pt x="527" y="347" on="0"/>
        <pt x="620" y="264" on="0"/>
        <pt x="620" y="189" on="1"/>
        <pt x="620" y="147" on="0"/>
        <pt x="586" y="74" on="0"/>
        <pt x="517" y="20" on="0"/>
        <pt x="412" y="-11" on="0"/>
        <pt x="340" y="-11" on="1"/>
        <pt x="243" y="-11" on="0"/>
        <pt x="132" y="16" on="1"/>
        <pt x="225" y="404" on="1"/>
        <pt x="110" y="404" on="1"/>
        <pt x="139" y="526" on="1"/>
        <pt x="403" y="526" on="1"/>
      </contour>
    </TTGlyph>
    <TTGlyph name="afii10093" xMin="70" yMin="-11" xMax="876" yMax="526">
      <contour>
        <pt x="332" y="235" on="1"/>
        <pt x="315" y="235" on="0"/>
        <pt x="280" y="231" on="0"/>
        <pt x="269" y="228" on="1"/>
        <pt x="241" y="108" on="1"/>
        <pt x="255" y="106" on="0"/>
        <pt x="285" y="104" on="0"/>
        <pt x="300" y="104" on="1"/>
        <pt x="358" y="104" on="0"/>
        <pt x="417" y="144" on="0"/>
        <pt x="417" y="179" on="1"/>
        <pt x="417" y="235" on="0"/>
      </contour>
      <contour>
        <pt x="192" y="526" on="1"/>
        <pt x="341" y="526" on="1"/>
        <pt x="296" y="339" on="1"/>
        <pt x="339" y="347" on="0"/>
        <pt x="376" y="347" on="1"/>
        <pt x="465" y="347" on="0"/>
        <pt x="558" y="264" on="0"/>
        <pt x="558" y="189" on="1"/>
        <pt x="558" y="147" on="0"/>
        <pt x="524" y="74" on="0"/>
        <pt x="455" y="20" on="0"/>
        <pt x="350" y="-11" on="0"/>
        <pt x="278" y="-11" on="1"/>
        <pt x="181" y="-11" on="0"/>
        <pt x="70" y="16" on="1"/>
      </contour>
      <contour>
        <pt x="750" y="0" on="1"/>
        <pt x="602" y="0" on="1"/>
        <pt x="727" y="526" on="1"/>
        <pt x="876" y="526" on="1"/>
      </contour>
    </TTGlyph>
    <TTGlyph name="afii10094" xMin="70" yMin="-11" xMax="558" yMax="526">
      <contour>
        <pt x="332" y="235" on="1"/>
        <pt x="315" y="235" on="0"/>
        <pt x="280" y="231" on="0"/>
        <pt x="269" y="228" on="1"/>
        <pt x="241" y="108" on="1"/>
        <pt x="255" y="106" on="0"/>
        <pt x="285" y="104" on="0"/>
        <pt x="300" y="104" on="1"/>
        <pt x="358" y="104" on="0"/>
        <pt x="417" y="144" on="0"/>
        <pt x="417" y="179" on="1"/>
        <pt x="417" y="235" on="0"/>
      </contour>
      <contour>
        <pt x="192" y="526" on="1"/>
        <pt x="341" y="526" on="1"/>
        <pt x="296" y="339" on="1"/>
        <pt x="339" y="347" on="0"/>
        <pt x="376" y="347" on="1"/>
        <pt x="465" y="347" on="0"/>
        <pt x="558" y="264" on="0"/>
        <pt x="558" y="189" on="1"/>
        <pt x="558" y="147" on="0"/>
        <pt x="524" y="74" on="0"/>
        <pt x="455" y="20" on="0"/>
        <pt x="350" y="-11" on="0"/>
        <pt x="278" y="-11" on="1"/>
        <pt x="181" y="-11" on="0"/>
        <pt x="70" y="16" on="1"/>
      </contour>
    </TTGlyph>
    <TTGlyph name="afii10095" xMin="50" yMin="-13" xMax="524" yMax="540">
      <contour>
        <pt x="93" y="142" on="1"/>
        <pt x="129" y="126" on="0"/>
        <pt x="189" y="113" on="0"/>
        <pt x="219" y="113" on="1"/>
        <pt x="275" y="113" on="0"/>
        <pt x="351" y="160" on="0"/>
        <pt x="369" y="213" on="1"/>
        <pt x="177" y="213" on="1"/>
        <pt x="202" y="320" on="1"/>
        <pt x="384" y="320" on="1"/>
        <pt x="384" y="347" on="0"/>
        <pt x="367" y="385" on="0"/>
        <pt x="338" y="408" on="0"/>
        <pt x="300" y="418" on="0"/>
        <pt x="278" y="418" on="1"/>
        <pt x="248" y="418" on="0"/>
        <pt x="185" y="402" on="0"/>
        <pt x="157" y="391" on="1"/>
        <pt x="149" y="506" on="1"/>
        <pt x="229" y="540" on="0"/>
        <pt x="303" y="540" on="1"/>
        <pt x="357" y="540" on="0"/>
        <pt x="440" y="510" on="0"/>
        <pt x="495" y="455" on="0"/>
        <pt x="524" y="378" on="0"/>
        <pt x="524" y="331" on="1"/>
        <pt x="524" y="235" on="0"/>
        <pt x="470" y="104" on="0"/>
        <pt x="382" y="23" on="0"/>
        <pt x="268" y="-13" on="0"/>
        <pt x="207" y="-13" on="1"/>
        <pt x="163" y="-13" on="0"/>
        <pt x="82" y="5" on="0"/>
        <pt x="50" y="22" on="1"/>
      </contour>
    </TTGlyph>
    <TTGlyph name="afii10096" xMin="70" yMin="-14" xMax="889" yMax="540">
      <contour>
        <pt x="593" y="-14" on="1"/>
        <pt x="540" y="-14" on="0"/>
        <pt x="462" y="18" on="0"/>
        <pt x="411" y="76" on="0"/>
        <pt x="385" y="155" on="0"/>
        <pt x="385" y="203" on="1"/>
        <pt x="385" y="208" on="1"/>
        <pt x="269" y="208" on="1"/>
        <pt x="219" y="0" on="1"/>
        <pt x="70" y="0" on="1"/>
        <pt x="197" y="526" on="1"/>
        <pt x="346" y="526" on="1"/>
        <pt x="299" y="330" on="1"/>
        <pt x="407" y="330" on="1"/>
        <pt x="422" y="373" on="0"/>
        <pt x="472" y="449" on="0"/>
        <pt x="541" y="506" on="0"/>
        <pt x="629" y="540" on="0"/>
        <pt x="681" y="540" on="1"/>
        <pt x="733" y="540" on="0"/>
        <pt x="812" y="508" on="0"/>
        <pt x="863" y="450" on="0"/>
        <pt x="889" y="371" on="0"/>
        <pt x="889" y="323" on="1"/>
        <pt x="889" y="263" on="0"/>
        <pt x="851" y="143" on="0"/>
        <pt x="777" y="47" on="0"/>
        <pt x="666" y="-14" on="0"/>
      </contour>
      <contour>
        <pt x="667" y="414" on="1"/>
        <pt x="634" y="414" on="0"/>
        <pt x="584" y="376" on="0"/>
        <pt x="550" y="318" on="0"/>
        <pt x="533" y="249" on="0"/>
        <pt x="533" y="218" on="1"/>
        <pt x="533" y="168" on="0"/>
        <pt x="565" y="112" on="0"/>
        <pt x="607" y="112" on="1"/>
        <pt x="640" y="112" on="0"/>
        <pt x="690" y="150" on="0"/>
        <pt x="724" y="208" on="0"/>
        <pt x="741" y="277" on="0"/>
        <pt x="741" y="308" on="1"/>
        <pt x="741" y="358" on="0"/>
        <pt x="709" y="414" on="0"/>
      </contour>
    </TTGlyph>
    <TTGlyph name="afii10097" xMin="20" yMin="0" xMax="615" yMax="537">
      <contour>
        <pt x="319" y="187" on="1"/>
        <pt x="282" y="144" on="0"/>
        <pt x="205" y="45" on="0"/>
        <pt x="172" y="0" on="1"/>
        <pt x="20" y="0" on="1"/>
        <pt x="64" y="65" on="0"/>
        <pt x="158" y="182" on="0"/>
        <pt x="196" y="221" on="1"/>
        <pt x="158" y="242" on="0"/>
        <pt x="127" y="301" on="0"/>
        <pt x="127" y="335" on="1"/>
        <pt x="127" y="394" on="0"/>
        <pt x="174" y="472" on="0"/>
        <pt x="251" y="518" on="0"/>
        <pt x="351" y="537" on="0"/>
        <pt x="405" y="537" on="1"/>
        <pt x="461" y="537" on="0"/>
        <pt x="570" y="522" on="0"/>
        <pt x="615" y="511" on="1"/>
        <pt x="492" y="0" on="1"/>
        <pt x="343" y="0" on="1"/>
        <pt x="388" y="187" on="1"/>
      </contour>
      <contour>
        <pt x="444" y="419" on="1"/>
        <pt x="430" y="421" on="0"/>
        <pt x="399" y="423" on="0"/>
        <pt x="382" y="423" on="1"/>
        <pt x="361" y="423" on="0"/>
        <pt x="322" y="416" on="0"/>
        <pt x="290" y="398" on="0"/>
        <pt x="271" y="367" on="0"/>
        <pt x="271" y="344" on="1"/>
        <pt x="271" y="324" on="0"/>
        <pt x="307" y="293" on="0"/>
        <pt x="342" y="293" on="1"/>
        <pt x="413" y="293" on="1"/>
      </contour>
    </TTGlyph>
    <TTGlyph name="afii10098" xMin="70" yMin="0" xMax="579" yMax="650">
      <contour>
        <pt x="519" y="404" on="1"/>
        <pt x="315" y="404" on="1"/>
        <pt x="218" y="0" on="1"/>
        <pt x="70" y="0" on="1"/>
        <pt x="196" y="526" on="1"/>
        <pt x="422" y="526" on="1"/>
        <pt x="452" y="650" on="1"/>
        <pt x="579" y="650" on="1"/>
      </contour>
    </TTGlyph>
    <TTGlyph name="afii10099" xMin="70" yMin="-187" xMax="588" yMax="776">
      <contour>
        <pt x="173" y="689" on="1"/>
        <pt x="235" y="689" on="1"/>
        <pt x="250" y="752" on="1"/>
        <pt x="405" y="776" on="1"/>
        <pt x="384" y="689" on="1"/>
        <pt x="527" y="689" on="1"/>
        <pt x="504" y="596" on="1"/>
        <pt x="362" y="596" on="1"/>
        <pt x="342" y="513" on="1"/>
        <pt x="362" y="517" on="0"/>
        <pt x="403" y="523" on="0"/>
        <pt x="423" y="523" on="1"/>
        <pt x="464" y="523" on="0"/>
        <pt x="526" y="497" on="0"/>
        <pt x="567" y="450" on="0"/>
        <pt x="588" y="387" on="0"/>
        <pt x="588" y="350" on="1"/>
        <pt x="588" y="332" on="0"/>
        <pt x="583" y="292" on="0"/>
        <pt x="578" y="272" on="1"/>
        <pt x="517" y="19" on="1"/>
        <pt x="491" y="-89" on="0"/>
        <pt x="397" y="-187" on="0"/>
        <pt x="316" y="-187" on="1"/>
        <pt x="288" y="-187" on="0"/>
        <pt x="241" y="-177" on="0"/>
        <pt x="212" y="-166" on="1"/>
        <pt x="250" y="-48" on="1"/>
        <pt x="274" y="-57" on="0"/>
        <pt x="294" y="-57" on="1"/>
        <pt x="349" y="-57" on="0"/>
        <pt x="363" y="0" on="1"/>
        <pt x="427" y="266" on="1"/>
        <pt x="430" y="280" on="0"/>
        <pt x="436" y="315" on="0"/>
        <pt x="437" y="332" on="1"/>
        <pt x="437" y="360" on="0"/>
        <pt x="411" y="401" on="0"/>
        <pt x="373" y="401" on="1"/>
        <pt x="357" y="401" on="0"/>
        <pt x="328" y="397" on="0"/>
        <pt x="314" y="394" on="1"/>
        <pt x="219" y="0" on="1"/>
        <pt x="70" y="0" on="1"/>
        <pt x="212" y="596" on="1"/>
        <pt x="150" y="596" on="1"/>
      </contour>
    </TTGlyph>
    <TTGlyph name="afii10100" xMin="79" yMin="-14" xMax="547" yMax="799">
      <component glyphName="uni01A8" x="0" y="0" flags="0x204"/>
      <component glyphName="acute" x="133" y="0" flags="0x4"/>
    </TTGlyph>
    <TTGlyph name="afii10101" xMin="100" yMin="-14" xMax="566" yMax="540">
      <contour>
        <pt x="517" y="392" on="1"/>
        <pt x="496" y="405" on="0"/>
        <pt x="438" y="420" on="0"/>
        <pt x="407" y="420" on="1"/>
        <pt x="382" y="420" on="0"/>
        <pt x="334" y="409" on="0"/>
        <pt x="293" y="385" on="0"/>
        <pt x="263" y="347" on="0"/>
        <pt x="256" y="320" on="1"/>
        <pt x="445" y="320" on="1"/>
        <pt x="420" y="213" on="1"/>
        <pt x="234" y="213" on="1"/>
        <pt x="234" y="184" on="0"/>
        <pt x="254" y="145" on="0"/>
        <pt x="286" y="122" on="0"/>
        <pt x="328" y="112" on="0"/>
        <pt x="351" y="112" on="1"/>
        <pt x="370" y="112" on="0"/>
        <pt x="408" y="118" on="0"/>
        <pt x="443" y="127" on="0"/>
        <pt x="472" y="138" on="0"/>
        <pt x="481" y="143" on="1"/>
        <pt x="489" y="22" on="1"/>
        <pt x="447" y="2" on="0"/>
        <pt x="366" y="-14" on="0"/>
        <pt x="334" y="-14" on="1"/>
        <pt x="287" y="-14" on="0"/>
        <pt x="202" y="10" on="0"/>
        <pt x="138" y="65" on="0"/>
        <pt x="100" y="152" on="0"/>
        <pt x="100" y="215" on="1"/>
        <pt x="100" y="287" on="0"/>
        <pt x="149" y="407" on="0"/>
        <pt x="234" y="493" on="0"/>
        <pt x="348" y="540" on="0"/>
        <pt x="413" y="540" on="1"/>
        <pt x="450" y="540" on="0"/>
        <pt x="527" y="524" on="0"/>
        <pt x="566" y="506" on="1"/>
      </contour>
    </TTGlyph>
    <TTGlyph name="afii10102" xMin="50" yMin="-14" xMax="533" yMax="540">
      <component glyphName="s" x="0" y="0" flags="0x204"/>
    </TTGlyph>
    <TTGlyph name="afii10103" xMin="70" yMin="0" xMax="393" yMax="766">
      <component glyphName="i" x="0" y="0" flags="0x204"/>
    </TTGlyph>
    <TTGlyph name="afii10104" xMin="70" yMin="0" xMax="492" yMax="754">
      <component glyphName="dotlessi" x="0" y="0" flags="0x204"/>
      <component glyphName="dieresis" x="-110" y="0" flags="0x4"/>
    </TTGlyph>
    <TTGlyph name="afii10105" xMin="-90" yMin="-185" xMax="406" yMax="766">
      <component glyphName="j" x="0" y="0" flags="0x204"/>
    </TTGlyph>
    <TTGlyph name="afii10106" xMin="40" yMin="-11" xMax="872" yMax="526">
      <contour>
        <pt x="646" y="235" on="1"/>
        <pt x="629" y="235" on="0"/>
        <pt x="594" y="231" on="0"/>
        <pt x="583" y="228" on="1"/>
        <pt x="555" y="108" on="1"/>
        <pt x="569" y="106" on="0"/>
        <pt x="599" y="104" on="0"/>
        <pt x="614" y="104" on="1"/>
        <pt x="672" y="104" on="0"/>
        <pt x="731" y="144" on="0"/>
        <pt x="731" y="179" on="1"/>
        <pt x="731" y="235" on="0"/>
      </contour>
      <contour>
        <pt x="610" y="339" on="1"/>
        <pt x="653" y="347" on="0"/>
        <pt x="690" y="347" on="1"/>
        <pt x="779" y="347" on="0"/>
        <pt x="872" y="264" on="0"/>
        <pt x="872" y="189" on="1"/>
        <pt x="872" y="147" on="0"/>
        <pt x="838" y="74" on="0"/>
        <pt x="769" y="20" on="0"/>
        <pt x="664" y="-11" on="0"/>
        <pt x="592" y="-11" on="1"/>
        <pt x="495" y="-11" on="0"/>
        <pt x="384" y="16" on="1"/>
        <pt x="476" y="404" on="1"/>
        <pt x="374" y="404" on="1"/>
        <pt x="346" y="299" on="0"/>
        <pt x="296" y="147" on="0"/>
        <pt x="226" y="46" on="0"/>
        <pt x="122" y="-5" on="0"/>
        <pt x="40" y="-9" on="1"/>
        <pt x="40" y="115" on="1"/>
        <pt x="85" y="117" on="0"/>
        <pt x="146" y="155" on="0"/>
        <pt x="166" y="187" on="1"/>
        <pt x="194" y="231" on="0"/>
        <pt x="223" y="353" on="0"/>
        <pt x="237" y="418" on="1"/>
        <pt x="260" y="526" on="1"/>
        <pt x="655" y="526" on="1"/>
      </contour>
    </TTGlyph>
    <TTGlyph name="afii10107" xMin="70" yMin="-11" xMax="863" yMax="526">
      <contour>
        <pt x="497" y="526" on="1"/>
        <pt x="646" y="526" on="1"/>
        <pt x="601" y="339" on="1"/>
        <pt x="644" y="347" on="0"/>
        <pt x="681" y="347" on="1"/>
        <pt x="770" y="347" on="0"/>
        <pt x="863" y="264" on="0"/>
        <pt x="863" y="189" on="1"/>
        <pt x="863" y="147" on="0"/>
        <pt x="829" y="74" on="0"/>
        <pt x="760" y="20" on="0"/>
        <pt x="655" y="-11" on="0"/>
        <pt x="583" y="-11" on="1"/>
        <pt x="486" y="-11" on="0"/>
        <pt x="375" y="16" on="1"/>
        <pt x="421" y="208" on="1"/>
        <pt x="269" y="208" on="1"/>
        <pt x="219" y="0" on="1"/>
        <pt x="70" y="0" on="1"/>
        <pt x="197" y="526" on="1"/>
        <pt x="346" y="526" on="1"/>
        <pt x="299" y="330" on="1"/>
        <pt x="450" y="330" on="1"/>
      </contour>
      <contour>
        <pt x="637" y="235" on="1"/>
        <pt x="620" y="235" on="0"/>
        <pt x="585" y="231" on="0"/>
        <pt x="574" y="228" on="1"/>
        <pt x="546" y="108" on="1"/>
        <pt x="560" y="106" on="0"/>
        <pt x="590" y="104" on="0"/>
        <pt x="605" y="104" on="1"/>
        <pt x="663" y="104" on="0"/>
        <pt x="722" y="144" on="0"/>
        <pt x="722" y="179" on="1"/>
        <pt x="722" y="235" on="0"/>
      </contour>
    </TTGlyph>
    <TTGlyph name="afii10108" xMin="70" yMin="0" xMax="588" yMax="776">
      <component glyphName="hbar" x="0" y="0" flags="0x204"/>
    </TTGlyph>
    <TTGlyph name="afii10109" xMin="70" yMin="0" xMax="679" yMax="799">
      <component glyphName="kgreenlandic" x="0" y="0" flags="0x204"/>
      <component glyphName="acute" x="190" y="0" flags="0x4"/>
    </TTGlyph>
    <TTGlyph name="afii10110" xMin="-25" yMin="-185" xMax="632" yMax="767">
      <component glyphName="y" x="0" y="0" flags="0x204"/>
      <component glyphName="kratka" x="51" y="0" flags="0x4"/>
    </TTGlyph>
    <TTGlyph name="afii10145" xMin="75" yMin="-185" xMax="791" yMax="693">
      <contour>
        <pt x="262" y="132" on="1"/>
        <pt x="500" y="132" on="1"/>
        <pt x="635" y="693" on="1"/>
        <pt x="791" y="693" on="1"/>
        <pt x="625" y="0" on="1"/>
        <pt x="426" y="0" on="1"/>
        <pt x="381" y="-185" on="1"/>
        <pt x="231" y="-185" on="1"/>
        <pt x="276" y="0" on="1"/>
        <pt x="75" y="0" on="1"/>
        <pt x="241" y="693" on="1"/>
        <pt x="397" y="693" on="1"/>
      </contour>
    </TTGlyph>
    <TTGlyph name="afii10193" xMin="99" yMin="-185" xMax="621" yMax="526">
      <contour>
        <pt x="621" y="526" on="1"/>
        <pt x="550" y="227" on="1"/>
        <pt x="536" y="170" on="0"/>
        <pt x="548" y="55" on="0"/>
        <pt x="565" y="10" on="1"/>
        <pt x="432" y="-9" on="1"/>
        <pt x="421" y="13" on="0"/>
        <pt x="411" y="40" on="1"/>
        <pt x="383" y="18" on="0"/>
        <pt x="313" y="-12" on="0"/>
        <pt x="270" y="-12" on="1"/>
        <pt x="211" y="-12" on="0"/>
        <pt x="138" y="31" on="0"/>
        <pt x="102" y="102" on="0"/>
        <pt x="99" y="194" on="0"/>
        <pt x="111" y="242" on="1"/>
        <pt x="179" y="526" on="1"/>
        <pt x="328" y="526" on="1"/>
        <pt x="261" y="244" on="1"/>
        <pt x="256" y="222" on="0"/>
        <pt x="249" y="176" on="0"/>
        <pt x="255" y="137" on="0"/>
        <pt x="280" y="112" on="0"/>
        <pt x="307" y="112" on="1"/>
        <pt x="330" y="112" on="0"/>
        <pt x="369" y="129" on="0"/>
        <pt x="391" y="150" on="1"/>
        <pt x="393" y="175" on="0"/>
        <pt x="402" y="230" on="0"/>
        <pt x="407" y="253" on="1"/>
        <pt x="472" y="526" on="1"/>
      </contour>
      <contour>
        <pt x="282" y="-185" on="1"/>
        <pt x="156" y="-185" on="1"/>
        <pt x="191" y="-42" on="1"/>
        <pt x="320" y="-42" on="1"/>
      </contour>
    </TTGlyph>
    <TTGlyph name="afii61289" xMin="86" yMin="-14" xMax="566" yMax="776">
      <contour>
        <pt x="566" y="61" on="1"/>
        <pt x="528" y="25" on="0"/>
        <pt x="430" y="-14" on="0"/>
        <pt x="370" y="-14" on="1"/>
        <pt x="285" y="-14" on="0"/>
        <pt x="189" y="66" on="0"/>
        <pt x="179" y="154" on="1"/>
        <pt x="134" y="122" on="1"/>
        <pt x="86" y="194" on="1"/>
        <pt x="110" y="213" on="0"/>
        <pt x="155" y="246" on="0"/>
        <pt x="177" y="264" on="1"/>
        <pt x="177" y="504" on="1"/>
        <pt x="177" y="645" on="0"/>
        <pt x="282" y="776" on="0"/>
        <pt x="370" y="776" on="1"/>
        <pt x="412" y="776" on="0"/>
        <pt x="473" y="746" on="0"/>
        <pt x="514" y="695" on="0"/>
        <pt x="533" y="627" on="0"/>
        <pt x="533" y="589" on="1"/>
        <pt x="533" y="498" on="0"/>
        <pt x="418" y="330" on="0"/>
        <pt x="315" y="239" on="1"/>
        <pt x="315" y="206" on="1"/>
        <pt x="315" y="112" on="0"/>
        <pt x="400" y="112" on="1"/>
        <pt x="428" y="112" on="0"/>
        <pt x="484" y="139" on="0"/>
        <pt x="505" y="157" on="1"/>
      </contour>
      <contour>
        <pt x="315" y="372" on="1"/>
        <pt x="367" y="429" on="0"/>
        <pt x="432" y="544" on="0"/>
        <pt x="432" y="593" on="1"/>
        <pt x="432" y="632" on="0"/>
        <pt x="408" y="672" on="0"/>
        <pt x="378" y="672" on="1"/>
        <pt x="366" y="672" on="0"/>
        <pt x="343" y="658" on="0"/>
        <pt x="326" y="623" on="0"/>
        <pt x="315" y="564" on="0"/>
        <pt x="315" y="520" on="1"/>
      </contour>
    </TTGlyph>
    <TTGlyph name="afii61352" xMin="75" yMin="0" xMax="1187" yMax="709">
      <contour>
        <pt x="770" y="245" on="1"/>
        <pt x="1120" y="245" on="1"/>
        <pt x="1091" y="122" on="1"/>
        <pt x="741" y="122" on="1"/>
      </contour>
      <contour>
        <pt x="499" y="0" on="1"/>
        <pt x="481" y="60" on="0"/>
        <pt x="446" y="165" on="0"/>
        <pt x="407" y="269" on="0"/>
        <pt x="362" y="379" on="0"/>
        <pt x="334" y="444" on="1"/>
        <pt x="228" y="0" on="1"/>
        <pt x="75" y="0" on="1"/>
        <pt x="240" y="693" on="1"/>
        <pt x="367" y="693" on="1"/>
        <pt x="397" y="638" on="0"/>
        <pt x="443" y="546" on="0"/>
        <pt x="484" y="454" on="0"/>
        <pt x="523" y="355" on="0"/>
        <pt x="545" y="294" on="1"/>
        <pt x="641" y="693" on="1"/>
        <pt x="796" y="693" on="1"/>
        <pt x="630" y="0" on="1"/>
      </contour>
      <contour>
        <pt x="970" y="329" on="1"/>
        <pt x="891" y="329" on="0"/>
        <pt x="811" y="415" on="0"/>
        <pt x="811" y="482" on="1"/>
        <pt x="811" y="522" on="0"/>
        <pt x="838" y="604" on="0"/>
        <pt x="892" y="668" on="0"/>
        <pt x="973" y="709" on="0"/>
        <pt x="1028" y="709" on="1"/>
        <pt x="1107" y="709" on="0"/>
        <pt x="1187" y="623" on="0"/>
        <pt x="1187" y="556" on="1"/>
        <pt x="1187" y="515" on="0"/>
        <pt x="1160" y="434" on="0"/>
        <pt x="1106" y="370" on="0"/>
        <pt x="1025" y="329" on="0"/>
      </contour>
      <contour>
        <pt x="1019" y="618" on="1"/>
        <pt x="995" y="618" on="0"/>
        <pt x="960" y="594" on="0"/>
        <pt x="937" y="558" on="0"/>
        <pt x="926" y="514" on="0"/>
        <pt x="926" y="494" on="1"/>
        <pt x="926" y="461" on="0"/>
        <pt x="949" y="420" on="0"/>
        <pt x="979" y="420" on="1"/>
        <pt x="1003" y="420" on="0"/>
        <pt x="1038" y="444" on="0"/>
        <pt x="1061" y="480" on="0"/>
        <pt x="1072" y="524" on="0"/>
        <pt x="1072" y="544" on="1"/>
        <pt x="1072" y="577" on="0"/>
        <pt x="1049" y="618" on="0"/>
      </contour>
    </TTGlyph>
    <TTGlyph name="agrave" xMin="100" yMin="-14" xMax="628" yMax="799">
      <component glyphName="a" x="0" y="0" flags="0x204"/>
      <component glyphName="grave" x="199" y="0" flags="0x4"/>
    </TTGlyph>
    <TTGlyph name="alpha" xMin="100" yMin="-14" xMax="628" yMax="538">
      <contour>
        <pt x="563" y="-11" on="1"/>
        <pt x="508" y="-11" on="0"/>
        <pt x="440" y="15" on="0"/>
        <pt x="422" y="39" on="1"/>
        <pt x="413" y="31" on="0"/>
        <pt x="387" y="13" on="0"/>
        <pt x="353" y="-3" on="0"/>
        <pt x="311" y="-14" on="0"/>
        <pt x="286" y="-14" on="1"/>
        <pt x="235" y="-14" on="0"/>
        <pt x="164" y="22" on="0"/>
        <pt x="120" y="81" on="0"/>
        <pt x="100" y="156" on="0"/>
        <pt x="100" y="194" on="1"/>
        <pt x="100" y="256" on="0"/>
        <pt x="141" y="379" on="0"/>
        <pt x="222" y="477" on="0"/>
        <pt x="345" y="538" on="0"/>
        <pt x="426" y="538" on="1"/>
        <pt x="481" y="538" on="0"/>
        <pt x="584" y="520" on="0"/>
        <pt x="628" y="499" on="1"/>
        <pt x="562" y="223" on="1"/>
        <pt x="554" y="191" on="0"/>
        <pt x="551" y="150" on="0"/>
        <pt x="561" y="126" on="0"/>
        <pt x="588" y="115" on="0"/>
        <pt x="612" y="113" on="1"/>
      </contour>
      <contour>
        <pt x="323" y="111" on="1"/>
        <pt x="349" y="111" on="0"/>
        <pt x="386" y="132" on="0"/>
        <pt x="404" y="149" on="1"/>
        <pt x="405" y="166" on="0"/>
        <pt x="410" y="210" on="0"/>
        <pt x="415" y="230" on="1"/>
        <pt x="459" y="411" on="1"/>
        <pt x="446" y="414" on="0"/>
        <pt x="423" y="415" on="0"/>
        <pt x="414" y="415" on="1"/>
        <pt x="375" y="415" on="0"/>
        <pt x="313" y="378" on="0"/>
        <pt x="270" y="319" on="0"/>
        <pt x="248" y="247" on="0"/>
        <pt x="248" y="212" on="1"/>
        <pt x="248" y="167" on="0"/>
        <pt x="281" y="111" on="0"/>
      </contour>
    </TTGlyph>
    <TTGlyph name="alphatonos" xMin="100" yMin="-14" xMax="640" yMax="814">
      <component glyphName="alpha" x="0" y="0" flags="0x204"/>
      <component glyphName="tonos" x="145" y="0" flags="0x4"/>
    </TTGlyph>
    <TTGlyph name="amacron" xMin="100" yMin="-14" xMax="645" yMax="725">
      <component glyphName="a" x="0" y="0" flags="0x204"/>
      <component glyphName="macron" x="127" y="0" flags="0x4"/>
    </TTGlyph>
    <TTGlyph name="ampersand" xMin="80" yMin="-9" xMax="703" yMax="709">
      <contour>
        <pt x="80" y="157" on="1"/>
        <pt x="80" y="232" on="0"/>
        <pt x="158" y="341" on="0"/>
        <pt x="245" y="380" on="1"/>
        <pt x="262" y="388" on="1"/>
        <pt x="242" y="421" on="0"/>
        <pt x="223" y="486" on="0"/>
        <pt x="223" y="517" on="1"/>
        <pt x="223" y="557" on="0"/>
        <pt x="254" y="628" on="0"/>
        <pt x="313" y="679" on="0"/>
        <pt x="396" y="709" on="0"/>
        <pt x="448" y="709" on="1"/>
        <pt x="491" y="709" on="0"/>
        <pt x="557" y="686" on="0"/>
        <pt x="600" y="648" on="0"/>
        <pt x="622" y="597" on="0"/>
        <pt x="622" y="569" on="1"/>
        <pt x="622" y="544" on="0"/>
        <pt x="604" y="490" on="0"/>
        <pt x="569" y="438" on="0"/>
        <pt x="515" y="392" on="0"/>
        <pt x="479" y="376" on="1"/>
        <pt x="442" y="359" on="1"/>
        <pt x="526" y="247" on="1"/>
        <pt x="551" y="288" on="0"/>
        <pt x="572" y="348" on="1"/>
        <pt x="703" y="331" on="1"/>
        <pt x="660" y="222" on="0"/>
        <pt x="602" y="147" on="1"/>
        <pt x="628" y="110" on="0"/>
        <pt x="669" y="36" on="0"/>
        <pt x="686" y="0" on="1"/>
        <pt x="535" y="0" on="1"/>
        <pt x="529" y="13" on="0"/>
        <pt x="514" y="41" on="0"/>
        <pt x="506" y="56" on="1"/>
        <pt x="411" y="-9" on="0"/>
        <pt x="289" y="-9" on="1"/>
        <pt x="236" y="-9" on="0"/>
        <pt x="157" y="19" on="0"/>
        <pt x="105" y="66" on="0"/>
        <pt x="80" y="125" on="0"/>
      </contour>
      <contour>
        <pt x="308" y="107" on="1"/>
        <pt x="334" y="107" on="0"/>
        <pt x="402" y="124" on="0"/>
        <pt x="440" y="150" on="1"/>
        <pt x="323" y="304" on="1"/>
        <pt x="308" y="297" on="1"/>
        <pt x="266" y="278" on="0"/>
        <pt x="228" y="216" on="0"/>
        <pt x="228" y="186" on="1"/>
        <pt x="228" y="154" on="0"/>
        <pt x="269" y="107" on="0"/>
      </contour>
      <contour>
        <pt x="355" y="513" on="1"/>
        <pt x="355" y="485" on="0"/>
        <pt x="381" y="442" on="1"/>
        <pt x="393" y="447" on="1"/>
        <pt x="441" y="469" on="0"/>
        <pt x="494" y="520" on="0"/>
        <pt x="494" y="555" on="1"/>
        <pt x="494" y="574" on="0"/>
        <pt x="466" y="603" on="0"/>
        <pt x="436" y="603" on="1"/>
        <pt x="406" y="603" on="0"/>
        <pt x="355" y="558" on="0"/>
      </contour>
    </TTGlyph>
    <TTGlyph name="ampersand.001" xMin="100" yMin="-14" xMax="819" yMax="709">
      <contour>
        <pt x="353" y="-14" on="1"/>
        <pt x="298" y="-14" on="0"/>
        <pt x="205" y="11" on="0"/>
        <pt x="138" y="60" on="0"/>
        <pt x="100" y="135" on="0"/>
        <pt x="100" y="186" on="1"/>
        <pt x="100" y="254" on="0"/>
        <pt x="182" y="367" on="0"/>
        <pt x="260" y="397" on="1"/>
        <pt x="231" y="418" on="0"/>
        <pt x="206" y="482" on="0"/>
        <pt x="206" y="508" on="1"/>
        <pt x="206" y="560" on="0"/>
        <pt x="249" y="635" on="0"/>
        <pt x="320" y="685" on="0"/>
        <pt x="410" y="709" on="0"/>
        <pt x="457" y="709" on="1"/>
        <pt x="499" y="709" on="0"/>
        <pt x="580" y="690" on="0"/>
        <pt x="614" y="672" on="1"/>
        <pt x="561" y="551" on="1"/>
        <pt x="538" y="562" on="0"/>
        <pt x="482" y="575" on="0"/>
        <pt x="455" y="575" on="1"/>
        <pt x="416" y="575" on="0"/>
        <pt x="359" y="544" on="0"/>
        <pt x="359" y="506" on="1"/>
        <pt x="359" y="470" on="0"/>
        <pt x="423" y="443" on="0"/>
        <pt x="471" y="443" on="1"/>
        <pt x="819" y="443" on="1"/>
        <pt x="791" y="315" on="1"/>
        <pt x="726" y="315" on="1"/>
        <pt x="716" y="250" on="0"/>
        <pt x="660" y="131" on="0"/>
        <pt x="568" y="40" on="0"/>
        <pt x="438" y="-14" on="0"/>
      </contour>
      <contour>
        <pt x="440" y="315" on="1"/>
        <pt x="344" y="315" on="0"/>
        <pt x="258" y="250" on="0"/>
        <pt x="258" y="201" on="1"/>
        <pt x="258" y="119" on="0"/>
        <pt x="376" y="119" on="1"/>
        <pt x="406" y="119" on="0"/>
        <pt x="472" y="143" on="0"/>
        <pt x="530" y="191" on="0"/>
        <pt x="575" y="265" on="0"/>
        <pt x="584" y="315" on="1"/>
      </contour>
    </TTGlyph>
    <TTGlyph name="aogonek" xMin="100" yMin="-221" xMax="628" yMax="538">
      <contour>
        <pt x="563" y="227" on="1"/>
        <pt x="549" y="170" on="0"/>
        <pt x="561" y="55" on="0"/>
        <pt x="578" y="10" on="1"/>
        <pt x="559" y="-3" on="1"/>
        <pt x="508" y="-38" on="0"/>
        <pt x="468" y="-84" on="0"/>
        <pt x="468" y="-97" on="1"/>
        <pt x="468" y="-113" on="0"/>
        <pt x="493" y="-113" on="1"/>
        <pt x="507" y="-113" on="0"/>
        <pt x="539" y="-104" on="0"/>
        <pt x="546" y="-102" on="1"/>
        <pt x="536" y="-201" on="1"/>
        <pt x="516" y="-210" on="0"/>
        <pt x="467" y="-221" on="0"/>
        <pt x="441" y="-221" on="1"/>
        <pt x="420" y="-221" on="0"/>
        <pt x="380" y="-212" on="0"/>
        <pt x="349" y="-192" on="0"/>
        <pt x="331" y="-160" on="0"/>
        <pt x="331" y="-136" on="1"/>
        <pt x="331" y="-106" on="0"/>
        <pt x="373" y="-42" on="0"/>
        <pt x="421" y="-13" on="1"/>
        <pt x="441" y="-1" on="1"/>
        <pt x="436" y="8" on="0"/>
        <pt x="428" y="28" on="0"/>
        <pt x="424" y="39" on="1"/>
        <pt x="396" y="16" on="0"/>
        <pt x="328" y="-14" on="0"/>
        <pt x="286" y="-14" on="1"/>
        <pt x="236" y="-14" on="0"/>
        <pt x="165" y="21" on="0"/>
        <pt x="120" y="80" on="0"/>
        <pt x="100" y="159" on="0"/>
        <pt x="100" y="204" on="1"/>
        <pt x="100" y="273" on="0"/>
        <pt x="149" y="395" on="0"/>
        <pt x="236" y="486" on="0"/>
        <pt x="354" y="538" on="0"/>
        <pt x="423" y="538" on="1"/>
        <pt x="432" y="538" on="0"/>
        <pt x="477" y="536" on="0"/>
        <pt x="535" y="529" on="0"/>
        <pt x="599" y="513" on="0"/>
        <pt x="628" y="499" on="1"/>
      </contour>
      <contour>
        <pt x="459" y="411" on="1"/>
        <pt x="446" y="413" on="0"/>
        <pt x="425" y="415" on="0"/>
        <pt x="410" y="415" on="1"/>
        <pt x="376" y="415" on="0"/>
        <pt x="317" y="381" on="0"/>
        <pt x="273" y="326" on="0"/>
        <pt x="248" y="254" on="0"/>
        <pt x="248" y="215" on="1"/>
        <pt x="248" y="167" on="0"/>
        <pt x="280" y="111" on="0"/>
        <pt x="323" y="111" on="1"/>
        <pt x="346" y="111" on="0"/>
        <pt x="383" y="129" on="0"/>
        <pt x="404" y="150" on="1"/>
        <pt x="406" y="175" on="0"/>
        <pt x="415" y="230" on="0"/>
        <pt x="420" y="253" on="1"/>
      </contour>
    </TTGlyph>
</ttFont>
